<REAPER_PROJECT 0.1 "7.06/win64" 1752626106
  <NOTES 0 2
  >
  RIPPLE 0
  GROUPOVERRIDE 0 0 0
  AUTOXFADE 129
  ENVATTACH 3
  POOLEDENVATTACH 0
  MIXERUIFLAGS 11 48
  PEAKGAIN 1
  FEEDBACK 0
  PANLAW 1
  PROJOFFS 0 0 0
  MAXPROJLEN 0 0
  GRID 3199 8 1 8 1 0 0 0
  TIMEMODE 1 5 -1 30 0 0 -1
  VIDEO_CONFIG 0 0 256
  PANMODE 3
  CURSOR 58.8
  ZOOM 12.85911208940568 457 0
  VZOOMEX 6 382
  USE_REC_CFG 0
  RECMODE 1
  SMPTESYNC 0 30 100 40 1000 300 0 0 1 0 0
  LOOP 0
  LOOPGRAN 0 4
  RECORD_PATH "Media" ""
  <RECORD_CFG
    ZXZhdxgAAQ==
  >
  <APPLYFX_CFG
  >
  RENDER_FILE ""
  RENDER_PATTERN ""
  RENDER_FMT 0 2 0
  RENDER_1X 0
  RENDER_RANGE 1 0 0 18 1000
  RENDER_RESAMPLE 3 0 1
  RENDER_ADDTOPROJ 0
  RENDER_STEMS 0
  RENDER_DITHER 0
  TIMELOCKMODE 1
  TEMPOENVLOCKMODE 1
  ITEMMIX 1
  DEFPITCHMODE 589824 0
  TAKELANE 1
  SAMPLERATE 44100 0 0
  <RENDER_CFG
    ZXZhdxgAAQ==
  >
  LOCK 1
  <METRONOME 6 2
    VOL 0.25 0.125
    FREQ 800 1600 1
    BEATLEN 4
    SAMPLES "" ""
    PATTERN 2863311530 2863311529
    MULT 1
  >
  GLOBAL_AUTO -1
  TEMPO 120 4 4
  PLAYRATE 1 0 0.25 4
  SELECTION 0 0
  SELECTION2 106.35 106.35833333333332
  MASTERAUTOMODE 0
  MASTERTRACKHEIGHT 0 0
  MASTERPEAKCOL 16576
  MASTERMUTESOLO 0
  MASTERTRACKVIEW 0 0.6667 0.5 0.5 0 0 0 0 0 0 0 0 0 0
  MASTERHWOUT 0 0 1 0 0 0 0 -1
  MASTER_NCH 2 2
  MASTER_VOLUME 1 0 -1 -1 1
  MASTER_PANMODE 3
  MASTER_FX 1
  MASTER_SEL 0
  <MASTERPLAYSPEEDENV
    EGUID {1E60D3CF-E05B-439B-9D85-EF0B285FAA20}
    ACT 0 -1
    VIS 0 1 1
    LANEHEIGHT 0 0
    ARM 0
    DEFSHAPE 0 -1 -1
  >
  <TEMPOENVEX
    EGUID {96E86865-D893-4471-A204-D717855EA584}
    ACT 1 -1
    VIS 1 0 1
    LANEHEIGHT 0 0
    ARM 0
    DEFSHAPE 1 -1 -1
    PT 0.000000000000 150.0000000000 1 262147 0 1
  >
  MARKER 1 0 [ 0 0 1 R {B9D3FE5E-7EEA-463A-A46C-02EC77103140} 0
  MARKER 2 196.8 ] 0 0 1 R {CE943DEA-EAD2-4335-A540-A7C77B57AD87} 0
  <PROJBAY
  >
  <TRACK {BE3E728F-779F-4A1F-ABEE-F3DDC37AFC29}
    NAME "Sleigh Bells - mus_downstream.mid Sleigh Bells [meta-events] Sleigh Bells [meta-events]"
    PEAKCOL 16576
    BEAT -1
    AUTOMODE 0
    VOLPAN 1 0 -1 -1 1
    MUTESOLO 0 0 0
    IPHASE 0
    PLAYOFFS 0 1
    ISBUS 0 0
    BUSCOMP 0 0 0 0 0
    SHOWINMIX 1 0.6667 0.5 1 0.5 0 0 0
    FIXEDLANES 9 0 0
    SEL 0
    REC 0 0 1 0 0 0 0 0
    VU 2
    TRACKHEIGHT 0 0 0 0 0 0 0
    INQ 0 0 0 0.5 100 0 0 100
    NCHAN 2
    FX 1
    TRACKID {BE3E728F-779F-4A1F-ABEE-F3DDC37AFC29}
    PERF 0
    MIDIOUT -1
    MAINSEND 1 0
    <FXCHAIN
      SHOW 0
      LASTSEL 0
      DOCKED 0
    >
    <ITEM
      POSITION 0
      SNAPOFFS 0
      LENGTH 196.8
      LOOP 1
      ALLTAKES 0
      FADEIN 1 0 0 1 0 0 0
      FADEOUT 1 0 0 1 0 0 0
      MUTE 0 0
      SEL 0
      IGUID {400B6F43-68E2-4A23-A8E9-7FEA39E3AB02}
      IID 2
      NAME "Sleigh Bells - mus_downstream.mid Sleigh Bells [meta-events]"
      VOLPAN 1 0 1 -1
      SOFFS 0 0
      PLAYRATE 1 1 0 -1 0 0.0025
      CHANMODE 0
      GUID {C660A697-C132-4938-BE5B-BA706F627B31}
      <SOURCE MIDI
        HASDATA 1 960 QN
        CCINTERP 32
        POOLEDEVTS {E7A81327-9971-415C-92A8-6C2FE57C21F5}
        <X 0 0 0 0 3 "Sleigh Bells"
          /wNTbGVpZ2ggQmVsbHM=
        >
        <X 0 0 0 0 3 "Track 2"
          /wNUcmFjayAy
        >
        <X 0 0 0 0 3 "Track 3"
          /wNUcmFjayAz
        >
        <X 0 0 0 0 3 "Track 4"
          /wNUcmFjayA0
        >
        <X 0 0 0 0 3 "Track 5"
          /wNUcmFjayA1
        >
        <X 0 0 0 0 3 "Track 6"
          /wNUcmFjayA2
        >
        <X 0 0 0 0 3 "Track 7"
          /wNUcmFjayA3
        >
        <X 0 0 0 0 3 "Track 8"
          /wNUcmFjayA4
        >
        <X 0 0 0 0 3 "Track 9"
          /wNUcmFjayA5
        >
        <X 0 0 0 0 3 "Track 10"
          /wNUcmFjayAxMA==
        >
        <X 0 0 0 0 6 [
          /wZb
        >
        <X 0 0
          /1kCAwA=
        >
        <X 0 0
          /yEBAA==
        >
        <X 0 0
          /yEBAA==
        >
        <X 0 0
          /yEBAA==
        >
        <X 0 0
          /yEBAA==
        >
        <X 0 0
          /yEBAA==
        >
        <X 0 0
          /yEBAA==
        >
        <X 0 0
          /yEBAA==
        >
        <X 0 0
          /yEBAA==
        >
        <X 0 0
          /yEBAA==
        >
        <X 0 0
          /yEBAA==
        >
        <X 0 0
          /1kCAwA=
        >
        <X 0 0
          /1kCAwA=
        >
        <X 0 0
          /1kCAwA=
        >
        <X 0 0
          /1kCAwA=
        >
        <X 0 0
          /1kCAwA=
        >
        <X 0 0
          /1kCAwA=
        >
        <X 0 0
          /1kCAwA=
        >
        <X 0 0
          /1kCAwA=
        >
        <X 0 0
          /1kCAwA=
        >
        <X 285120 0
          /1kCAAA=
        >
        <X 0 0
          /1kCAAA=
        >
        <X 0 0
          /1kCAAA=
        >
        <X 0 0
          /1kCAAA=
        >
        <X 0 0
          /1kCAAA=
        >
        <X 0 0
          /1kCAAA=
        >
        <X 0 0
          /1kCAAA=
        >
        <X 0 0
          /1kCAAA=
        >
        <X 0 0
          /1kCAAA=
        >
        <X 0 0
          /1kCAAA=
        >
        <X 187199 0 0 0 6 ]
          /wZd
        >
        E 1 b0 7b 00
        CCINTERP 32
        CHASE_CC_TAKEOFFS 1
        GUID {B0910CDE-2830-4BC8-97C4-71CB05152F12}
        IGNTEMPO 0 120 4 4
        SRCCOLOR 274
        VELLANE -1 150 0 0 1
      >
    >
  >
  <TRACK {AE7E04B6-1292-455F-89F7-1F292733D886}
    NAME "Sleigh Bells - mus_downstream.mid [chan 1] [chan 1]"
    PEAKCOL 16576
    BEAT -1
    AUTOMODE 0
    VOLPAN 1 0 -1 -1 1
    MUTESOLO 0 0 0
    IPHASE 0
    PLAYOFFS 0 1
    ISBUS 0 0
    BUSCOMP 0 0 0 0 0
    SHOWINMIX 1 0.6667 0.5 1 0.5 0 0 0
    FIXEDLANES 9 0 0
    SEL 0
    REC 0 0 1 0 0 0 0 0
    VU 2
    TRACKHEIGHT 0 0 0 0 0 0 0
    INQ 0 0 0 0.5 100 0 0 100
    NCHAN 2
    FX 1
    TRACKID {AE7E04B6-1292-455F-89F7-1F292733D886}
    PERF 0
    MIDIOUT -1
    MAINSEND 1 0
    <FXCHAIN
      SHOW 0
      LASTSEL 0
      DOCKED 0
    >
    <ITEM
      POSITION 0
      SNAPOFFS 0
      LENGTH 196.8
      LOOP 1
      ALLTAKES 0
      FADEIN 1 0 0 1 0 0 0
      FADEOUT 1 0 0 1 0 0 0
      MUTE 0 0
      SEL 0
      IGUID {BD722164-DC0B-4A43-96B9-9D6C32B027F1}
      IID 3
      NAME "Sleigh Bells - mus_downstream.mid [chan 1]"
      VOLPAN 1 0 1 -1
      SOFFS 0 0
      PLAYRATE 1 1 0 -1 0 0.0025
      CHANMODE 0
      GUID {E12BF92F-5877-4FF1-A782-A6B64B311E41}
      <SOURCE MIDI
        HASDATA 1 960 QN
        CCINTERP 32
        POOLEDEVTS {A9268316-938A-44D5-86B1-ABF6E5BC3741}
        E 0 c0 44 00
        E 0 b0 07 6a
        E 0 b0 64 00
        E 0 b0 65 00
        E 0 b0 06 0c
        E 0 b0 64 7f
        E 0 b0 65 7f
        E 0 b0 0a 40
        E 0 b0 5b 00
        E 0 b0 5d 00
        E 0 b0 79 00
        E 472320 b0 7b 00
        CCINTERP 32
        CHASE_CC_TAKEOFFS 1
        GUID {F9EDFF59-8321-46CE-92D2-EBA9A4F42A6C}
        IGNTEMPO 0 120 4 4
        SRCCOLOR 276
        VELLANE -1 150 0 0 1
      >
    >
  >
  <TRACK {7B610721-4347-4EB3-A246-D5400AA56143}
    NAME Saw
    PEAKCOL 16576
    BEAT -1
    AUTOMODE 0
    VOLPAN 1 0 -1 -1 1
    MUTESOLO 0 0 0
    IPHASE 0
    PLAYOFFS 0 1
    ISBUS 0 0
    BUSCOMP 0 0 0 0 0
    SHOWINMIX 1 0.6667 0.5 1 0.5 0 0 0
    FIXEDLANES 9 0 0
    SEL 0
    REC 0 0 1 0 0 0 0 0
    VU 2
    TRACKHEIGHT 0 0 0 0 0 0 0
    INQ 0 0 0 0.5 100 0 0 100
    NCHAN 2
    FX 1
    TRACKID {7B610721-4347-4EB3-A246-D5400AA56143}
    PERF 0
    MIDIOUT -1
    MAINSEND 1 0
    <FXCHAIN
      WNDRECT 1944 155 655 408
      SHOW 0
      LASTSEL 0
      DOCKED 0
      BYPASS 0 0 0
      <VST "VSTi: sforzando (x86) (Plogue Art et Technologie, Inc)" "sforzando VST_x86.dll" 0 "" 1347176273<565354504C475173666F727A616E646F> ""
        UUdMUO5e7f4AAAAAAgAAAAEAAAAAAAAAAgAAAAAAAAD5AQAAAQAAAAAAEAA=
        Q0VHUDYFAAB4nI2UTW/iMBCG7yv1P1g+daVtEwcKRSJb0S2qckBbKe3ZGhJDo/qDTcbZ7r/fSYAEVa0Cl2RePx573jAzv3s3mtWqrApnYy6uQ87ufl58my/KAlKo1cna
        bDrlbFe63GeYPJAQijEnltFvnirEwm4r9seDLvAfLXNWYanAkBzzUcSZgfe0VRZau2x1H/MbQfIqeUh+e1y5XLW7wKMzgHRoqh3GPDyVtKqVjnlhKbc3yiJnuqjVfjOR
        VUZZmwdoIEGwK6aaK11XmT7Iv2iXKmM+IXyr3Rr0s7ftJUkIuoLobFbkrWjBUPZqEwVP7k0ZZ+XSqBJ0LlPnbb5xFuXlyy4HVLlc+K2vUIrRDxmFkfgum31hGAbhrZCP
        9zKFv+gcvnK2BvuW0AljWuW90fSevYK1TZ1X5MfOabJzMuYM+3vu1rIEu1UHBCmo2gVz8uoypE/Y+UIZjMc2PlTZVrqCwh4rrUH7/VcIPkVEh4RfIdEwMhpGxsPIzTAy
        GUamw8jtMDIbRkR4BnOGv+IMg8UZDoszLBZfe/wEJZgPDn782/SMGInPqHnQtNkxWG42KsPTxjt0877/FmZdKJupvnHaCXQ6ocazdkJl3TjoDnp8SY5JIUOaGEk/XNp4
        2cWV0nQNlT/Det9dTZJ5cJyIFPwHVKhjpQ==
        AAAQAAAA
      >
      FLOATPOS 0 0 0 0
      FXID {347FAFA7-A09F-4C60-B7FB-33E232BD4331}
      WAK 0 0
    >
    <ITEM
      POSITION 0
      SNAPOFFS 0
      LENGTH 196.8
      LOOP 1
      ALLTAKES 0
      FADEIN 1 0 0 1 0 0 0
      FADEOUT 1 0 0 1 0 0 0
      MUTE 0 0
      SEL 0
      IGUID {14114466-075F-4ABF-B227-A5BB0B8887C3}
      IID 4
      NAME "Sleigh Bells - mus_downstream.mid [chan 2]"
      VOLPAN 1 0 1 -1
      SOFFS 0 0
      PLAYRATE 1 1 0 -1 0 0.0025
      CHANMODE 0
      GUID {3F326A61-64A5-4CBD-BF71-BB840088A671}
      <SOURCE MIDI
        HASDATA 1 960 QN
        CCINTERP 32
        POOLEDEVTS {F4C57347-29F7-453A-88F2-56D6F6265B9F}
        e 0 c1 51 00
        e 0 b1 07 4f
        e 0 b1 0a 3f
        e 0 b1 06 0c
        e 0 b1 64 7f
        e 0 b1 65 7f
        e 0 b1 5b 00
        e 0 b1 5d 00
        E 0 b1 79 00
        e 49920 b1 02 50
        e 0 91 40 67
        e 238 81 40 00
        e 242 b1 02 50
        e 0 91 45 67
        e 238 81 45 00
        e 242 b1 02 50
        e 0 91 49 67
        e 238 81 49 00
        e 242 b1 02 50
        e 0 91 4c 67
        e 238 81 4c 00
        e 242 b1 02 50
        e 0 91 51 67
        e 238 81 51 00
        e 242 b1 02 50
        e 0 91 4c 67
        e 238 81 4c 00
        e 242 b1 02 50
        e 0 91 51 67
        e 238 81 51 00
        e 242 b1 02 50
        e 0 91 4c 67
        e 238 81 4c 00
        e 242 b1 02 50
        e 0 91 51 67
        e 238 81 51 00
        e 242 b1 02 50
        e 0 91 4c 67
        e 238 81 4c 00
        e 242 b1 02 50
        e 0 91 51 67
        e 238 81 51 00
        e 242 b1 02 50
        e 0 91 4c 67
        e 238 81 4c 00
        e 242 b1 02 50
        e 0 91 51 67
        e 238 81 51 00
        e 242 b1 02 50
        e 0 91 4c 67
        e 238 81 4c 00
        e 242 b1 02 50
        e 0 91 51 67
        e 238 81 51 00
        e 242 b1 02 50
        e 0 91 4c 67
        e 238 81 4c 00
        e 242 b1 02 50
        e 0 91 50 67
        e 238 81 50 00
        e 242 b1 02 50
        e 0 91 4c 67
        e 238 81 4c 00
        e 242 b1 02 50
        e 0 91 50 67
        e 238 81 50 00
        e 242 b1 02 50
        e 0 91 4c 67
        e 238 81 4c 00
        e 242 b1 02 50
        e 0 91 50 67
        e 238 81 50 00
        e 242 b1 02 50
        e 0 91 4c 67
        e 238 81 4c 00
        e 242 b1 02 50
        e 0 91 51 67
        e 238 81 51 00
        e 242 b1 02 50
        e 0 91 4a 67
        e 238 81 4a 00
        e 242 b1 02 50
        e 0 91 51 67
        e 238 81 51 00
        e 242 b1 02 50
        e 0 91 4c 67
        e 238 81 4c 00
        e 242 b1 02 50
        e 0 91 50 67
        e 238 81 50 00
        e 242 b1 02 50
        e 0 91 4c 67
        e 238 81 4c 00
        e 242 b1 02 50
        e 0 91 51 67
        e 238 81 51 00
        e 242 b1 02 50
        e 0 91 4c 67
        e 238 81 4c 00
        e 242 b1 02 50
        e 0 91 51 67
        e 238 81 51 00
        e 242 b1 02 50
        e 0 91 4c 67
        e 238 81 4c 00
        e 242 b1 02 50
        e 0 91 51 67
        e 238 81 51 00
        e 242 b1 02 50
        e 0 91 4c 67
        e 238 81 4c 00
        e 242 b1 02 50
        e 0 91 51 67
        e 238 81 51 00
        e 242 b1 02 50
        e 0 91 4c 67
        e 238 81 4c 00
        e 242 b1 02 50
        e 0 91 51 67
        e 238 81 51 00
        e 242 b1 02 50
        e 0 91 4c 67
        e 238 81 4c 00
        e 242 b1 02 50
        e 0 91 51 67
        e 238 81 51 00
        e 242 b1 02 50
        e 0 91 4c 67
        e 238 81 4c 00
        e 242 b1 02 50
        e 0 91 51 67
        e 238 81 51 00
        e 242 b1 02 50
        e 0 91 4a 67
        e 238 81 4a 00
        e 242 b1 02 50
        e 0 91 51 67
        e 238 81 51 00
        e 242 b1 02 50
        e 0 91 4a 67
        e 238 81 4a 00
        e 242 b1 02 50
        e 0 91 51 67
        e 238 81 51 00
        e 242 b1 02 50
        e 0 91 4a 67
        e 238 81 4a 00
        e 242 b1 02 50
        e 0 91 50 67
        e 238 81 50 00
        e 242 b1 02 50
        e 0 91 4c 67
        e 238 81 4c 00
        e 242 b1 02 50
        e 0 91 50 67
        e 238 81 50 00
        e 242 b1 02 50
        e 0 91 4c 67
        e 238 81 4c 00
        e 242 b1 02 50
        e 0 91 50 67
        e 238 81 50 00
        e 242 b1 02 50
        e 0 91 4c 67
        e 238 81 4c 00
        e 242 b1 02 50
        e 0 91 51 67
        e 238 81 51 00
        e 242 b1 02 50
        e 0 91 4c 67
        e 238 81 4c 00
        e 242 b1 02 50
        e 0 91 51 67
        e 238 81 51 00
        e 242 b1 02 50
        e 0 91 4c 67
        e 238 81 4c 00
        e 242 b1 02 50
        e 0 91 51 67
        e 238 81 51 00
        e 242 b1 02 50
        e 0 91 4c 67
        e 238 81 4c 00
        e 242 b1 02 50
        e 0 91 53 67
        e 238 81 53 00
        e 242 b1 02 50
        e 0 91 4a 67
        e 238 81 4a 00
        e 242 b1 02 50
        e 0 91 53 67
        e 238 81 53 00
        e 242 b1 02 50
        e 0 91 4a 67
        e 238 81 4a 00
        e 242 b1 02 50
        e 0 91 53 67
        e 238 81 53 00
        e 242 b1 02 50
        e 0 91 4a 67
        e 238 81 4a 00
        e 242 b1 02 50
        e 0 91 51 67
        e 238 81 51 00
        e 242 b1 02 50
        e 0 91 4a 67
        e 238 81 4a 00
        e 242 b1 02 50
        e 0 91 51 67
        e 238 81 51 00
        e 242 b1 02 50
        e 0 91 4a 67
        e 238 81 4a 00
        e 242 b1 02 50
        e 0 91 51 67
        e 238 81 51 00
        e 242 b1 02 50
        e 0 91 4a 67
        e 238 81 4a 00
        e 242 b1 02 50
        e 0 91 50 67
        e 238 81 50 00
        e 242 b1 02 50
        e 0 91 4c 67
        e 238 81 4c 00
        e 242 b1 02 50
        e 0 91 50 67
        e 238 81 50 00
        e 242 b1 02 50
        e 0 91 4c 67
        e 238 81 4c 00
        e 242 b1 02 50
        e 0 91 50 67
        e 238 81 50 00
        e 242 b1 02 50
        e 0 91 4c 67
        e 238 81 4c 00
        e 242 b1 02 50
        e 0 91 51 67
        e 238 81 51 00
        e 242 b1 02 50
        e 0 91 4c 67
        e 238 81 4c 00
        e 242 b1 02 50
        e 0 91 51 67
        e 238 81 51 00
        e 242 b1 02 50
        e 0 91 4c 67
        e 238 81 4c 00
        e 242 b1 02 50
        e 0 91 51 67
        e 238 81 51 00
        e 242 b1 02 50
        e 0 91 4c 67
        e 238 81 4c 00
        e 242 b1 02 50
        e 0 91 53 67
        e 238 81 53 00
        e 242 b1 02 50
        e 0 91 4a 67
        e 238 81 4a 00
        e 242 b1 02 50
        e 0 91 53 67
        e 238 81 53 00
        e 242 b1 02 50
        e 0 91 4a 67
        e 238 81 4a 00
        e 242 b1 02 50
        e 0 91 53 67
        e 238 81 53 00
        e 242 b1 02 50
        e 0 91 4a 67
        e 238 81 4a 00
        e 242 b1 02 50
        e 0 91 50 67
        e 238 81 50 00
        e 242 b1 02 50
        e 0 91 4c 67
        e 238 81 4c 00
        e 242 b1 02 50
        e 0 91 50 67
        e 238 81 50 00
        e 242 b1 02 50
        e 0 91 4c 67
        e 238 81 4c 00
        e 242 b1 02 50
        e 0 91 50 67
        e 238 81 50 00
        e 242 b1 02 50
        e 0 91 4c 67
        e 238 81 4c 00
        e 242 b1 02 50
        e 0 91 51 67
        e 238 81 51 00
        e 242 b1 02 50
        e 0 91 4c 67
        e 238 81 4c 00
        e 242 b1 02 50
        e 0 91 49 67
        e 238 81 49 00
        e 242 b1 02 50
        e 0 91 4c 67
        e 238 81 4c 00
        e 242 b1 02 50
        e 0 91 45 67
        e 238 81 45 00
        e 242 b1 02 50
        e 0 91 40 67
        e 238 81 40 00
        e 242 b1 02 50
        e 0 91 4f 4c
        e 478 81 4f 00
        e 2 b1 02 50
        e 0 91 4c 4c
        e 478 81 4c 00
        e 2 b1 02 50
        e 0 91 47 4c
        e 478 81 47 00
        e 2 b1 02 50
        e 0 91 4c 4c
        e 478 81 4c 00
        e 2 b1 02 50
        e 0 91 47 4c
        e 478 81 47 00
        e 2 b1 02 50
        e 0 91 43 4c
        e 478 81 43 00
        e 2 b1 02 50
        e 0 91 4f 4c
        e 478 81 4f 00
        e 2 b1 02 50
        e 0 91 4c 4c
        e 478 81 4c 00
        e 2 b1 02 50
        e 0 91 47 4c
        e 478 81 47 00
        e 2 b1 02 50
        e 0 91 4c 4c
        e 478 81 4c 00
        e 2 b1 02 50
        e 0 91 47 4c
        e 478 81 47 00
        e 2 b1 02 50
        e 0 91 43 4c
        e 478 81 43 00
        e 2 b1 02 50
        e 0 91 4f 4c
        e 478 81 4f 00
        e 2 b1 02 50
        e 0 91 4a 4c
        e 478 81 4a 00
        e 2 b1 02 50
        e 0 91 47 4c
        e 478 81 47 00
        e 2 b1 02 50
        e 0 91 4a 4c
        e 478 81 4a 00
        e 2 b1 02 50
        e 0 91 47 4c
        e 478 81 47 00
        e 2 b1 02 50
        e 0 91 43 4c
        e 478 81 43 00
        e 2 b1 02 50
        e 0 91 51 4c
        e 478 81 51 00
        e 2 b1 02 50
        e 0 91 4c 4c
        e 478 81 4c 00
        e 2 b1 02 50
        e 0 91 49 4c
        e 478 81 49 00
        e 2 b1 02 50
        e 0 91 4c 4c
        e 478 81 4c 00
        e 2 b1 02 50
        e 0 91 49 4c
        e 478 81 49 00
        e 2 b1 02 50
        e 0 91 45 4c
        e 478 81 45 00
        e 2 b1 02 50
        e 0 91 4f 4c
        e 478 81 4f 00
        e 2 b1 02 50
        e 0 91 4a 4c
        e 478 81 4a 00
        e 2 b1 02 50
        e 0 91 47 4c
        e 478 81 47 00
        e 2 b1 02 50
        e 0 91 4a 4c
        e 478 81 4a 00
        e 2 b1 02 50
        e 0 91 47 4c
        e 478 81 47 00
        e 2 b1 02 50
        e 0 91 43 4c
        e 478 81 43 00
        e 2 b1 02 50
        e 0 91 51 4c
        e 478 81 51 00
        e 2 b1 02 50
        e 0 91 4c 4c
        e 478 81 4c 00
        e 2 b1 02 50
        e 0 91 49 4c
        e 478 81 49 00
        e 2 b1 02 50
        e 0 91 4c 4c
        e 478 81 4c 00
        e 2 b1 02 50
        e 0 91 49 4c
        e 478 81 49 00
        e 2 b1 02 50
        e 0 91 45 4c
        e 478 81 45 00
        e 2 b1 02 50
        e 0 91 51 4c
        e 478 81 51 00
        e 2 b1 02 50
        e 0 91 4e 4c
        e 478 81 4e 00
        e 2 b1 02 50
        e 0 91 4a 4c
        e 478 81 4a 00
        e 2 b1 02 50
        e 0 91 4e 4c
        e 478 81 4e 00
        e 2 b1 02 50
        e 0 91 4a 4c
        e 478 81 4a 00
        e 2 b1 02 50
        e 0 91 45 4c
        e 478 81 45 00
        e 2 b1 02 50
        e 0 91 50 4c
        e 478 81 50 00
        e 2 b1 02 50
        e 0 91 4c 4c
        e 478 81 4c 00
        e 2 b1 02 50
        e 0 91 47 4c
        e 478 81 47 00
        e 2 b1 02 50
        e 0 91 4c 4c
        e 478 81 4c 00
        e 2 b1 02 50
        e 0 91 47 4c
        e 478 81 47 00
        e 2 b1 02 50
        e 0 91 44 4c
        e 478 81 44 00
        e 2 b1 02 50
        e 0 91 4f 4c
        e 478 81 4f 00
        e 2 b1 02 50
        e 0 91 4a 4c
        e 478 81 4a 00
        e 2 b1 02 50
        e 0 91 47 4c
        e 478 81 47 00
        e 2 b1 02 50
        e 0 91 4a 4c
        e 478 81 4a 00
        e 2 b1 02 50
        e 0 91 47 4c
        e 478 81 47 00
        e 2 b1 02 50
        e 0 91 43 4c
        e 478 81 43 00
        e 2 b1 02 50
        e 0 91 4f 4c
        e 478 81 4f 00
        e 2 b1 02 50
        e 0 91 4a 4c
        e 478 81 4a 00
        e 2 b1 02 50
        e 0 91 47 4c
        e 478 81 47 00
        e 2 b1 02 50
        e 0 91 4a 4c
        e 478 81 4a 00
        e 2 b1 02 50
        e 0 91 47 4c
        e 478 81 47 00
        e 2 b1 02 50
        e 0 91 43 4c
        e 478 81 43 00
        e 2 b1 02 50
        e 0 91 51 4c
        e 478 81 51 00
        e 2 b1 02 50
        e 0 91 4c 4c
        e 478 81 4c 00
        e 2 b1 02 50
        e 0 91 49 4c
        e 478 81 49 00
        e 2 b1 02 50
        e 0 91 4c 4c
        e 478 81 4c 00
        e 2 b1 02 50
        e 0 91 49 4c
        e 478 81 49 00
        e 2 b1 02 50
        e 0 91 45 4c
        e 478 81 45 00
        e 2 b1 02 50
        e 0 91 50 4c
        e 478 81 50 00
        e 2 b1 02 50
        e 0 91 4c 4c
        e 478 81 4c 00
        e 2 b1 02 50
        e 0 91 47 4c
        e 478 81 47 00
        e 2 b1 02 50
        e 0 91 4c 4c
        e 478 81 4c 00
        e 2 b1 02 50
        e 0 91 47 4c
        e 478 81 47 00
        e 2 b1 02 50
        e 0 91 44 4c
        e 478 81 44 00
        e 2 b1 02 50
        e 0 91 4f 4c
        e 478 81 4f 00
        e 2 b1 02 50
        e 0 91 4a 4c
        e 478 81 4a 00
        e 2 b1 02 50
        e 0 91 47 4c
        e 478 81 47 00
        e 2 b1 02 50
        e 0 91 4a 4c
        e 478 81 4a 00
        e 2 b1 02 50
        e 0 91 47 4c
        e 478 81 47 00
        e 2 b1 02 50
        e 0 91 43 4c
        e 478 81 43 00
        e 2 b1 02 50
        e 0 91 4f 4c
        e 478 81 4f 00
        e 2 b1 02 50
        e 0 91 4a 4c
        e 478 81 4a 00
        e 2 b1 02 50
        e 0 91 47 4c
        e 478 81 47 00
        e 2 b1 02 50
        e 0 91 4a 4c
        e 478 81 4a 00
        e 2 b1 02 50
        e 0 91 47 4c
        e 478 81 47 00
        e 2 b1 02 50
        e 0 91 43 4c
        e 478 81 43 00
        e 2 b1 02 50
        e 0 91 50 4c
        e 478 81 50 00
        e 2 b1 02 50
        e 0 91 4c 4c
        e 478 81 4c 00
        e 2 b1 02 50
        e 0 91 47 4c
        e 478 81 47 00
        e 2 b1 02 50
        e 0 91 4c 4c
        e 478 81 4c 00
        e 2 b1 02 50
        e 0 91 47 4c
        e 478 81 47 00
        e 2 b1 02 50
        e 0 91 44 4c
        e 478 81 44 00
        e 2 b1 02 50
        e 0 91 51 4c
        e 478 81 51 00
        e 2 b1 02 50
        e 0 91 4c 4c
        e 478 81 4c 00
        e 2 b1 02 50
        e 0 91 49 4c
        e 478 81 49 00
        e 2 b1 02 50
        e 0 91 4c 4c
        e 478 81 4c 00
        e 2 b1 02 50
        e 0 91 49 4c
        e 478 81 49 00
        e 2 b1 02 50
        e 0 91 45 4c
        e 478 81 45 00
        e 2 b1 02 50
        e 0 91 51 67
        e 238 81 51 00
        e 242 b1 02 50
        e 0 91 4c 67
        e 238 81 4c 00
        e 242 b1 02 50
        e 0 91 51 67
        e 238 81 51 00
        e 242 b1 02 50
        e 0 91 4c 67
        e 238 81 4c 00
        e 242 b1 02 50
        e 0 91 51 67
        e 238 81 51 00
        e 242 b1 02 50
        e 0 91 4c 67
        e 238 81 4c 00
        e 242 b1 02 50
        e 0 91 51 67
        e 238 81 51 00
        e 242 b1 02 50
        e 0 91 4c 67
        e 238 81 4c 00
        e 242 b1 02 50
        e 0 91 51 67
        e 238 81 51 00
        e 242 b1 02 50
        e 0 91 4c 67
        e 238 81 4c 00
        e 242 b1 02 50
        e 0 91 51 67
        e 238 81 51 00
        e 242 b1 02 50
        e 0 91 4c 67
        e 238 81 4c 00
        e 242 b1 02 50
        e 0 91 50 67
        e 238 81 50 00
        e 242 b1 02 50
        e 0 91 4c 67
        e 238 81 4c 00
        e 242 b1 02 50
        e 0 91 50 67
        e 238 81 50 00
        e 242 b1 02 50
        e 0 91 4c 67
        e 238 81 4c 00
        e 242 b1 02 50
        e 0 91 50 67
        e 238 81 50 00
        e 242 b1 02 50
        e 0 91 4c 67
        e 238 81 4c 00
        e 242 b1 02 50
        e 0 91 51 67
        e 238 81 51 00
        e 242 b1 02 50
        e 0 91 4a 67
        e 238 81 4a 00
        e 242 b1 02 50
        e 0 91 51 67
        e 238 81 51 00
        e 242 b1 02 50
        e 0 91 4c 67
        e 238 81 4c 00
        e 242 b1 02 50
        e 0 91 50 67
        e 238 81 50 00
        e 242 b1 02 50
        e 0 91 4c 67
        e 238 81 4c 00
        e 242 b1 02 50
        e 0 91 51 67
        e 238 81 51 00
        e 242 b1 02 50
        e 0 91 4c 67
        e 238 81 4c 00
        e 242 b1 02 50
        e 0 91 51 67
        e 238 81 51 00
        e 242 b1 02 50
        e 0 91 4c 67
        e 238 81 4c 00
        e 242 b1 02 50
        e 0 91 51 67
        e 238 81 51 00
        e 242 b1 02 50
        e 0 91 4c 67
        e 238 81 4c 00
        e 242 b1 02 50
        e 0 91 51 67
        e 238 81 51 00
        e 242 b1 02 50
        e 0 91 4c 67
        e 238 81 4c 00
        e 242 b1 02 50
        e 0 91 51 67
        e 238 81 51 00
        e 242 b1 02 50
        e 0 91 4c 67
        e 238 81 4c 00
        e 242 b1 02 50
        e 0 91 51 67
        e 238 81 51 00
        e 242 b1 02 50
        e 0 91 4c 67
        e 238 81 4c 00
        e 242 b1 02 50
        e 0 91 51 67
        e 238 81 51 00
        e 242 b1 02 50
        e 0 91 4a 67
        e 238 81 4a 00
        e 242 b1 02 50
        e 0 91 51 67
        e 238 81 51 00
        e 242 b1 02 50
        e 0 91 4a 67
        e 238 81 4a 00
        e 242 b1 02 50
        e 0 91 51 67
        e 238 81 51 00
        e 242 b1 02 50
        e 0 91 4a 67
        e 238 81 4a 00
        e 242 b1 02 50
        e 0 91 50 67
        e 238 81 50 00
        e 242 b1 02 50
        e 0 91 4c 67
        e 238 81 4c 00
        e 242 b1 02 50
        e 0 91 50 67
        e 238 81 50 00
        e 242 b1 02 50
        e 0 91 4c 67
        e 238 81 4c 00
        e 242 b1 02 50
        e 0 91 50 67
        e 238 81 50 00
        e 242 b1 02 50
        e 0 91 4c 67
        e 238 81 4c 00
        e 242 b1 02 50
        e 0 91 51 67
        e 238 81 51 00
        e 242 b1 02 50
        e 0 91 4c 67
        e 238 81 4c 00
        e 242 b1 02 50
        e 0 91 51 67
        e 238 81 51 00
        e 242 b1 02 50
        e 0 91 4c 67
        e 238 81 4c 00
        e 242 b1 02 50
        e 0 91 51 67
        e 238 81 51 00
        e 242 b1 02 50
        e 0 91 4c 67
        e 238 81 4c 00
        e 242 b1 02 50
        e 0 91 53 67
        e 238 81 53 00
        e 242 b1 02 50
        e 0 91 4a 67
        e 238 81 4a 00
        e 242 b1 02 50
        e 0 91 53 67
        e 238 81 53 00
        e 242 b1 02 50
        e 0 91 4a 67
        e 238 81 4a 00
        e 242 b1 02 50
        e 0 91 53 67
        e 238 81 53 00
        e 242 b1 02 50
        e 0 91 4a 67
        e 238 81 4a 00
        e 242 b1 02 50
        e 0 91 51 67
        e 238 81 51 00
        e 242 b1 02 50
        e 0 91 4a 67
        e 238 81 4a 00
        e 242 b1 02 50
        e 0 91 51 67
        e 238 81 51 00
        e 242 b1 02 50
        e 0 91 4a 67
        e 238 81 4a 00
        e 242 b1 02 50
        e 0 91 51 67
        e 238 81 51 00
        e 242 b1 02 50
        e 0 91 4a 67
        e 238 81 4a 00
        e 242 b1 02 50
        e 0 91 50 67
        e 238 81 50 00
        e 242 b1 02 50
        e 0 91 4c 67
        e 238 81 4c 00
        e 242 b1 02 50
        e 0 91 50 67
        e 238 81 50 00
        e 242 b1 02 50
        e 0 91 4c 67
        e 238 81 4c 00
        e 242 b1 02 50
        e 0 91 50 67
        e 238 81 50 00
        e 242 b1 02 50
        e 0 91 4c 67
        e 238 81 4c 00
        e 242 b1 02 50
        e 0 91 51 67
        e 238 81 51 00
        e 242 b1 02 50
        e 0 91 4c 67
        e 238 81 4c 00
        e 242 b1 02 50
        e 0 91 51 67
        e 238 81 51 00
        e 242 b1 02 50
        e 0 91 4c 67
        e 238 81 4c 00
        e 242 b1 02 50
        e 0 91 51 67
        e 238 81 51 00
        e 242 b1 02 50
        e 0 91 4c 67
        e 238 81 4c 00
        e 242 b1 02 50
        e 0 91 53 67
        e 238 81 53 00
        e 242 b1 02 50
        e 0 91 4a 67
        e 238 81 4a 00
        e 242 b1 02 50
        e 0 91 53 67
        e 238 81 53 00
        e 242 b1 02 50
        e 0 91 4a 67
        e 238 81 4a 00
        e 242 b1 02 50
        e 0 91 53 67
        e 238 81 53 00
        e 242 b1 02 50
        e 0 91 4a 67
        e 238 81 4a 00
        e 242 b1 02 50
        e 0 91 50 67
        e 238 81 50 00
        e 242 b1 02 50
        e 0 91 4c 67
        e 238 81 4c 00
        e 242 b1 02 50
        e 0 91 50 67
        e 238 81 50 00
        e 242 b1 02 50
        e 0 91 4c 67
        e 238 81 4c 00
        e 242 b1 02 50
        e 0 91 50 67
        e 238 81 50 00
        e 242 b1 02 50
        e 0 91 4c 67
        e 238 81 4c 00
        e 242 b1 02 50
        e 0 91 51 67
        e 238 81 51 00
        e 242 b1 02 50
        e 0 91 4c 67
        e 238 81 4c 00
        e 242 b1 02 50
        e 0 91 51 67
        e 238 81 51 00
        e 242 b1 02 50
        e 0 91 4c 67
        e 238 81 4c 00
        e 242 b1 02 50
        e 0 91 51 67
        e 238 81 51 00
        e 242 b1 02 50
        e 0 91 4c 67
        e 238 81 4c 00
        e 242 b1 02 50
        e 0 91 42 4c
        e 478 81 42 00
        e 2 b1 02 50
        e 0 91 45 4c
        e 478 81 45 00
        e 2 b1 02 50
        e 0 91 4a 4c
        e 478 81 4a 00
        e 2 b1 02 50
        e 0 91 4e 4c
        e 478 81 4e 00
        e 2 b1 02 50
        e 0 91 51 4c
        e 478 81 51 00
        e 2 b1 02 50
        e 0 91 56 4c
        e 478 81 56 00
        e 2 b1 02 50
        e 0 91 58 4c
        e 478 81 58 00
        e 2 b1 02 50
        e 0 91 55 4c
        e 478 81 55 00
        e 2 b1 02 50
        e 0 91 51 4c
        e 478 81 51 00
        e 2 b1 02 50
        e 0 91 4c 4c
        e 478 81 4c 00
        e 2 b1 02 50
        e 0 91 49 4c
        e 478 81 49 00
        e 2 b1 02 50
        e 0 91 45 4c
        e 478 81 45 00
        e 2 b1 02 50
        e 0 91 42 4c
        e 478 81 42 00
        e 2 b1 02 50
        e 0 91 45 4c
        e 478 81 45 00
        e 2 b1 02 50
        e 0 91 4a 4c
        e 478 81 4a 00
        e 2 b1 02 50
        e 0 91 4e 4c
        e 478 81 4e 00
        e 2 b1 02 50
        e 0 91 51 4c
        e 478 81 51 00
        e 2 b1 02 50
        e 0 91 56 4c
        e 478 81 56 00
        e 2 b1 02 50
        e 0 91 58 4c
        e 478 81 58 00
        e 2 b1 02 50
        e 0 91 55 4c
        e 478 81 55 00
        e 2 b1 02 50
        e 0 91 51 4c
        e 478 81 51 00
        e 2 b1 02 50
        e 0 91 4c 4c
        e 478 81 4c 00
        e 2 b1 02 50
        e 0 91 49 4c
        e 478 81 49 00
        e 2 b1 02 50
        e 0 91 45 4c
        e 478 81 45 00
        e 2 b1 02 50
        e 0 91 42 4c
        e 478 81 42 00
        e 2 b1 02 50
        e 0 91 45 4c
        e 478 81 45 00
        e 2 b1 02 50
        e 0 91 4a 4c
        e 478 81 4a 00
        e 2 b1 02 50
        e 0 91 4c 4c
        e 478 81 4c 00
        e 2 b1 02 50
        e 0 91 50 4c
        e 478 81 50 00
        e 2 b1 02 50
        e 0 91 53 4c
        e 478 81 53 00
        e 2 b1 02 50
        e 0 91 55 4c
        e 478 81 55 00
        e 2 b1 02 50
        e 0 91 51 4c
        e 478 81 51 00
        e 2 b1 02 50
        e 0 91 4c 4c
        e 478 81 4c 00
        e 2 b1 02 50
        e 0 91 49 4c
        e 478 81 49 00
        e 2 b1 02 50
        e 0 91 45 4c
        e 478 81 45 00
        e 2 b1 02 50
        e 0 91 40 4c
        e 478 81 40 00
        e 2 b1 02 50
        e 0 91 42 4c
        e 478 81 42 00
        e 2 b1 02 50
        e 0 91 45 4c
        e 478 81 45 00
        e 2 b1 02 50
        e 0 91 49 4c
        e 478 81 49 00
        e 2 b1 02 50
        e 0 91 4e 4c
        e 478 81 4e 00
        e 2 b1 02 50
        e 0 91 51 4c
        e 478 81 51 00
        e 2 b1 02 50
        e 0 91 55 4c
        e 478 81 55 00
        e 2 b1 02 50
        e 0 91 53 4c
        e 478 81 53 00
        e 2 b1 02 50
        e 0 91 50 4c
        e 478 81 50 00
        e 2 b1 02 50
        e 0 91 4c 4c
        e 478 81 4c 00
        e 2 b1 02 50
        e 0 91 47 4c
        e 478 81 47 00
        e 2 b1 02 50
        e 0 91 44 4c
        e 478 81 44 00
        e 2 b1 02 50
        e 0 91 40 4c
        e 478 81 40 00
        e 2 b1 02 50
        e 0 91 42 4c
        e 478 81 42 00
        e 2 b1 02 50
        e 0 91 45 4c
        e 478 81 45 00
        e 2 b1 02 50
        e 0 91 49 4c
        e 478 81 49 00
        e 2 b1 02 50
        e 0 91 4c 4c
        e 478 81 4c 00
        e 2 b1 02 50
        e 0 91 4e 4c
        e 478 81 4e 00
        e 2 b1 02 50
        e 0 91 51 4c
        e 478 81 51 00
        e 2 b1 02 50
        e 0 91 55 4c
        e 478 81 55 00
        e 2 b1 02 50
        e 0 91 51 4c
        e 478 81 51 00
        e 2 b1 02 50
        e 0 91 4c 4c
        e 478 81 4c 00
        e 2 b1 02 50
        e 0 91 49 4c
        e 478 81 49 00
        e 2 b1 02 50
        e 0 91 45 4c
        e 478 81 45 00
        e 2 b1 02 50
        e 0 91 40 4c
        e 478 81 40 00
        e 2 b1 02 50
        e 0 91 42 4c
        e 478 81 42 00
        e 2 b1 02 50
        e 0 91 45 4c
        e 478 81 45 00
        e 2 b1 02 50
        e 0 91 4a 4c
        e 478 81 4a 00
        e 2 b1 02 50
        e 0 91 4e 4c
        e 478 81 4e 00
        e 2 b1 02 50
        e 0 91 51 4c
        e 478 81 51 00
        e 2 b1 02 50
        e 0 91 55 4c
        e 478 81 55 00
        e 2 b1 02 50
        e 0 91 53 4c
        e 478 81 53 00
        e 2 b1 02 50
        e 0 91 50 4c
        e 478 81 50 00
        e 2 b1 02 50
        e 0 91 4c 4c
        e 478 81 4c 00
        e 2 b1 02 50
        e 0 91 47 4c
        e 478 81 47 00
        e 2 b1 02 50
        e 0 91 44 4c
        e 478 81 44 00
        e 2 b1 02 50
        e 0 91 40 4c
        e 478 81 40 00
        e 2 b1 02 50
        e 0 91 45 4c
        e 478 81 45 00
        e 2 b1 02 50
        e 0 91 49 4c
        e 478 81 49 00
        e 2 b1 02 50
        e 0 91 4c 4c
        e 478 81 4c 00
        e 2 b1 02 50
        e 0 91 51 4c
        e 478 81 51 00
        e 2 b1 02 50
        e 0 91 55 4c
        e 478 81 55 00
        e 2 b1 02 50
        e 0 91 58 4c
        e 478 81 58 00
        e 2 b1 02 50
        e 0 91 56 4c
        e 478 81 56 00
        e 2 b1 02 50
        e 0 91 53 4c
        e 478 81 53 00
        e 2 b1 02 50
        e 0 91 4f 4c
        e 478 81 4f 00
        e 2 b1 02 50
        e 0 91 4a 4c
        e 478 81 4a 00
        e 2 b1 02 50
        e 0 91 47 4c
        e 478 81 47 00
        e 2 b1 02 50
        e 0 91 43 4c
        e 478 81 43 00
        e 2 b1 02 50
        e 0 91 40 4c
        e 478 81 40 00
        e 2 b1 02 50
        e 0 91 44 4c
        e 478 81 44 00
        e 2 b1 02 50
        e 0 91 49 4c
        e 478 81 49 00
        e 2 b1 02 50
        e 0 91 4c 4c
        e 478 81 4c 00
        e 2 b1 02 50
        e 0 91 50 4c
        e 478 81 50 00
        e 2 b1 02 50
        e 0 91 53 4c
        e 478 81 53 00
        e 2 b1 02 50
        e 0 91 55 4c
        e 478 81 55 00
        e 2 b1 02 50
        e 0 91 53 4c
        e 478 81 53 00
        e 2 b1 02 50
        e 0 91 51 4c
        e 478 81 51 00
        e 2 b1 02 50
        e 0 91 49 4c
        e 478 81 49 00
        e 2 b1 02 50
        e 0 91 4a 4c
        e 478 81 4a 00
        e 2 b1 02 50
        e 0 91 4c 4c
        e 478 81 4c 00
        e 2 b1 02 50
        e 0 91 51 67
        e 238 81 51 00
        e 242 b1 02 50
        e 0 91 4c 67
        e 238 81 4c 00
        e 242 b1 02 50
        e 0 91 51 67
        e 238 81 51 00
        e 242 b1 02 50
        e 0 91 4c 67
        e 238 81 4c 00
        e 242 b1 02 50
        e 0 91 51 67
        e 238 81 51 00
        e 242 b1 02 50
        e 0 91 4c 67
        e 238 81 4c 00
        e 242 b1 02 50
        e 0 91 51 67
        e 238 81 51 00
        e 242 b1 02 50
        e 0 91 4c 67
        e 238 81 4c 00
        e 242 b1 02 50
        e 0 91 51 67
        e 238 81 51 00
        e 242 b1 02 50
        e 0 91 4c 67
        e 238 81 4c 00
        e 242 b1 02 50
        e 0 91 51 67
        e 238 81 51 00
        e 242 b1 02 50
        e 0 91 4c 67
        e 238 81 4c 00
        e 242 b1 02 50
        e 0 91 50 67
        e 238 81 50 00
        e 242 b1 02 50
        e 0 91 4c 67
        e 238 81 4c 00
        e 242 b1 02 50
        e 0 91 50 67
        e 238 81 50 00
        e 242 b1 02 50
        e 0 91 4c 67
        e 238 81 4c 00
        e 242 b1 02 50
        e 0 91 50 67
        e 238 81 50 00
        e 242 b1 02 50
        e 0 91 4c 67
        e 238 81 4c 00
        e 242 b1 02 50
        e 0 91 51 67
        e 238 81 51 00
        e 242 b1 02 50
        e 0 91 4a 67
        e 238 81 4a 00
        e 242 b1 02 50
        e 0 91 51 67
        e 238 81 51 00
        e 242 b1 02 50
        e 0 91 4c 67
        e 238 81 4c 00
        e 242 b1 02 50
        e 0 91 50 67
        e 238 81 50 00
        e 242 b1 02 50
        e 0 91 4c 67
        e 238 81 4c 00
        e 242 b1 02 50
        e 0 91 51 67
        e 238 81 51 00
        e 242 b1 02 50
        e 0 91 4c 67
        e 238 81 4c 00
        e 242 b1 02 50
        e 0 91 51 67
        e 238 81 51 00
        e 242 b1 02 50
        e 0 91 4c 67
        e 238 81 4c 00
        e 242 b1 02 50
        e 0 91 51 67
        e 238 81 51 00
        e 242 b1 02 50
        e 0 91 4c 67
        e 238 81 4c 00
        e 242 b1 02 50
        e 0 91 51 67
        e 238 81 51 00
        e 242 b1 02 50
        e 0 91 4c 67
        e 238 81 4c 00
        e 242 b1 02 50
        e 0 91 51 67
        e 238 81 51 00
        e 242 b1 02 50
        e 0 91 4c 67
        e 238 81 4c 00
        e 242 b1 02 50
        e 0 91 51 67
        e 238 81 51 00
        e 242 b1 02 50
        e 0 91 4c 67
        e 238 81 4c 00
        e 242 b1 02 50
        e 0 91 51 67
        e 238 81 51 00
        e 242 b1 02 50
        e 0 91 4a 67
        e 238 81 4a 00
        e 242 b1 02 50
        e 0 91 51 67
        e 238 81 51 00
        e 242 b1 02 50
        e 0 91 4a 67
        e 238 81 4a 00
        e 242 b1 02 50
        e 0 91 51 67
        e 238 81 51 00
        e 242 b1 02 50
        e 0 91 4a 67
        e 238 81 4a 00
        e 242 b1 02 50
        e 0 91 50 67
        e 238 81 50 00
        e 242 b1 02 50
        e 0 91 4c 67
        e 238 81 4c 00
        e 242 b1 02 50
        e 0 91 50 67
        e 238 81 50 00
        e 242 b1 02 50
        e 0 91 4c 67
        e 238 81 4c 00
        e 242 b1 02 50
        e 0 91 50 67
        e 238 81 50 00
        e 242 b1 02 50
        e 0 91 4c 67
        e 238 81 4c 00
        e 242 b1 02 50
        e 0 91 51 67
        e 238 81 51 00
        e 242 b1 02 50
        e 0 91 4c 67
        e 238 81 4c 00
        e 242 b1 02 50
        e 0 91 51 67
        e 238 81 51 00
        e 242 b1 02 50
        e 0 91 4c 67
        e 238 81 4c 00
        e 242 b1 02 50
        e 0 91 51 67
        e 238 81 51 00
        e 242 b1 02 50
        e 0 91 4c 67
        e 238 81 4c 00
        e 242 b1 02 50
        e 0 91 53 67
        e 238 81 53 00
        e 242 b1 02 50
        e 0 91 4a 67
        e 238 81 4a 00
        e 242 b1 02 50
        e 0 91 53 67
        e 238 81 53 00
        e 242 b1 02 50
        e 0 91 4a 67
        e 238 81 4a 00
        e 242 b1 02 50
        e 0 91 53 67
        e 238 81 53 00
        e 242 b1 02 50
        e 0 91 4a 67
        e 238 81 4a 00
        e 242 b1 02 50
        e 0 91 51 67
        e 238 81 51 00
        e 242 b1 02 50
        e 0 91 4a 67
        e 238 81 4a 00
        e 242 b1 02 50
        e 0 91 51 67
        e 238 81 51 00
        e 242 b1 02 50
        e 0 91 4a 67
        e 238 81 4a 00
        e 242 b1 02 50
        e 0 91 51 67
        e 238 81 51 00
        e 242 b1 02 50
        e 0 91 4a 67
        e 238 81 4a 00
        e 242 b1 02 50
        e 0 91 50 67
        e 238 81 50 00
        e 242 b1 02 50
        e 0 91 4c 67
        e 238 81 4c 00
        e 242 b1 02 50
        e 0 91 50 67
        e 238 81 50 00
        e 242 b1 02 50
        e 0 91 4c 67
        e 238 81 4c 00
        e 242 b1 02 50
        e 0 91 50 67
        e 238 81 50 00
        e 242 b1 02 50
        e 0 91 4c 67
        e 238 81 4c 00
        e 242 b1 02 50
        e 0 91 51 67
        e 238 81 51 00
        e 242 b1 02 50
        e 0 91 4c 67
        e 238 81 4c 00
        e 242 b1 02 50
        e 0 91 51 67
        e 238 81 51 00
        e 242 b1 02 50
        e 0 91 4c 67
        e 238 81 4c 00
        e 242 b1 02 50
        e 0 91 51 67
        e 238 81 51 00
        e 242 b1 02 50
        e 0 91 4c 67
        e 238 81 4c 00
        e 242 b1 02 50
        e 0 91 53 67
        e 238 81 53 00
        e 242 b1 02 50
        e 0 91 4a 67
        e 238 81 4a 00
        e 242 b1 02 50
        e 0 91 53 67
        e 238 81 53 00
        e 242 b1 02 50
        e 0 91 4a 67
        e 238 81 4a 00
        e 242 b1 02 50
        e 0 91 53 67
        e 238 81 53 00
        e 242 b1 02 50
        e 0 91 4a 67
        e 238 81 4a 00
        e 242 b1 02 50
        e 0 91 50 67
        e 238 81 50 00
        e 242 b1 02 50
        e 0 91 4c 67
        e 238 81 4c 00
        e 242 b1 02 50
        e 0 91 50 67
        e 238 81 50 00
        e 242 b1 02 50
        e 0 91 4c 67
        e 238 81 4c 00
        e 242 b1 02 50
        e 0 91 50 67
        e 238 81 50 00
        e 242 b1 02 50
        e 0 91 4c 67
        e 238 81 4c 00
        e 242 b1 02 50
        e 0 91 51 67
        e 238 81 51 00
        e 242 b1 02 50
        e 0 91 4c 67
        e 238 81 4c 00
        e 242 b1 02 50
        e 0 91 51 67
        e 238 81 51 00
        e 242 b1 02 50
        e 0 91 4c 67
        e 238 81 4c 00
        e 242 b1 02 50
        e 0 91 51 67
        e 238 81 51 00
        e 242 b1 02 50
        e 0 91 4c 67
        e 238 81 4c 00
        e 242 b1 02 50
        e 0 91 51 67
        e 238 81 51 00
        e 242 b1 02 50
        e 0 91 4c 67
        e 238 81 4c 00
        e 242 b1 02 50
        e 0 91 48 67
        e 238 81 48 00
        e 242 b1 02 50
        e 0 91 4c 67
        e 238 81 4c 00
        e 242 b1 02 50
        e 0 91 45 67
        e 238 81 45 00
        e 242 b1 02 50
        e 0 91 40 67
        e 238 81 40 00
        e 242 b1 02 50
        e 0 91 4f 67
        e 238 81 4f 00
        e 242 b1 02 50
        e 0 91 4a 67
        e 238 81 4a 00
        e 242 b1 02 50
        e 0 91 47 67
        e 238 81 47 00
        e 242 b1 02 50
        e 0 91 4a 67
        e 238 81 4a 00
        e 242 b1 02 50
        e 0 91 47 67
        e 238 81 47 00
        e 242 b1 02 50
        e 0 91 43 67
        e 238 81 43 00
        e 242 b1 02 50
        e 0 91 4c 67
        e 238 81 4c 00
        e 242 b1 02 50
        e 0 91 45 67
        e 238 81 45 00
        e 242 b1 02 50
        e 0 91 40 67
        e 238 81 40 00
        e 242 b1 02 50
        e 0 91 48 67
        e 238 81 48 00
        e 242 b1 02 50
        e 0 91 45 67
        e 238 81 45 00
        e 242 b1 02 50
        e 0 91 40 67
        e 238 81 40 00
        e 242 b1 02 50
        e 0 91 40 67
        e 238 81 40 00
        e 242 b1 02 50
        e 0 91 45 67
        e 238 81 45 00
        e 242 b1 02 50
        e 0 91 48 67
        e 238 81 48 00
        e 242 b1 02 50
        e 0 91 4c 67
        e 238 81 4c 00
        e 242 b1 02 50
        e 0 91 51 67
        e 238 81 51 00
        e 242 b1 02 50
        e 0 91 4c 67
        e 238 81 4c 00
        e 242 b1 02 50
        e 0 91 4f 67
        e 238 81 4f 00
        e 242 b1 02 50
        e 0 91 48 67
        e 238 81 48 00
        e 242 b1 02 50
        e 0 91 43 67
        e 238 81 43 00
        e 242 b1 02 50
        e 0 91 4c 67
        e 238 81 4c 00
        e 242 b1 02 50
        e 0 91 48 67
        e 238 81 48 00
        e 242 b1 02 50
        e 0 91 43 67
        e 238 81 43 00
        e 242 b1 02 50
        e 0 91 51 67
        e 238 81 51 00
        e 242 b1 02 50
        e 0 91 4a 67
        e 238 81 4a 00
        e 242 b1 02 50
        e 0 91 45 67
        e 238 81 45 00
        e 242 b1 02 50
        e 0 91 4e 67
        e 238 81 4e 00
        e 242 b1 02 50
        e 0 91 4a 67
        e 238 81 4a 00
        e 242 b1 02 50
        e 0 91 45 67
        e 238 81 45 00
        e 242 b1 02 50
        e 0 91 51 67
        e 238 81 51 00
        e 242 b1 02 50
        e 0 91 4c 67
        e 238 81 4c 00
        e 242 b1 02 50
        e 0 91 47 67
        e 238 81 47 00
        e 242 b1 02 50
        e 0 91 4c 67
        e 238 81 4c 00
        e 242 b1 02 50
        e 0 91 47 67
        e 238 81 47 00
        e 242 b1 02 50
        e 0 91 45 67
        e 238 81 45 00
        e 242 b1 02 50
        e 0 91 44 67
        e 238 81 44 00
        e 242 b1 02 50
        e 0 91 40 67
        e 238 81 40 00
        e 242 b1 02 50
        e 0 91 44 67
        e 238 81 44 00
        e 242 b1 02 50
        e 0 91 47 67
        e 238 81 47 00
        e 242 b1 02 50
        e 0 91 4c 67
        e 238 81 4c 00
        e 242 b1 02 50
        e 0 91 50 67
        e 238 81 50 00
        e 242 b1 02 50
        e 0 91 51 67
        e 238 81 51 00
        e 242 b1 02 50
        e 0 91 4c 67
        e 238 81 4c 00
        e 242 b1 02 50
        e 0 91 48 67
        e 238 81 48 00
        e 242 b1 02 50
        e 0 91 4c 67
        e 238 81 4c 00
        e 242 b1 02 50
        e 0 91 45 67
        e 238 81 45 00
        e 242 b1 02 50
        e 0 91 40 67
        e 238 81 40 00
        e 242 b1 02 50
        e 0 91 4f 67
        e 238 81 4f 00
        e 242 b1 02 50
        e 0 91 4a 67
        e 238 81 4a 00
        e 242 b1 02 50
        e 0 91 47 67
        e 238 81 47 00
        e 242 b1 02 50
        e 0 91 4a 67
        e 238 81 4a 00
        e 242 b1 02 50
        e 0 91 47 67
        e 238 81 47 00
        e 242 b1 02 50
        e 0 91 43 67
        e 238 81 43 00
        e 242 b1 02 50
        e 0 91 4c 67
        e 238 81 4c 00
        e 242 b1 02 50
        e 0 91 45 67
        e 238 81 45 00
        e 242 b1 02 50
        e 0 91 40 67
        e 238 81 40 00
        e 242 b1 02 50
        e 0 91 48 67
        e 238 81 48 00
        e 242 b1 02 50
        e 0 91 45 67
        e 238 81 45 00
        e 242 b1 02 50
        e 0 91 40 67
        e 238 81 40 00
        e 242 b1 02 50
        e 0 91 40 67
        e 238 81 40 00
        e 242 b1 02 50
        e 0 91 45 67
        e 238 81 45 00
        e 242 b1 02 50
        e 0 91 48 67
        e 238 81 48 00
        e 242 b1 02 50
        e 0 91 4c 67
        e 238 81 4c 00
        e 242 b1 02 50
        e 0 91 51 67
        e 238 81 51 00
        e 242 b1 02 50
        e 0 91 4c 67
        e 238 81 4c 00
        e 242 b1 02 50
        e 0 91 51 67
        e 238 81 51 00
        e 242 b1 02 50
        e 0 91 4d 67
        e 238 81 4d 00
        e 242 b1 02 50
        e 0 91 48 67
        e 238 81 48 00
        e 242 b1 02 50
        e 0 91 4c 67
        e 238 81 4c 00
        e 242 b1 02 50
        e 0 91 48 67
        e 238 81 48 00
        e 242 b1 02 50
        e 0 91 45 67
        e 238 81 45 00
        e 242 b1 02 50
        e 0 91 4f 67
        e 238 81 4f 00
        e 242 b1 02 50
        e 0 91 4c 67
        e 238 81 4c 00
        e 242 b1 02 50
        e 0 91 47 67
        e 238 81 47 00
        e 242 b1 02 50
        e 0 91 4c 67
        e 238 81 4c 00
        e 242 b1 02 50
        e 0 91 47 67
        e 238 81 47 00
        e 242 b1 02 50
        e 0 91 43 67
        e 238 81 43 00
        e 242 b1 02 50
        e 0 91 51 67
        e 238 81 51 00
        e 242 b1 02 50
        e 0 91 4a 67
        e 238 81 4a 00
        e 242 b1 02 50
        e 0 91 45 67
        e 238 81 45 00
        e 242 b1 02 50
        e 0 91 4a 67
        e 238 81 4a 00
        e 242 b1 02 50
        e 0 91 45 67
        e 238 81 45 00
        e 242 b1 02 50
        e 0 91 42 67
        e 238 81 42 00
        e 242 b1 02 50
        e 0 91 3e 67
        e 238 81 3e 00
        e 242 b1 02 50
        e 0 91 42 67
        e 238 81 42 00
        e 242 b1 02 50
        e 0 91 45 67
        e 238 81 45 00
        e 242 b1 02 50
        e 0 91 48 67
        e 238 81 48 00
        e 242 b1 02 50
        e 0 91 4a 67
        e 238 81 4a 00
        e 242 b1 02 50
        e 0 91 4e 67
        e 238 81 4e 00
        e 242 b1 02 50
        e 0 91 51 67
        e 238 81 51 00
        e 242 b1 02 50
        e 0 91 4c 67
        e 238 81 4c 00
        e 242 b1 02 50
        e 0 91 48 67
        e 238 81 48 00
        e 242 b1 02 50
        e 0 91 4c 67
        e 238 81 4c 00
        e 242 b1 02 50
        e 0 91 45 67
        e 238 81 45 00
        e 242 b1 02 50
        e 0 91 40 67
        e 238 81 40 00
        e 242 b1 02 50
        e 0 91 4f 67
        e 238 81 4f 00
        e 242 b1 02 50
        e 0 91 4a 67
        e 238 81 4a 00
        e 242 b1 02 50
        e 0 91 47 67
        e 238 81 47 00
        e 242 b1 02 50
        e 0 91 4a 67
        e 238 81 4a 00
        e 242 b1 02 50
        e 0 91 47 67
        e 238 81 47 00
        e 242 b1 02 50
        e 0 91 43 67
        e 238 81 43 00
        e 242 b1 02 50
        e 0 91 4c 67
        e 238 81 4c 00
        e 242 b1 02 50
        e 0 91 45 67
        e 238 81 45 00
        e 242 b1 02 50
        e 0 91 40 67
        e 238 81 40 00
        e 242 b1 02 50
        e 0 91 48 67
        e 238 81 48 00
        e 242 b1 02 50
        e 0 91 45 67
        e 238 81 45 00
        e 242 b1 02 50
        e 0 91 40 67
        e 238 81 40 00
        e 242 b1 02 50
        e 0 91 40 67
        e 238 81 40 00
        e 242 b1 02 50
        e 0 91 45 67
        e 238 81 45 00
        e 242 b1 02 50
        e 0 91 48 67
        e 238 81 48 00
        e 242 b1 02 50
        e 0 91 4c 67
        e 238 81 4c 00
        e 242 b1 02 50
        e 0 91 51 67
        e 238 81 51 00
        e 242 b1 02 50
        e 0 91 4c 67
        e 238 81 4c 00
        e 242 b1 02 50
        e 0 91 4f 67
        e 238 81 4f 00
        e 242 b1 02 50
        e 0 91 48 67
        e 238 81 48 00
        e 242 b1 02 50
        e 0 91 43 67
        e 238 81 43 00
        e 242 b1 02 50
        e 0 91 4c 67
        e 238 81 4c 00
        e 242 b1 02 50
        e 0 91 48 67
        e 238 81 48 00
        e 242 b1 02 50
        e 0 91 43 67
        e 238 81 43 00
        e 242 b1 02 50
        e 0 91 51 67
        e 238 81 51 00
        e 242 b1 02 50
        e 0 91 4a 67
        e 238 81 4a 00
        e 242 b1 02 50
        e 0 91 45 67
        e 238 81 45 00
        e 242 b1 02 50
        e 0 91 4e 67
        e 238 81 4e 00
        e 242 b1 02 50
        e 0 91 4a 67
        e 238 81 4a 00
        e 242 b1 02 50
        e 0 91 45 67
        e 238 81 45 00
        e 242 b1 02 50
        e 0 91 51 67
        e 238 81 51 00
        e 242 b1 02 50
        e 0 91 4c 67
        e 238 81 4c 00
        e 242 b1 02 50
        e 0 91 47 67
        e 238 81 47 00
        e 242 b1 02 50
        e 0 91 4c 67
        e 238 81 4c 00
        e 242 b1 02 50
        e 0 91 47 67
        e 238 81 47 00
        e 242 b1 02 50
        e 0 91 45 67
        e 238 81 45 00
        e 242 b1 02 50
        e 0 91 44 67
        e 238 81 44 00
        e 242 b1 02 50
        e 0 91 40 67
        e 238 81 40 00
        e 242 b1 02 50
        e 0 91 44 67
        e 238 81 44 00
        e 242 b1 02 50
        e 0 91 47 67
        e 238 81 47 00
        e 242 b1 02 50
        e 0 91 4c 67
        e 238 81 4c 00
        e 242 b1 02 50
        e 0 91 50 67
        e 238 81 50 00
        e 242 b1 02 50
        e 0 91 51 67
        e 238 81 51 00
        e 242 b1 02 50
        e 0 91 4c 67
        e 238 81 4c 00
        e 242 b1 02 50
        e 0 91 48 67
        e 238 81 48 00
        e 242 b1 02 50
        e 0 91 4c 67
        e 238 81 4c 00
        e 242 b1 02 50
        e 0 91 45 67
        e 238 81 45 00
        e 242 b1 02 50
        e 0 91 40 67
        e 238 81 40 00
        e 242 b1 02 50
        e 0 91 4f 67
        e 238 81 4f 00
        e 242 b1 02 50
        e 0 91 4a 67
        e 238 81 4a 00
        e 242 b1 02 50
        e 0 91 47 67
        e 238 81 47 00
        e 242 b1 02 50
        e 0 91 4a 67
        e 238 81 4a 00
        e 242 b1 02 50
        e 0 91 47 67
        e 238 81 47 00
        e 242 b1 02 50
        e 0 91 43 67
        e 238 81 43 00
        e 242 b1 02 50
        e 0 91 4c 67
        e 238 81 4c 00
        e 242 b1 02 50
        e 0 91 45 67
        e 238 81 45 00
        e 242 b1 02 50
        e 0 91 40 67
        e 238 81 40 00
        e 242 b1 02 50
        e 0 91 48 67
        e 238 81 48 00
        e 242 b1 02 50
        e 0 91 45 67
        e 238 81 45 00
        e 242 b1 02 50
        e 0 91 40 67
        e 238 81 40 00
        e 242 b1 02 50
        e 0 91 40 67
        e 238 81 40 00
        e 242 b1 02 50
        e 0 91 45 67
        e 238 81 45 00
        e 242 b1 02 50
        e 0 91 48 67
        e 238 81 48 00
        e 242 b1 02 50
        e 0 91 4c 67
        e 238 81 4c 00
        e 242 b1 02 50
        e 0 91 51 67
        e 238 81 51 00
        e 242 b1 02 50
        e 0 91 4c 67
        e 238 81 4c 00
        e 242 b1 02 50
        e 0 91 51 67
        e 238 81 51 00
        e 242 b1 02 50
        e 0 91 4d 67
        e 238 81 4d 00
        e 242 b1 02 50
        e 0 91 48 67
        e 238 81 48 00
        e 242 b1 02 50
        e 0 91 4c 67
        e 238 81 4c 00
        e 242 b1 02 50
        e 0 91 48 67
        e 238 81 48 00
        e 242 b1 02 50
        e 0 91 45 67
        e 238 81 45 00
        e 242 b1 02 50
        e 0 91 4f 67
        e 238 81 4f 00
        e 242 b1 02 50
        e 0 91 4c 67
        e 238 81 4c 00
        e 242 b1 02 50
        e 0 91 47 67
        e 238 81 47 00
        e 242 b1 02 50
        e 0 91 4c 67
        e 238 81 4c 00
        e 242 b1 02 50
        e 0 91 47 67
        e 238 81 47 00
        e 242 b1 02 50
        e 0 91 43 67
        e 238 81 43 00
        e 242 b1 02 50
        e 0 91 51 67
        e 238 81 51 00
        e 242 b1 02 50
        e 0 91 4a 67
        e 238 81 4a 00
        e 242 b1 02 50
        e 0 91 45 67
        e 238 81 45 00
        e 242 b1 02 50
        e 0 91 4a 67
        e 238 81 4a 00
        e 242 b1 02 50
        e 0 91 45 67
        e 238 81 45 00
        e 242 b1 02 50
        e 0 91 42 67
        e 238 81 42 00
        e 242 b1 02 50
        e 0 91 3e 67
        e 238 81 3e 00
        e 242 b1 02 50
        e 0 91 42 67
        e 238 81 42 00
        e 242 b1 02 50
        e 0 91 45 67
        e 238 81 45 00
        e 242 b1 02 50
        e 0 91 48 67
        e 238 81 48 00
        e 242 b1 02 50
        e 0 91 4a 67
        e 238 81 4a 00
        e 242 b1 02 50
        e 0 91 4e 67
        e 238 81 4e 00
        e 242 b1 02 50
        e 0 91 51 67
        e 238 81 51 00
        e 242 b1 02 50
        e 0 91 4c 67
        e 238 81 4c 00
        e 242 b1 02 50
        e 0 91 48 67
        e 238 81 48 00
        e 242 b1 02 50
        e 0 91 45 67
        e 238 81 45 00
        e 242 b1 02 50
        e 0 91 40 67
        e 238 81 40 00
        e 242 b1 02 50
        e 0 91 45 67
        e 238 81 45 00
        e 242 b1 02 50
        e 0 91 4f 67
        e 238 81 4f 00
        e 242 b1 02 50
        e 0 91 4a 67
        e 238 81 4a 00
        e 242 b1 02 50
        e 0 91 47 67
        e 238 81 47 00
        e 242 b1 02 50
        e 0 91 43 67
        e 238 81 43 00
        e 242 b1 02 50
        e 0 91 47 67
        e 238 81 47 00
        e 242 b1 02 50
        e 0 91 4a 67
        e 238 81 4a 00
        e 242 b1 02 50
        e 0 91 51 67
        e 238 81 51 00
        e 242 b1 02 50
        e 0 91 4c 67
        e 238 81 4c 00
        e 242 b1 02 50
        e 0 91 48 67
        e 238 81 48 00
        e 242 b1 02 50
        e 0 91 45 67
        e 238 81 45 00
        e 242 b1 02 50
        e 0 91 40 67
        e 238 81 40 00
        e 242 b1 02 50
        e 0 91 45 67
        e 238 81 45 00
        e 242 b1 02 50
        e 0 91 4e 67
        e 238 81 4e 00
        e 242 b1 02 50
        e 0 91 4a 67
        e 238 81 4a 00
        e 242 b1 02 50
        e 0 91 45 67
        e 238 81 45 00
        e 242 b1 02 50
        e 0 91 42 67
        e 238 81 42 00
        e 242 b1 02 50
        e 0 91 45 67
        e 238 81 45 00
        e 242 b1 02 50
        e 0 91 4a 67
        e 238 81 4a 00
        e 242 b1 02 50
        e 0 91 51 67
        e 238 81 51 00
        e 242 b1 02 50
        e 0 91 4c 67
        e 238 81 4c 00
        e 242 b1 02 50
        e 0 91 48 67
        e 238 81 48 00
        e 242 b1 02 50
        e 0 91 45 67
        e 238 81 45 00
        e 242 b1 02 50
        e 0 91 40 67
        e 238 81 40 00
        e 242 b1 02 50
        e 0 91 45 67
        e 238 81 45 00
        e 242 b1 02 50
        e 0 91 4f 67
        e 238 81 4f 00
        e 242 b1 02 50
        e 0 91 4a 67
        e 238 81 4a 00
        e 242 b1 02 50
        e 0 91 47 67
        e 238 81 47 00
        e 242 b1 02 50
        e 0 91 43 67
        e 238 81 43 00
        e 242 b1 02 50
        e 0 91 47 67
        e 238 81 47 00
        e 242 b1 02 50
        e 0 91 4a 67
        e 238 81 4a 00
        e 242 b1 02 50
        e 0 91 4e 67
        e 238 81 4e 00
        e 242 b1 02 50
        e 0 91 4a 67
        e 238 81 4a 00
        e 242 b1 02 50
        e 0 91 45 67
        e 238 81 45 00
        e 242 b1 02 50
        e 0 91 42 67
        e 238 81 42 00
        e 242 b1 02 50
        e 0 91 45 67
        e 238 81 45 00
        e 242 b1 02 50
        e 0 91 4a 67
        e 238 81 4a 00
        e 242 b1 02 50
        e 0 91 4e 67
        e 238 81 4e 00
        e 242 b1 02 50
        e 0 91 4a 67
        e 238 81 4a 00
        e 242 b1 02 50
        e 0 91 45 67
        e 238 81 45 00
        e 242 b1 02 50
        e 0 91 42 67
        e 238 81 42 00
        e 242 b1 02 50
        e 0 91 45 67
        e 238 81 45 00
        e 242 b1 02 50
        e 0 91 4a 67
        e 238 81 4a 00
        e 242 b1 02 50
        e 0 91 51 67
        e 238 81 51 00
        e 242 b1 02 50
        e 0 91 4c 67
        e 238 81 4c 00
        e 242 b1 02 50
        e 0 91 48 67
        e 238 81 48 00
        e 242 b1 02 50
        e 0 91 45 67
        e 238 81 45 00
        e 242 b1 02 50
        e 0 91 40 67
        e 238 81 40 00
        e 242 b1 02 50
        e 0 91 45 67
        e 238 81 45 00
        e 242 b1 02 50
        e 0 91 4f 67
        e 238 81 4f 00
        e 242 b1 02 50
        e 0 91 4a 67
        e 238 81 4a 00
        e 242 b1 02 50
        e 0 91 47 67
        e 238 81 47 00
        e 242 b1 02 50
        e 0 91 43 67
        e 238 81 43 00
        e 242 b1 02 50
        e 0 91 47 67
        e 238 81 47 00
        e 242 b1 02 50
        e 0 91 4a 67
        e 238 81 4a 00
        e 242 b1 02 50
        e 0 91 51 67
        e 238 81 51 00
        e 242 b1 02 50
        e 0 91 4c 67
        e 238 81 4c 00
        e 242 b1 02 50
        e 0 91 48 67
        e 238 81 48 00
        e 242 b1 02 50
        e 0 91 45 67
        e 238 81 45 00
        e 242 b1 02 50
        e 0 91 40 67
        e 238 81 40 00
        e 242 b1 02 50
        e 0 91 45 67
        e 238 81 45 00
        e 242 b1 02 50
        e 0 91 4e 67
        e 238 81 4e 00
        e 242 b1 02 50
        e 0 91 4a 67
        e 238 81 4a 00
        e 242 b1 02 50
        e 0 91 45 67
        e 238 81 45 00
        e 242 b1 02 50
        e 0 91 42 67
        e 238 81 42 00
        e 242 b1 02 50
        e 0 91 45 67
        e 238 81 45 00
        e 242 b1 02 50
        e 0 91 4a 67
        e 238 81 4a 00
        e 242 b1 02 50
        e 0 91 4d 67
        e 238 81 4d 00
        e 242 b1 02 50
        e 0 91 48 67
        e 238 81 48 00
        e 242 b1 02 50
        e 0 91 45 67
        e 238 81 45 00
        e 242 b1 02 50
        e 0 91 41 67
        e 238 81 41 00
        e 242 b1 02 50
        e 0 91 45 67
        e 238 81 45 00
        e 242 b1 02 50
        e 0 91 48 67
        e 238 81 48 00
        e 242 b1 02 50
        e 0 91 4c 67
        e 238 81 4c 00
        e 242 b1 02 50
        e 0 91 47 67
        e 238 81 47 00
        e 242 b1 02 50
        e 0 91 43 67
        e 238 81 43 00
        e 242 b1 02 50
        e 0 91 40 67
        e 238 81 40 00
        e 242 b1 02 50
        e 0 91 43 67
        e 238 81 43 00
        e 242 b1 02 50
        e 0 91 47 67
        e 238 81 47 00
        e 242 b1 02 50
        e 0 91 4e 67
        e 238 81 4e 00
        e 242 b1 02 50
        e 0 91 4a 67
        e 238 81 4a 00
        e 242 b1 02 50
        e 0 91 45 67
        e 238 81 45 00
        e 242 b1 02 50
        e 0 91 42 67
        e 238 81 42 00
        e 242 b1 02 50
        e 0 91 45 67
        e 238 81 45 00
        e 242 b1 02 50
        e 0 91 4a 67
        e 238 81 4a 00
        e 242 b1 02 50
        e 0 91 4e 67
        e 238 81 4e 00
        e 242 b1 02 50
        e 0 91 4a 67
        e 238 81 4a 00
        e 242 b1 02 50
        e 0 91 45 67
        e 238 81 45 00
        e 242 b1 02 50
        e 0 91 42 67
        e 238 81 42 00
        e 242 b1 02 50
        e 0 91 45 67
        e 238 81 45 00
        e 242 b1 02 50
        e 0 91 4a 67
        e 238 81 4a 00
        e 242 b1 02 50
        e 0 91 51 67
        e 238 81 51 00
        e 242 b1 02 50
        e 0 91 4c 67
        e 238 81 4c 00
        e 242 b1 02 50
        e 0 91 48 67
        e 238 81 48 00
        e 242 b1 02 50
        e 0 91 45 67
        e 238 81 45 00
        e 242 b1 02 50
        e 0 91 40 67
        e 238 81 40 00
        e 242 b1 02 50
        e 0 91 45 67
        e 238 81 45 00
        e 242 b1 02 50
        e 0 91 4f 67
        e 238 81 4f 00
        e 242 b1 02 50
        e 0 91 4a 67
        e 238 81 4a 00
        e 242 b1 02 50
        e 0 91 47 67
        e 238 81 47 00
        e 242 b1 02 50
        e 0 91 43 67
        e 238 81 43 00
        e 242 b1 02 50
        e 0 91 47 67
        e 238 81 47 00
        e 242 b1 02 50
        e 0 91 4a 67
        e 238 81 4a 00
        e 242 b1 02 50
        e 0 91 51 67
        e 238 81 51 00
        e 242 b1 02 50
        e 0 91 4c 67
        e 238 81 4c 00
        e 242 b1 02 50
        e 0 91 48 67
        e 238 81 48 00
        e 242 b1 02 50
        e 0 91 45 67
        e 238 81 45 00
        e 242 b1 02 50
        e 0 91 40 67
        e 238 81 40 00
        e 242 b1 02 50
        e 0 91 45 67
        e 238 81 45 00
        e 242 b1 02 50
        e 0 91 4e 67
        e 238 81 4e 00
        e 242 b1 02 50
        e 0 91 4a 67
        e 238 81 4a 00
        e 242 b1 02 50
        e 0 91 45 67
        e 238 81 45 00
        e 242 b1 02 50
        e 0 91 42 67
        e 238 81 42 00
        e 242 b1 02 50
        e 0 91 45 67
        e 238 81 45 00
        e 242 b1 02 50
        e 0 91 4a 67
        e 238 81 4a 00
        e 242 b1 02 50
        e 0 91 51 67
        e 238 81 51 00
        e 242 b1 02 50
        e 0 91 4c 67
        e 238 81 4c 00
        e 242 b1 02 50
        e 0 91 48 67
        e 238 81 48 00
        e 242 b1 02 50
        e 0 91 45 67
        e 238 81 45 00
        e 242 b1 02 50
        e 0 91 40 67
        e 238 81 40 00
        e 242 b1 02 50
        e 0 91 45 67
        e 238 81 45 00
        e 242 b1 02 50
        e 0 91 4f 67
        e 238 81 4f 00
        e 242 b1 02 50
        e 0 91 4a 67
        e 238 81 4a 00
        e 242 b1 02 50
        e 0 91 47 67
        e 238 81 47 00
        e 242 b1 02 50
        e 0 91 43 67
        e 238 81 43 00
        e 242 b1 02 50
        e 0 91 47 67
        e 238 81 47 00
        e 242 b1 02 50
        e 0 91 4a 67
        e 238 81 4a 00
        e 242 b1 02 50
        e 0 91 4e 67
        e 238 81 4e 00
        e 242 b1 02 50
        e 0 91 4a 67
        e 238 81 4a 00
        e 242 b1 02 50
        e 0 91 45 67
        e 238 81 45 00
        e 242 b1 02 50
        e 0 91 42 67
        e 238 81 42 00
        e 242 b1 02 50
        e 0 91 45 67
        e 238 81 45 00
        e 242 b1 02 50
        e 0 91 4a 67
        e 238 81 4a 00
        e 242 b1 02 50
        e 0 91 4e 67
        e 238 81 4e 00
        e 242 b1 02 50
        e 0 91 4a 67
        e 238 81 4a 00
        e 242 b1 02 50
        e 0 91 45 67
        e 238 81 45 00
        e 242 b1 02 50
        e 0 91 42 67
        e 238 81 42 00
        e 242 b1 02 50
        e 0 91 45 67
        e 238 81 45 00
        e 242 b1 02 50
        e 0 91 4a 67
        e 238 81 4a 00
        e 242 b1 02 50
        e 0 91 51 67
        e 238 81 51 00
        e 242 b1 02 50
        e 0 91 4c 67
        e 238 81 4c 00
        e 242 b1 02 50
        e 0 91 48 67
        e 238 81 48 00
        e 242 b1 02 50
        e 0 91 45 67
        e 238 81 45 00
        e 242 b1 02 50
        e 0 91 40 67
        e 238 81 40 00
        e 242 b1 02 50
        e 0 91 45 67
        e 238 81 45 00
        e 242 b1 02 50
        e 0 91 4f 67
        e 238 81 4f 00
        e 242 b1 02 50
        e 0 91 4a 67
        e 238 81 4a 00
        e 242 b1 02 50
        e 0 91 47 67
        e 238 81 47 00
        e 242 b1 02 50
        e 0 91 43 67
        e 238 81 43 00
        e 242 b1 02 50
        e 0 91 47 67
        e 238 81 47 00
        e 242 b1 02 50
        e 0 91 4a 67
        e 238 81 4a 00
        e 242 b1 02 50
        e 0 91 51 67
        e 238 81 51 00
        e 242 b1 02 50
        e 0 91 4c 67
        e 238 81 4c 00
        e 242 b1 02 50
        e 0 91 48 67
        e 238 81 48 00
        e 242 b1 02 50
        e 0 91 45 67
        e 238 81 45 00
        e 242 b1 02 50
        e 0 91 40 67
        e 238 81 40 00
        e 242 b1 02 50
        e 0 91 45 67
        e 238 81 45 00
        e 242 b1 02 50
        e 0 91 4e 67
        e 238 81 4e 00
        e 242 b1 02 50
        e 0 91 4a 67
        e 238 81 4a 00
        e 242 b1 02 50
        e 0 91 45 67
        e 238 81 45 00
        e 242 b1 02 50
        e 0 91 42 67
        e 238 81 42 00
        e 242 b1 02 50
        e 0 91 45 67
        e 238 81 45 00
        e 242 b1 02 50
        e 0 91 4a 67
        e 238 81 4a 00
        e 242 b1 02 50
        e 0 91 4d 67
        e 238 81 4d 00
        e 242 b1 02 50
        e 0 91 48 67
        e 238 81 48 00
        e 242 b1 02 50
        e 0 91 45 67
        e 238 81 45 00
        e 242 b1 02 50
        e 0 91 41 67
        e 238 81 41 00
        e 242 b1 02 50
        e 0 91 45 67
        e 238 81 45 00
        e 242 b1 02 50
        e 0 91 48 67
        e 238 81 48 00
        e 242 b1 02 50
        e 0 91 4c 67
        e 238 81 4c 00
        e 242 b1 02 50
        e 0 91 47 67
        e 238 81 47 00
        e 242 b1 02 50
        e 0 91 43 67
        e 238 81 43 00
        e 242 b1 02 50
        e 0 91 40 67
        e 238 81 40 00
        e 242 b1 02 50
        e 0 91 43 67
        e 238 81 43 00
        e 242 b1 02 50
        e 0 91 47 67
        e 238 81 47 00
        e 242 b1 02 50
        e 0 91 45 67
        e 238 81 45 00
        e 242 b1 02 50
        e 0 91 4a 67
        e 238 81 4a 00
        e 242 b1 02 50
        e 0 91 4f 67
        e 238 81 4f 00
        e 242 b1 02 50
        e 0 91 51 67
        e 238 81 51 00
        e 242 b1 02 50
        e 0 91 56 67
        e 238 81 56 00
        e 242 b1 02 50
        e 0 91 5b 67
        e 238 81 5b 00
        e 242 b1 02 50
        e 0 91 5b 67
        e 238 81 5b 00
        e 242 b1 02 50
        e 0 91 51 67
        e 238 81 51 00
        e 242 b1 02 50
        e 0 91 56 67
        e 238 81 56 00
        e 242 b1 02 50
        e 0 91 5b 67
        e 238 81 5b 00
        e 242 b1 02 50
        e 0 91 51 67
        e 238 81 51 00
        e 242 b1 02 50
        e 0 91 56 67
        e 238 81 56 00
        e 242 b1 02 50
        e 0 91 56 4c
        e 118 81 56 00
        e 122 b1 02 50
        e 0 91 4a 4c
        e 118 81 4a 00
        e 122 b1 02 50
        e 0 91 56 4c
        e 118 81 56 00
        e 122 b1 02 50
        e 0 91 4a 4c
        e 118 81 4a 00
        e 122 b1 02 50
        e 0 91 56 4c
        e 118 81 56 00
        e 122 b1 02 50
        e 0 91 4a 4c
        e 118 81 4a 00
        e 122 b1 02 50
        e 0 91 56 4c
        e 118 81 56 00
        e 122 b1 02 50
        e 0 91 4a 4c
        e 118 81 4a 00
        e 122 b1 02 50
        e 0 91 56 4c
        e 118 81 56 00
        e 122 b1 02 50
        e 0 91 4a 4c
        e 118 81 4a 00
        e 122 b1 02 50
        e 0 91 56 4c
        e 118 81 56 00
        e 122 b1 02 50
        e 0 91 4a 4c
        e 118 81 4a 00
        E 3002 b0 7b 00
        CCINTERP 32
        CHASE_CC_TAKEOFFS 1
        GUID {0A943F73-5ED9-4E65-8EC7-5D793678E17D}
        IGNTEMPO 0 120 4 4
        SRCCOLOR 278
        VELLANE -1 150 0 0 1
        CFGEDITVIEW 0 0.011262 35 12 0 -1 0 0 0 0.5
        KEYSNAP 0
        TRACKSEL 0
        EVTFILTER 0 -1 -1 -1 -1 0 0 0 0 -1 -1 -1 -1 0 -1 0 -1 -1
        CFGEDIT 1 1 0 1 0 0 1 1 1 1 1 0.02083333 2584 183 3555 777 0 0 0 1 0.08333333 0 0 1 0 0.5 0 0 1 64
      >
    >
  >
  <TRACK {F396007D-2C6E-4860-9FB4-94F00D072B62}
    NAME "Prog Wave"
    PEAKCOL 16576
    BEAT -1
    AUTOMODE 0
    VOLPAN 1 0 -1 -1 1
    MUTESOLO 0 0 0
    IPHASE 0
    PLAYOFFS 0 1
    ISBUS 0 0
    BUSCOMP 0 0 0 0 0
    SHOWINMIX 1 0.6667 0.5 1 0.5 0 0 0
    FIXEDLANES 9 0 0
    SEL 0
    REC 0 0 1 0 0 0 0 0
    VU 2
    TRACKHEIGHT 0 0 0 0 0 0 0
    INQ 0 0 0 0.5 100 0 0 100
    NCHAN 2
    FX 1
    TRACKID {F396007D-2C6E-4860-9FB4-94F00D072B62}
    PERF 0
    MIDIOUT -1
    MAINSEND 1 0
    <FXCHAIN
      WNDRECT 1944 155 655 408
      SHOW 0
      LASTSEL 0
      DOCKED 0
      BYPASS 0 0 0
      <VST "VSTi: sforzando (x86) (Plogue Art et Technologie, Inc)" "sforzando VST_x86.dll" 0 "" 1347176273<565354504C475173666F727A616E646F> ""
        UUdMUO5e7f4AAAAAAgAAAAEAAAAAAAAAAgAAAAAAAAAGAgAAAQAAAAAAEAA=
        Q0VHUEcFAAB4nI2U32+bMBDH3yftf7D8tElrsIECkcKqtI0qHqJVSvuMLuBkqP6RgR11//0OkhBUrYK8wH398dn3JXeLu3clyVHUTWV0SvmMUXL38+uXxbKuYANHMVib
        xzElh9qUrrDZIwqMhxRZgr/FRlhb6X1D/jiQlf2Ly5Q0thagUE5p4FOi4H3TKUspTbG+T+ktR3mdPWa/nF2bUnS7wFmjwOKhG2lsStlQkuIoZEorjbmdEtpSIqujOG1G
        sikwa/sACShwckNEe6VZU8iz/IC7RJ3SCPG9NFuQL053l0TB6wvCs0lVdqIGhdmbne89mzehjM5XStQgy3xjnC53Rtv82+uhBCvKfOn2rrE5D37kPvP597zdxxjzWOLn
        T/f5A0hZmYOgZAv6LcMTQlylV6PxvfgNWrd13qAfByPRziikxF7vedjmNei9OCMWg6ZbUINXU1j8hL0vmEE528XnKrtK11DpS6VHkO70Fbz/IrxH2GeIP44E40g4jtyO
        I9E4Eo8jyTgyH0c4m8BM8JdPMJhPcJhPsJh/7vEz1KA+OPjxb3NleDCobJYk8zgK4tgPkzgKWThoO6/tu0uw2u1EYYedeG7vU0Mu1bYSuhh0UjeShiMrnHcjq+jnQ3/Q
        02t2SQqFxRGSXadNF6/6uBESryHKF9ie2q1NsvAuIxKDf35EZv0=
        AAAQAAAA
      >
      FLOATPOS 0 0 0 0
      FXID {1EDA3F0B-B020-4676-8429-F5B8019CEEDD}
      WAK 0 0
    >
    <ITEM
      POSITION 0
      SNAPOFFS 0
      LENGTH 196.8
      LOOP 1
      ALLTAKES 0
      FADEIN 1 0 0 1 0 0 0
      FADEOUT 1 0 0 1 0 0 0
      MUTE 0 0
      SEL 0
      IGUID {761E5308-946A-4260-8D87-896B1D5C0E04}
      IID 5
      NAME "Sleigh Bells - mus_downstream.mid [chan 3]"
      VOLPAN 1 0 1 -1
      SOFFS 0 0
      PLAYRATE 1 1 0 -1 0 0.0025
      CHANMODE 0
      GUID {296ED552-BB8F-4B09-871A-94A76F5BB774}
      <SOURCE MIDI
        HASDATA 1 960 QN
        CCINTERP 32
        POOLEDEVTS {4795ACD9-9D45-46AF-8420-1FBC18733DB0}
        E 0 c2 53 00
        E 0 b2 07 4e
        E 0 b2 0a 3f
        E 0 b2 06 0c
        E 0 b2 64 7f
        E 0 b2 65 7f
        E 0 b2 5b 00
        E 0 b2 5d 00
        E 0 b2 79 00
        E 52320 b2 02 50
        E 0 92 3d 7f
        E 478 82 3d 00
        E 2 b2 02 50
        E 0 92 40 7f
        E 238 82 40 00
        E 242 b2 02 50
        E 0 92 45 7f
        E 238 82 45 00
        E 242 b2 02 50
        E 0 92 49 7f
        E 238 82 49 00
        E 242 b2 02 50
        E 0 92 51 7f
        E 238 82 51 00
        E 722 b2 02 50
        E 0 92 3d 7f
        E 478 82 3d 00
        E 2 b2 02 50
        E 0 92 42 7f
        E 238 82 42 00
        E 242 b2 02 50
        E 0 92 45 7f
        E 238 82 45 00
        E 242 b2 02 50
        E 0 92 49 7f
        E 238 82 49 00
        E 242 b2 02 50
        E 0 92 4e 7f
        E 238 82 4e 00
        E 722 b2 02 50
        E 0 92 3b 7f
        E 478 82 3b 00
        E 2 b2 02 50
        E 0 92 40 7f
        E 238 82 40 00
        E 242 b2 02 50
        E 0 92 44 7f
        E 238 82 44 00
        E 242 b2 02 50
        E 0 92 47 7f
        E 238 82 47 00
        E 242 b2 02 50
        E 0 92 50 7f
        E 238 82 50 00
        E 722 b2 02 50
        E 0 92 3e 7f
        E 478 82 3e 00
        E 2 b2 02 50
        E 0 92 42 7f
        E 238 82 42 00
        E 242 b2 02 50
        E 0 92 44 7f
        E 238 82 44 00
        E 242 b2 02 50
        E 0 92 47 7f
        E 238 82 47 00
        E 242 b2 02 50
        E 0 92 50 7f
        E 238 82 50 00
        E 722 b2 02 50
        E 0 92 3d 7f
        E 478 82 3d 00
        E 2 b2 02 50
        E 0 92 40 7f
        E 238 82 40 00
        E 242 b2 02 50
        E 0 92 45 7f
        E 238 82 45 00
        E 242 b2 02 50
        E 0 92 49 7f
        E 238 82 49 00
        E 242 b2 02 50
        E 0 92 51 7f
        E 238 82 51 00
        E 722 b2 02 50
        E 0 92 3d 7f
        E 478 82 3d 00
        E 2 b2 02 50
        E 0 92 42 7f
        E 238 82 42 00
        E 242 b2 02 50
        E 0 92 45 7f
        E 238 82 45 00
        E 242 b2 02 50
        E 0 92 49 7f
        E 238 82 49 00
        E 242 b2 02 50
        E 0 92 4e 7f
        E 238 82 4e 00
        E 722 b2 02 50
        E 0 92 3e 7f
        E 478 82 3e 00
        E 2 b2 02 50
        E 0 92 42 7f
        E 238 82 42 00
        E 242 b2 02 50
        E 0 92 45 7f
        E 238 82 45 00
        E 242 b2 02 50
        E 0 92 49 7f
        E 238 82 49 00
        E 242 b2 02 50
        E 0 92 4e 7f
        E 238 82 4e 00
        E 722 b2 02 50
        E 0 92 3b 7f
        E 478 82 3b 00
        E 2 b2 02 50
        E 0 92 40 7f
        E 238 82 40 00
        E 242 b2 02 50
        E 0 92 44 7f
        E 238 82 44 00
        E 242 b2 02 50
        E 0 92 47 7f
        E 238 82 47 00
        E 242 b2 02 50
        E 0 92 50 7f
        E 238 82 50 00
        E 722 b2 02 50
        E 0 92 3d 7f
        E 478 82 3d 00
        E 2 b2 02 50
        E 0 92 40 7f
        E 238 82 40 00
        E 242 b2 02 50
        E 0 92 45 7f
        E 238 82 45 00
        E 242 b2 02 50
        E 0 92 49 7f
        E 238 82 49 00
        E 242 b2 02 50
        E 0 92 51 7f
        E 238 82 51 00
        E 722 b2 02 50
        E 0 92 3e 7f
        E 478 82 3e 00
        E 2 b2 02 50
        E 0 92 43 7f
        E 238 82 43 00
        E 242 b2 02 50
        E 0 92 47 7f
        E 238 82 47 00
        E 242 b2 02 50
        E 0 92 4a 7f
        E 238 82 4a 00
        E 242 b2 02 50
        E 0 92 4f 7f
        E 238 82 4f 00
        E 722 b2 02 50
        E 0 92 3e 7f
        E 478 82 3e 00
        E 2 b2 02 50
        E 0 92 42 7f
        E 238 82 42 00
        E 242 b2 02 50
        E 0 92 45 7f
        E 238 82 45 00
        E 242 b2 02 50
        E 0 92 49 7f
        E 238 82 49 00
        E 242 b2 02 50
        E 0 92 4e 7f
        E 238 82 4e 00
        E 722 b2 02 50
        E 0 92 3b 7f
        E 478 82 3b 00
        E 2 b2 02 50
        E 0 92 40 7f
        E 238 82 40 00
        E 242 b2 02 50
        E 0 92 44 7f
        E 238 82 44 00
        E 242 b2 02 50
        E 0 92 47 7f
        E 238 82 47 00
        E 242 b2 02 50
        E 0 92 50 7f
        E 238 82 50 00
        E 722 b2 02 50
        E 0 92 3d 7f
        E 478 82 3d 00
        E 2 b2 02 50
        E 0 92 40 7f
        E 238 82 40 00
        E 242 b2 02 50
        E 0 92 45 7f
        E 238 82 45 00
        E 242 b2 02 50
        E 0 92 49 7f
        E 238 82 49 00
        E 242 b2 02 50
        E 0 92 51 7f
        E 238 82 51 00
        E 722 b2 02 50
        E 0 92 3e 7f
        E 478 82 3e 00
        E 2 b2 02 50
        E 0 92 43 7f
        E 238 82 43 00
        E 242 b2 02 50
        E 0 92 47 7f
        E 238 82 47 00
        E 242 b2 02 50
        E 0 92 4a 7f
        E 238 82 4a 00
        E 242 b2 02 50
        E 0 92 4f 7f
        E 238 82 4f 00
        E 722 b2 02 50
        E 0 92 3b 7f
        E 478 82 3b 00
        E 2 b2 02 50
        E 0 92 40 7f
        E 238 82 40 00
        E 242 b2 02 50
        E 0 92 44 7f
        E 238 82 44 00
        E 242 b2 02 50
        E 0 92 47 7f
        E 238 82 47 00
        E 242 b2 02 50
        E 0 92 50 7f
        E 238 82 50 00
        E 722 b2 02 50
        E 0 92 3d 7f
        E 478 82 3d 00
        E 2 b2 02 50
        E 0 92 40 7f
        E 238 82 40 00
        E 242 b2 02 50
        E 0 92 45 7f
        E 238 82 45 00
        E 242 b2 02 50
        E 0 92 49 7f
        E 238 82 49 00
        E 242 b2 02 50
        E 0 92 4c 7f
        E 238 82 4c 00
        E 242 b2 02 50
        E 0 92 4c 64
        E 478 82 4c 00
        E 482 b2 02 50
        E 0 92 4c 64
        E 958 82 4c 00
        E 2 b2 02 50
        E 0 92 4e 64
        E 958 82 4e 00
        E 2 b2 02 50
        E 0 92 4f 64
        E 1918 82 4f 00
        E 2 b2 02 50
        E 0 92 4c 64
        E 958 82 4c 00
        E 2 b2 02 50
        E 0 92 4f 64
        E 1438 82 4f 00
        E 2 b2 02 50
        E 0 92 51 64
        E 478 82 51 00
        E 2 b2 02 50
        E 0 92 53 64
        E 478 82 53 00
        E 2 92 56 64
        E 478 82 56 00
        E 2 b2 02 50
        E 0 92 55 64
        E 478 82 55 00
        E 2 b2 02 50
        E 0 92 53 64
        E 238 82 53 00
        E 242 b2 02 50
        E 0 92 51 64
        E 958 82 51 00
        E 2 b2 02 50
        E 0 92 4f 64
        E 238 82 4f 00
        E 2 b2 02 50
        E 0 92 51 64
        E 238 82 51 00
        E 2 b2 02 50
        E 0 92 53 64
        E 238 82 53 00
        E 2 b2 02 50
        E 0 92 55 64
        E 238 82 55 00
        E 2 b2 02 50
        E 0 92 56 64
        E 958 82 56 00
        E 2 b2 02 50
        E 0 92 55 64
        E 958 82 55 00
        E 2 b2 02 50
        E 0 92 56 64
        E 958 82 56 00
        E 2 b2 02 50
        E 0 92 56 64
        E 478 82 56 00
        E 2 b2 02 50
        E 0 92 58 64
        E 238 82 58 00
        E 242 b2 02 50
        E 0 92 58 64
        E 478 82 58 00
        E 2 b2 02 50
        E 0 92 56 64
        E 238 82 56 00
        E 242 b2 02 50
        E 0 92 56 64
        E 958 82 56 00
        E 2 b2 02 50
        E 0 92 55 64
        E 1438 82 55 00
        E 2 b2 02 50
        E 0 92 53 64
        E 118 82 53 00
        E 2 92 55 64
        E 118 82 55 00
        E 2 92 53 64
        E 238 82 53 00
        E 2 b2 02 50
        E 0 92 51 64
        E 958 82 51 00
        E 2 b2 02 50
        E 0 92 53 64
        E 1918 82 53 00
        E 2 b2 02 50
        E 0 92 55 64
        E 958 82 55 00
        E 2 b2 02 50
        E 0 92 56 64
        E 1918 82 56 00
        E 2 b2 02 50
        E 0 92 55 64
        E 478 82 55 00
        E 2 b2 02 50
        E 0 92 56 64
        E 238 82 56 00
        E 2 b2 02 50
        E 0 92 55 64
        E 238 82 55 00
        E 2 b2 02 50
        E 0 92 53 64
        E 958 82 53 00
        E 2 b2 02 50
        E 0 92 51 64
        E 1918 82 51 00
        E 2 b2 02 50
        E 0 92 55 64
        E 478 82 55 00
        E 2 b2 02 50
        E 0 92 53 64
        E 238 82 53 00
        E 242 b2 02 50
        E 0 92 51 64
        E 958 82 51 00
        E 2 b2 02 50
        E 0 92 50 64
        E 958 82 50 00
        E 2 b2 02 50
        E 0 92 4c 64
        E 1918 82 4c 00
        E 2 b2 02 50
        E 0 92 4e 64
        E 958 82 4e 00
        E 2 b2 02 50
        E 0 92 4f 64
        E 1438 82 4f 00
        E 2 b2 02 50
        E 0 92 51 64
        E 478 82 51 00
        E 2 b2 02 50
        E 0 92 53 64
        E 478 82 53 00
        E 2 b2 02 50
        E 0 92 55 64
        E 478 82 55 00
        E 2 b2 02 50
        E 0 92 55 64
        E 478 82 55 00
        E 2 b2 02 50
        E 0 92 56 64
        E 1438 82 56 00
        E 2 b2 02 50
        E 0 92 55 64
        E 958 82 55 00
        E 2 b2 02 50
        E 0 92 53 64
        E 478 82 53 00
        E 2 b2 02 50
        E 0 92 55 64
        E 238 82 55 00
        E 242 b2 02 50
        E 0 92 53 64
        E 118 82 53 00
        E 2 92 55 64
        E 118 82 55 00
        E 2 92 53 64
        E 238 82 53 00
        E 2 b2 02 50
        E 0 92 51 64
        E 238 82 51 00
        E 242 b2 02 50
        E 0 92 50 64
        E 958 82 50 00
        E 2 b2 02 50
        E 0 92 51 64
        E 958 82 51 00
        E 2 b2 02 50
        E 0 92 4c 64
        E 958 82 4c 00
        E 2 b2 02 50
        E 0 92 4e 64
        E 238 82 4e 00
        E 242 b2 02 50
        E 0 92 50 64
        E 238 82 50 00
        E 722 b2 02 50
        E 0 92 3d 7f
        E 478 82 3d 00
        E 2 b2 02 50
        E 0 92 40 7f
        E 238 82 40 00
        E 242 b2 02 50
        E 0 92 45 7f
        E 238 82 45 00
        E 242 b2 02 50
        E 0 92 49 7f
        E 238 82 49 00
        E 242 b2 02 50
        E 0 92 51 7f
        E 238 82 51 00
        E 722 b2 02 50
        E 0 92 3d 7f
        E 478 82 3d 00
        E 2 b2 02 50
        E 0 92 42 7f
        E 238 82 42 00
        E 242 b2 02 50
        E 0 92 45 7f
        E 238 82 45 00
        E 242 b2 02 50
        E 0 92 49 7f
        E 238 82 49 00
        E 242 b2 02 50
        E 0 92 4e 7f
        E 238 82 4e 00
        E 722 b2 02 50
        E 0 92 3b 7f
        E 478 82 3b 00
        E 2 b2 02 50
        E 0 92 40 7f
        E 238 82 40 00
        E 242 b2 02 50
        E 0 92 44 7f
        E 238 82 44 00
        E 242 b2 02 50
        E 0 92 47 7f
        E 238 82 47 00
        E 242 b2 02 50
        E 0 92 50 7f
        E 238 82 50 00
        E 722 b2 02 50
        E 0 92 3e 7f
        E 478 82 3e 00
        E 2 b2 02 50
        E 0 92 42 7f
        E 238 82 42 00
        E 242 b2 02 50
        E 0 92 44 7f
        E 238 82 44 00
        E 242 b2 02 50
        E 0 92 47 7f
        E 238 82 47 00
        E 242 b2 02 50
        E 0 92 50 7f
        E 238 82 50 00
        E 722 b2 02 50
        E 0 92 3d 7f
        E 478 82 3d 00
        E 2 b2 02 50
        E 0 92 40 7f
        E 238 82 40 00
        E 242 b2 02 50
        E 0 92 45 7f
        E 238 82 45 00
        E 242 b2 02 50
        E 0 92 49 7f
        E 238 82 49 00
        E 242 b2 02 50
        E 0 92 51 7f
        E 238 82 51 00
        E 722 b2 02 50
        E 0 92 3d 7f
        E 478 82 3d 00
        E 2 b2 02 50
        E 0 92 42 7f
        E 238 82 42 00
        E 242 b2 02 50
        E 0 92 45 7f
        E 238 82 45 00
        E 242 b2 02 50
        E 0 92 49 7f
        E 238 82 49 00
        E 242 b2 02 50
        E 0 92 4e 7f
        E 238 82 4e 00
        E 722 b2 02 50
        E 0 92 3e 7f
        E 478 82 3e 00
        E 2 b2 02 50
        E 0 92 42 7f
        E 238 82 42 00
        E 242 b2 02 50
        E 0 92 45 7f
        E 238 82 45 00
        E 242 b2 02 50
        E 0 92 49 7f
        E 238 82 49 00
        E 242 b2 02 50
        E 0 92 4e 7f
        E 238 82 4e 00
        E 722 b2 02 50
        E 0 92 3b 7f
        E 478 82 3b 00
        E 2 b2 02 50
        E 0 92 40 7f
        E 238 82 40 00
        E 242 b2 02 50
        E 0 92 44 7f
        E 238 82 44 00
        E 242 b2 02 50
        E 0 92 47 7f
        E 238 82 47 00
        E 242 b2 02 50
        E 0 92 50 7f
        E 238 82 50 00
        E 722 b2 02 50
        E 0 92 3d 7f
        E 478 82 3d 00
        E 2 b2 02 50
        E 0 92 40 7f
        E 238 82 40 00
        E 242 b2 02 50
        E 0 92 45 7f
        E 238 82 45 00
        E 242 b2 02 50
        E 0 92 49 7f
        E 238 82 49 00
        E 242 b2 02 50
        E 0 92 51 7f
        E 238 82 51 00
        E 722 b2 02 50
        E 0 92 3e 7f
        E 478 82 3e 00
        E 2 b2 02 50
        E 0 92 43 7f
        E 238 82 43 00
        E 242 b2 02 50
        E 0 92 47 7f
        E 238 82 47 00
        E 242 b2 02 50
        E 0 92 4a 7f
        E 238 82 4a 00
        E 242 b2 02 50
        E 0 92 4f 7f
        E 238 82 4f 00
        E 722 b2 02 50
        E 0 92 3e 7f
        E 478 82 3e 00
        E 2 b2 02 50
        E 0 92 42 7f
        E 238 82 42 00
        E 242 b2 02 50
        E 0 92 45 7f
        E 238 82 45 00
        E 242 b2 02 50
        E 0 92 49 7f
        E 238 82 49 00
        E 242 b2 02 50
        E 0 92 4e 7f
        E 238 82 4e 00
        E 722 b2 02 50
        E 0 92 3b 7f
        E 478 82 3b 00
        E 2 b2 02 50
        E 0 92 40 7f
        E 238 82 40 00
        E 242 b2 02 50
        E 0 92 44 7f
        E 238 82 44 00
        E 242 b2 02 50
        E 0 92 47 7f
        E 238 82 47 00
        E 242 b2 02 50
        E 0 92 50 7f
        E 238 82 50 00
        E 722 b2 02 50
        E 0 92 3d 7f
        E 478 82 3d 00
        E 2 b2 02 50
        E 0 92 40 7f
        E 238 82 40 00
        E 242 b2 02 50
        E 0 92 45 7f
        E 238 82 45 00
        E 242 b2 02 50
        E 0 92 49 7f
        E 238 82 49 00
        E 242 b2 02 50
        E 0 92 51 7f
        E 238 82 51 00
        E 722 b2 02 50
        E 0 92 3e 7f
        E 478 82 3e 00
        E 2 b2 02 50
        E 0 92 43 7f
        E 238 82 43 00
        E 242 b2 02 50
        E 0 92 47 7f
        E 238 82 47 00
        E 242 b2 02 50
        E 0 92 4a 7f
        E 238 82 4a 00
        E 242 b2 02 50
        E 0 92 4f 7f
        E 238 82 4f 00
        E 722 b2 02 50
        E 0 92 3b 7f
        E 478 82 3b 00
        E 2 b2 02 50
        E 0 92 40 7f
        E 238 82 40 00
        E 242 b2 02 50
        E 0 92 44 7f
        E 238 82 44 00
        E 242 b2 02 50
        E 0 92 47 7f
        E 238 82 47 00
        E 242 b2 02 50
        E 0 92 50 7f
        E 238 82 50 00
        E 722 b2 02 50
        E 0 92 3d 7f
        E 478 82 3d 00
        E 2 b2 02 50
        E 0 92 40 7f
        E 238 82 40 00
        E 242 b2 02 50
        E 0 92 45 7f
        E 238 82 45 00
        E 242 b2 02 50
        E 0 92 49 7f
        E 238 82 49 00
        E 242 b2 02 50
        E 0 92 51 7f
        E 238 82 51 00
        E 46802 b2 02 50
        E 0 92 3d 7f
        E 478 82 3d 00
        E 2 b2 02 50
        E 0 92 40 7f
        E 238 82 40 00
        E 242 b2 02 50
        E 0 92 45 7f
        E 238 82 45 00
        E 242 b2 02 50
        E 0 92 49 7f
        E 238 82 49 00
        E 242 b2 02 50
        E 0 92 51 7f
        E 238 82 51 00
        E 722 b2 02 50
        E 0 92 3d 7f
        E 478 82 3d 00
        E 2 b2 02 50
        E 0 92 42 7f
        E 238 82 42 00
        E 242 b2 02 50
        E 0 92 45 7f
        E 238 82 45 00
        E 242 b2 02 50
        E 0 92 49 7f
        E 238 82 49 00
        E 242 b2 02 50
        E 0 92 4e 7f
        E 238 82 4e 00
        E 722 b2 02 50
        E 0 92 3b 7f
        E 478 82 3b 00
        E 2 b2 02 50
        E 0 92 40 7f
        E 238 82 40 00
        E 242 b2 02 50
        E 0 92 44 7f
        E 238 82 44 00
        E 242 b2 02 50
        E 0 92 47 7f
        E 238 82 47 00
        E 242 b2 02 50
        E 0 92 50 7f
        E 238 82 50 00
        E 722 b2 02 50
        E 0 92 3e 7f
        E 478 82 3e 00
        E 2 b2 02 50
        E 0 92 42 7f
        E 238 82 42 00
        E 242 b2 02 50
        E 0 92 44 7f
        E 238 82 44 00
        E 242 b2 02 50
        E 0 92 47 7f
        E 238 82 47 00
        E 242 b2 02 50
        E 0 92 50 7f
        E 238 82 50 00
        E 722 b2 02 50
        E 0 92 3d 7f
        E 478 82 3d 00
        E 2 b2 02 50
        E 0 92 40 7f
        E 238 82 40 00
        E 242 b2 02 50
        E 0 92 45 7f
        E 238 82 45 00
        E 242 b2 02 50
        E 0 92 49 7f
        E 238 82 49 00
        E 242 b2 02 50
        E 0 92 51 7f
        E 238 82 51 00
        E 722 b2 02 50
        E 0 92 3d 7f
        E 478 82 3d 00
        E 2 b2 02 50
        E 0 92 42 7f
        E 238 82 42 00
        E 242 b2 02 50
        E 0 92 45 7f
        E 238 82 45 00
        E 242 b2 02 50
        E 0 92 49 7f
        E 238 82 49 00
        E 242 b2 02 50
        E 0 92 4e 7f
        E 238 82 4e 00
        E 722 b2 02 50
        E 0 92 3e 7f
        E 478 82 3e 00
        E 2 b2 02 50
        E 0 92 42 7f
        E 238 82 42 00
        E 242 b2 02 50
        E 0 92 45 7f
        E 238 82 45 00
        E 242 b2 02 50
        E 0 92 49 7f
        E 238 82 49 00
        E 242 b2 02 50
        E 0 92 4e 7f
        E 238 82 4e 00
        E 722 b2 02 50
        E 0 92 3b 7f
        E 478 82 3b 00
        E 2 b2 02 50
        E 0 92 40 7f
        E 238 82 40 00
        E 242 b2 02 50
        E 0 92 44 7f
        E 238 82 44 00
        E 242 b2 02 50
        E 0 92 47 7f
        E 238 82 47 00
        E 242 b2 02 50
        E 0 92 50 7f
        E 238 82 50 00
        E 722 b2 02 50
        E 0 92 3d 7f
        E 478 82 3d 00
        E 2 b2 02 50
        E 0 92 40 7f
        E 238 82 40 00
        E 242 b2 02 50
        E 0 92 45 7f
        E 238 82 45 00
        E 242 b2 02 50
        E 0 92 49 7f
        E 238 82 49 00
        E 242 b2 02 50
        E 0 92 51 7f
        E 238 82 51 00
        E 722 b2 02 50
        E 0 92 3e 7f
        E 478 82 3e 00
        E 2 b2 02 50
        E 0 92 43 7f
        E 238 82 43 00
        E 242 b2 02 50
        E 0 92 47 7f
        E 238 82 47 00
        E 242 b2 02 50
        E 0 92 4a 7f
        E 238 82 4a 00
        E 242 b2 02 50
        E 0 92 4f 7f
        E 238 82 4f 00
        E 722 b2 02 50
        E 0 92 3e 7f
        E 478 82 3e 00
        E 2 b2 02 50
        E 0 92 42 7f
        E 238 82 42 00
        E 242 b2 02 50
        E 0 92 45 7f
        E 238 82 45 00
        E 242 b2 02 50
        E 0 92 49 7f
        E 238 82 49 00
        E 242 b2 02 50
        E 0 92 4e 7f
        E 238 82 4e 00
        E 722 b2 02 50
        E 0 92 3b 7f
        E 478 82 3b 00
        E 2 b2 02 50
        E 0 92 40 7f
        E 238 82 40 00
        E 242 b2 02 50
        E 0 92 44 7f
        E 238 82 44 00
        E 242 b2 02 50
        E 0 92 47 7f
        E 238 82 47 00
        E 242 b2 02 50
        E 0 92 50 7f
        E 238 82 50 00
        E 722 b2 02 50
        E 0 92 3d 7f
        E 478 82 3d 00
        E 2 b2 02 50
        E 0 92 40 7f
        E 238 82 40 00
        E 242 b2 02 50
        E 0 92 45 7f
        E 238 82 45 00
        E 242 b2 02 50
        E 0 92 49 7f
        E 238 82 49 00
        E 242 b2 02 50
        E 0 92 51 7f
        E 238 82 51 00
        E 722 b2 02 50
        E 0 92 3e 7f
        E 478 82 3e 00
        E 2 b2 02 50
        E 0 92 43 7f
        E 238 82 43 00
        E 242 b2 02 50
        E 0 92 47 7f
        E 238 82 47 00
        E 242 b2 02 50
        E 0 92 4a 7f
        E 238 82 4a 00
        E 242 b2 02 50
        E 0 92 4f 7f
        E 238 82 4f 00
        E 722 b2 02 50
        E 0 92 3b 7f
        E 478 82 3b 00
        E 2 b2 02 50
        E 0 92 40 7f
        E 238 82 40 00
        E 242 b2 02 50
        E 0 92 44 7f
        E 238 82 44 00
        E 242 b2 02 50
        E 0 92 47 7f
        E 238 82 47 00
        E 242 b2 02 50
        E 0 92 50 7f
        E 238 82 50 00
        E 722 b2 02 50
        E 0 92 3d 7f
        E 478 82 3d 00
        E 2 b2 02 50
        E 0 92 40 7f
        E 238 82 40 00
        E 242 b2 02 50
        E 0 92 45 7f
        E 238 82 45 00
        E 242 b2 02 50
        E 0 92 49 7f
        E 238 82 49 00
        E 242 b2 02 50
        E 0 92 51 7f
        E 238 82 51 00
        e 92402 b2 02 50
        e 0 92 58 71
        e 118 82 58 00
        e 122 b2 02 50
        e 0 92 4c 71
        e 118 82 4c 00
        e 122 b2 02 50
        e 0 92 54 71
        e 118 82 54 00
        e 122 b2 02 50
        e 0 92 48 71
        e 118 82 48 00
        e 122 b2 02 50
        e 0 92 51 71
        e 118 82 51 00
        e 122 b2 02 50
        e 0 92 45 71
        e 118 82 45 00
        e 122 b2 02 50
        e 0 92 4c 71
        e 118 82 4c 00
        e 122 b2 02 50
        e 0 92 40 71
        e 118 82 40 00
        e 122 b2 02 50
        e 0 92 51 71
        e 118 82 51 00
        e 122 b2 02 50
        e 0 92 45 71
        e 118 82 45 00
        e 122 b2 02 50
        e 0 92 4c 71
        e 118 82 4c 00
        e 122 b2 02 50
        e 0 92 40 71
        e 118 82 40 00
        e 122 b2 02 50
        e 0 92 56 71
        e 118 82 56 00
        e 122 b2 02 50
        e 0 92 4a 71
        e 118 82 4a 00
        e 122 b2 02 50
        e 0 92 53 71
        e 118 82 53 00
        e 122 b2 02 50
        e 0 92 47 71
        e 118 82 47 00
        e 122 b2 02 50
        e 0 92 4f 71
        e 118 82 4f 00
        e 122 b2 02 50
        e 0 92 43 71
        e 118 82 43 00
        e 122 b2 02 50
        e 0 92 4a 71
        e 118 82 4a 00
        e 122 b2 02 50
        e 0 92 3e 71
        e 118 82 3e 00
        e 122 b2 02 50
        e 0 92 4f 71
        e 118 82 4f 00
        e 122 b2 02 50
        e 0 92 43 71
        e 118 82 43 00
        e 122 b2 02 50
        e 0 92 53 71
        e 118 82 53 00
        e 122 b2 02 50
        e 0 92 47 71
        e 118 82 47 00
        e 122 b2 02 50
        e 0 92 51 71
        e 118 82 51 00
        e 122 b2 02 50
        e 0 92 45 71
        e 118 82 45 00
        e 122 b2 02 50
        e 0 92 54 71
        e 118 82 54 00
        e 122 b2 02 50
        e 0 92 48 71
        e 118 82 48 00
        e 122 b2 02 50
        e 0 92 58 71
        e 118 82 58 00
        e 122 b2 02 50
        e 0 92 4c 71
        e 118 82 4c 00
        e 122 b2 02 50
        e 0 92 51 71
        e 118 82 51 00
        e 122 b2 02 50
        e 0 92 45 71
        e 118 82 45 00
        e 122 b2 02 50
        e 0 92 4c 71
        e 118 82 4c 00
        e 122 b2 02 50
        e 0 92 40 71
        e 118 82 40 00
        e 122 b2 02 50
        e 0 92 51 71
        e 118 82 51 00
        e 122 b2 02 50
        e 0 92 45 71
        e 118 82 45 00
        e 122 b2 02 50
        e 0 92 56 71
        e 118 82 56 00
        e 122 b2 02 50
        e 0 92 4a 71
        e 118 82 4a 00
        e 122 b2 02 50
        e 0 92 51 71
        e 118 82 51 00
        e 122 b2 02 50
        e 0 92 45 71
        e 118 82 45 00
        e 122 b2 02 50
        e 0 92 4e 71
        e 118 82 4e 00
        e 122 b2 02 50
        e 0 92 42 71
        e 118 82 42 00
        e 122 b2 02 50
        e 0 92 51 71
        e 118 82 51 00
        e 122 b2 02 50
        e 0 92 45 71
        e 118 82 45 00
        e 122 b2 02 50
        e 0 92 4a 71
        e 118 82 4a 00
        e 122 b2 02 50
        e 0 92 3e 71
        e 118 82 3e 00
        e 122 b2 02 50
        e 0 92 51 71
        e 118 82 51 00
        e 122 b2 02 50
        e 0 92 45 71
        e 118 82 45 00
        e 122 b2 02 50
        e 0 92 58 71
        e 118 82 58 00
        e 122 b2 02 50
        e 0 92 4c 71
        e 118 82 4c 00
        e 122 b2 02 50
        e 0 92 54 71
        e 118 82 54 00
        e 122 b2 02 50
        e 0 92 48 71
        e 118 82 48 00
        e 122 b2 02 50
        e 0 92 51 71
        e 118 82 51 00
        e 122 b2 02 50
        e 0 92 45 71
        e 118 82 45 00
        e 122 b2 02 50
        e 0 92 4c 71
        e 118 82 4c 00
        e 122 b2 02 50
        e 0 92 40 71
        e 118 82 40 00
        e 122 b2 02 50
        e 0 92 51 71
        e 118 82 51 00
        e 122 b2 02 50
        e 0 92 45 71
        e 118 82 45 00
        e 122 b2 02 50
        e 0 92 4c 71
        e 118 82 4c 00
        e 122 b2 02 50
        e 0 92 40 71
        e 118 82 40 00
        e 122 b2 02 50
        e 0 92 56 71
        e 118 82 56 00
        e 122 b2 02 50
        e 0 92 4a 71
        e 118 82 4a 00
        e 122 b2 02 50
        e 0 92 53 71
        e 118 82 53 00
        e 122 b2 02 50
        e 0 92 47 71
        e 118 82 47 00
        e 122 b2 02 50
        e 0 92 4f 71
        e 118 82 4f 00
        e 122 b2 02 50
        e 0 92 43 71
        e 118 82 43 00
        e 122 b2 02 50
        e 0 92 4a 71
        e 118 82 4a 00
        e 122 b2 02 50
        e 0 92 3e 71
        e 118 82 3e 00
        e 122 b2 02 50
        e 0 92 4f 71
        e 118 82 4f 00
        e 122 b2 02 50
        e 0 92 43 71
        e 118 82 43 00
        e 122 b2 02 50
        e 0 92 53 71
        e 118 82 53 00
        e 122 b2 02 50
        e 0 92 47 71
        e 118 82 47 00
        e 122 b2 02 50
        e 0 92 56 71
        e 118 82 56 00
        e 122 b2 02 50
        e 0 92 4a 71
        e 118 82 4a 00
        e 122 b2 02 50
        e 0 92 51 71
        e 118 82 51 00
        e 122 b2 02 50
        e 0 92 45 71
        e 118 82 45 00
        e 122 b2 02 50
        e 0 92 4e 71
        e 118 82 4e 00
        e 122 b2 02 50
        e 0 92 42 71
        e 118 82 42 00
        e 122 b2 02 50
        e 0 92 51 71
        e 118 82 51 00
        e 122 b2 02 50
        e 0 92 45 71
        e 118 82 45 00
        e 122 b2 02 50
        e 0 92 4a 71
        e 118 82 4a 00
        e 122 b2 02 50
        e 0 92 3e 71
        e 118 82 3e 00
        e 122 b2 02 50
        e 0 92 51 71
        e 118 82 51 00
        e 122 b2 02 50
        e 0 92 45 71
        e 118 82 45 00
        e 122 b2 02 50
        e 0 92 56 71
        e 118 82 56 00
        e 122 b2 02 50
        e 0 92 4a 71
        e 118 82 4a 00
        e 122 b2 02 50
        e 0 92 51 71
        e 118 82 51 00
        e 122 b2 02 50
        e 0 92 45 71
        e 118 82 45 00
        e 122 b2 02 50
        e 0 92 4e 71
        e 118 82 4e 00
        e 122 b2 02 50
        e 0 92 42 71
        e 118 82 42 00
        e 122 b2 02 50
        e 0 92 51 71
        e 118 82 51 00
        e 122 b2 02 50
        e 0 92 45 71
        e 118 82 45 00
        e 122 b2 02 50
        e 0 92 4a 71
        e 118 82 4a 00
        e 122 b2 02 50
        e 0 92 3e 71
        e 118 82 3e 00
        e 122 b2 02 50
        e 0 92 51 71
        e 118 82 51 00
        e 122 b2 02 50
        e 0 92 45 71
        e 118 82 45 00
        e 122 b2 02 50
        e 0 92 58 71
        e 118 82 58 00
        e 122 b2 02 50
        e 0 92 4c 71
        e 118 82 4c 00
        e 122 b2 02 50
        e 0 92 54 71
        e 118 82 54 00
        e 122 b2 02 50
        e 0 92 48 71
        e 118 82 48 00
        e 122 b2 02 50
        e 0 92 51 71
        e 118 82 51 00
        e 122 b2 02 50
        e 0 92 45 71
        e 118 82 45 00
        e 122 b2 02 50
        e 0 92 4c 71
        e 118 82 4c 00
        e 122 b2 02 50
        e 0 92 40 71
        e 118 82 40 00
        e 122 b2 02 50
        e 0 92 51 71
        e 118 82 51 00
        e 122 b2 02 50
        e 0 92 45 71
        e 118 82 45 00
        e 122 b2 02 50
        e 0 92 4c 71
        e 118 82 4c 00
        e 122 b2 02 50
        e 0 92 40 71
        e 118 82 40 00
        e 122 b2 02 50
        e 0 92 56 71
        e 118 82 56 00
        e 122 b2 02 50
        e 0 92 4a 71
        e 118 82 4a 00
        e 122 b2 02 50
        e 0 92 53 71
        e 118 82 53 00
        e 122 b2 02 50
        e 0 92 47 71
        e 118 82 47 00
        e 122 b2 02 50
        e 0 92 4f 71
        e 118 82 4f 00
        e 122 b2 02 50
        e 0 92 43 71
        e 118 82 43 00
        e 122 b2 02 50
        e 0 92 4a 71
        e 118 82 4a 00
        e 122 b2 02 50
        e 0 92 3e 71
        e 118 82 3e 00
        e 122 b2 02 50
        e 0 92 4f 71
        e 118 82 4f 00
        e 122 b2 02 50
        e 0 92 43 71
        e 118 82 43 00
        e 122 b2 02 50
        e 0 92 53 71
        e 118 82 53 00
        e 122 b2 02 50
        e 0 92 47 71
        e 118 82 47 00
        e 122 b2 02 50
        e 0 92 51 71
        e 118 82 51 00
        e 122 b2 02 50
        e 0 92 45 71
        e 118 82 45 00
        e 122 b2 02 50
        e 0 92 54 71
        e 118 82 54 00
        e 122 b2 02 50
        e 0 92 48 71
        e 118 82 48 00
        e 122 b2 02 50
        e 0 92 58 71
        e 118 82 58 00
        e 122 b2 02 50
        e 0 92 4c 71
        e 118 82 4c 00
        e 122 b2 02 50
        e 0 92 51 71
        e 118 82 51 00
        e 122 b2 02 50
        e 0 92 45 71
        e 118 82 45 00
        e 122 b2 02 50
        e 0 92 4c 71
        e 118 82 4c 00
        e 122 b2 02 50
        e 0 92 40 71
        e 118 82 40 00
        e 122 b2 02 50
        e 0 92 51 71
        e 118 82 51 00
        e 122 b2 02 50
        e 0 92 45 71
        e 118 82 45 00
        e 122 b2 02 50
        e 0 92 56 71
        e 118 82 56 00
        e 122 b2 02 50
        e 0 92 4a 71
        e 118 82 4a 00
        e 122 b2 02 50
        e 0 92 51 71
        e 118 82 51 00
        e 122 b2 02 50
        e 0 92 45 71
        e 118 82 45 00
        e 122 b2 02 50
        e 0 92 4e 71
        e 118 82 4e 00
        e 122 b2 02 50
        e 0 92 42 71
        e 118 82 42 00
        e 122 b2 02 50
        e 0 92 51 71
        e 118 82 51 00
        e 122 b2 02 50
        e 0 92 45 71
        e 118 82 45 00
        e 122 b2 02 50
        e 0 92 4a 71
        e 118 82 4a 00
        e 122 b2 02 50
        e 0 92 3e 71
        e 118 82 3e 00
        e 122 b2 02 50
        e 0 92 4e 71
        e 118 82 4e 00
        e 122 b2 02 50
        e 0 92 42 71
        e 118 82 42 00
        e 122 b2 02 50
        e 0 92 51 71
        e 118 82 51 00
        e 122 b2 02 50
        e 0 92 45 71
        e 118 82 45 00
        e 122 b2 02 50
        e 0 92 4d 71
        e 118 82 4d 00
        e 122 b2 02 50
        e 0 92 41 71
        e 118 82 41 00
        e 122 b2 02 50
        e 0 92 48 71
        e 118 82 48 00
        e 122 b2 02 50
        e 0 92 3c 71
        e 118 82 3c 00
        e 122 b2 02 50
        e 0 92 51 71
        e 118 82 51 00
        e 122 b2 02 50
        e 0 92 45 71
        e 118 82 45 00
        e 122 b2 02 50
        e 0 92 4d 71
        e 118 82 4d 00
        e 122 b2 02 50
        e 0 92 41 71
        e 118 82 41 00
        e 122 b2 02 50
        e 0 92 51 71
        e 118 82 51 00
        e 122 b2 02 50
        e 0 92 45 71
        e 118 82 45 00
        e 122 b2 02 50
        e 0 92 4f 71
        e 118 82 4f 00
        e 122 b2 02 50
        e 0 92 43 71
        e 118 82 43 00
        e 122 b2 02 50
        e 0 92 4c 71
        e 118 82 4c 00
        e 122 b2 02 50
        e 0 92 40 71
        e 118 82 40 00
        e 122 b2 02 50
        e 0 92 47 71
        e 118 82 47 00
        e 122 b2 02 50
        e 0 92 3b 71
        e 118 82 3b 00
        e 122 b2 02 50
        e 0 92 4f 71
        e 118 82 4f 00
        e 122 b2 02 50
        e 0 92 43 71
        e 118 82 43 00
        e 122 b2 02 50
        e 0 92 4c 71
        e 118 82 4c 00
        e 122 b2 02 50
        e 0 92 40 71
        e 118 82 40 00
        e 122 b2 02 50
        e 0 92 4f 71
        e 118 82 4f 00
        e 122 b2 02 50
        e 0 92 43 71
        e 118 82 43 00
        e 122 b2 02 50
        e 0 92 56 71
        e 118 82 56 00
        e 122 b2 02 50
        e 0 92 4a 71
        e 118 82 4a 00
        e 122 b2 02 50
        e 0 92 51 71
        e 118 82 51 00
        e 122 b2 02 50
        e 0 92 45 71
        e 118 82 45 00
        e 122 b2 02 50
        e 0 92 4e 71
        e 118 82 4e 00
        e 122 b2 02 50
        e 0 92 42 71
        e 118 82 42 00
        e 122 b2 02 50
        e 0 92 51 71
        e 118 82 51 00
        e 122 b2 02 50
        e 0 92 45 71
        e 118 82 45 00
        e 122 b2 02 50
        e 0 92 4a 71
        e 118 82 4a 00
        e 122 b2 02 50
        e 0 92 3e 71
        e 118 82 3e 00
        e 122 b2 02 50
        e 0 92 51 71
        e 118 82 51 00
        e 122 b2 02 50
        e 0 92 45 71
        e 118 82 45 00
        e 122 b2 02 50
        e 0 92 56 71
        e 118 82 56 00
        e 122 b2 02 50
        e 0 92 4a 71
        e 118 82 4a 00
        e 122 b2 02 50
        e 0 92 51 71
        e 118 82 51 00
        e 122 b2 02 50
        e 0 92 45 71
        e 118 82 45 00
        e 122 b2 02 50
        e 0 92 4e 71
        e 118 82 4e 00
        e 122 b2 02 50
        e 0 92 42 71
        e 118 82 42 00
        e 122 b2 02 50
        e 0 92 51 71
        e 118 82 51 00
        e 122 b2 02 50
        e 0 92 45 71
        e 118 82 45 00
        e 122 b2 02 50
        e 0 92 4a 71
        e 118 82 4a 00
        e 122 b2 02 50
        e 0 92 3e 71
        e 118 82 3e 00
        e 122 b2 02 50
        e 0 92 51 71
        e 118 82 51 00
        e 122 b2 02 50
        e 0 92 45 71
        e 118 82 45 00
        e 122 b2 02 50
        e 0 92 58 71
        e 118 82 58 00
        e 122 b2 02 50
        e 0 92 4c 71
        e 118 82 4c 00
        e 122 b2 02 50
        e 0 92 54 71
        e 118 82 54 00
        e 122 b2 02 50
        e 0 92 48 71
        e 118 82 48 00
        e 122 b2 02 50
        e 0 92 51 71
        e 118 82 51 00
        e 122 b2 02 50
        e 0 92 45 71
        e 118 82 45 00
        e 122 b2 02 50
        e 0 92 4c 71
        e 118 82 4c 00
        e 122 b2 02 50
        e 0 92 40 71
        e 118 82 40 00
        e 122 b2 02 50
        e 0 92 51 71
        e 118 82 51 00
        e 122 b2 02 50
        e 0 92 45 71
        e 118 82 45 00
        e 122 b2 02 50
        e 0 92 4c 71
        e 118 82 4c 00
        e 122 b2 02 50
        e 0 92 40 71
        e 118 82 40 00
        e 122 b2 02 50
        e 0 92 56 71
        e 118 82 56 00
        e 122 b2 02 50
        e 0 92 4a 71
        e 118 82 4a 00
        e 122 b2 02 50
        e 0 92 53 71
        e 118 82 53 00
        e 122 b2 02 50
        e 0 92 47 71
        e 118 82 47 00
        e 122 b2 02 50
        e 0 92 4f 71
        e 118 82 4f 00
        e 122 b2 02 50
        e 0 92 43 71
        e 118 82 43 00
        e 122 b2 02 50
        e 0 92 4a 71
        e 118 82 4a 00
        e 122 b2 02 50
        e 0 92 3e 71
        e 118 82 3e 00
        e 122 b2 02 50
        e 0 92 4f 71
        e 118 82 4f 00
        e 122 b2 02 50
        e 0 92 43 71
        e 118 82 43 00
        e 122 b2 02 50
        e 0 92 53 71
        e 118 82 53 00
        e 122 b2 02 50
        e 0 92 47 71
        e 118 82 47 00
        e 122 b2 02 50
        e 0 92 51 71
        e 118 82 51 00
        e 122 b2 02 50
        e 0 92 45 71
        e 118 82 45 00
        e 122 b2 02 50
        e 0 92 54 71
        e 118 82 54 00
        e 122 b2 02 50
        e 0 92 48 71
        e 118 82 48 00
        e 122 b2 02 50
        e 0 92 58 71
        e 118 82 58 00
        e 122 b2 02 50
        e 0 92 4c 71
        e 118 82 4c 00
        e 122 b2 02 50
        e 0 92 51 71
        e 118 82 51 00
        e 122 b2 02 50
        e 0 92 45 71
        e 118 82 45 00
        e 122 b2 02 50
        e 0 92 4c 71
        e 118 82 4c 00
        e 122 b2 02 50
        e 0 92 40 71
        e 118 82 40 00
        e 122 b2 02 50
        e 0 92 51 71
        e 118 82 51 00
        e 122 b2 02 50
        e 0 92 45 71
        e 118 82 45 00
        e 122 b2 02 50
        e 0 92 56 71
        e 118 82 56 00
        e 122 b2 02 50
        e 0 92 4a 71
        e 118 82 4a 00
        e 122 b2 02 50
        e 0 92 51 71
        e 118 82 51 00
        e 122 b2 02 50
        e 0 92 45 71
        e 118 82 45 00
        e 122 b2 02 50
        e 0 92 4e 71
        e 118 82 4e 00
        e 122 b2 02 50
        e 0 92 42 71
        e 118 82 42 00
        e 122 b2 02 50
        e 0 92 51 71
        e 118 82 51 00
        e 122 b2 02 50
        e 0 92 45 71
        e 118 82 45 00
        e 122 b2 02 50
        e 0 92 4a 71
        e 118 82 4a 00
        e 122 b2 02 50
        e 0 92 3e 71
        e 118 82 3e 00
        e 122 b2 02 50
        e 0 92 51 71
        e 118 82 51 00
        e 122 b2 02 50
        e 0 92 45 71
        e 118 82 45 00
        e 122 b2 02 50
        e 0 92 58 71
        e 118 82 58 00
        e 122 b2 02 50
        e 0 92 4c 71
        e 118 82 4c 00
        e 122 b2 02 50
        e 0 92 54 71
        e 118 82 54 00
        e 122 b2 02 50
        e 0 92 48 71
        e 118 82 48 00
        e 122 b2 02 50
        e 0 92 51 71
        e 118 82 51 00
        e 122 b2 02 50
        e 0 92 45 71
        e 118 82 45 00
        e 122 b2 02 50
        e 0 92 4c 71
        e 118 82 4c 00
        e 122 b2 02 50
        e 0 92 40 71
        e 118 82 40 00
        e 122 b2 02 50
        e 0 92 51 71
        e 118 82 51 00
        e 122 b2 02 50
        e 0 92 45 71
        e 118 82 45 00
        e 122 b2 02 50
        e 0 92 4c 71
        e 118 82 4c 00
        e 122 b2 02 50
        e 0 92 40 71
        e 118 82 40 00
        e 122 b2 02 50
        e 0 92 56 71
        e 118 82 56 00
        e 122 b2 02 50
        e 0 92 4a 71
        e 118 82 4a 00
        e 122 b2 02 50
        e 0 92 53 71
        e 118 82 53 00
        e 122 b2 02 50
        e 0 92 47 71
        e 118 82 47 00
        e 122 b2 02 50
        e 0 92 4f 71
        e 118 82 4f 00
        e 122 b2 02 50
        e 0 92 43 71
        e 118 82 43 00
        e 122 b2 02 50
        e 0 92 4a 71
        e 118 82 4a 00
        e 122 b2 02 50
        e 0 92 3e 71
        e 118 82 3e 00
        e 122 b2 02 50
        e 0 92 4f 71
        e 118 82 4f 00
        e 122 b2 02 50
        e 0 92 43 71
        e 118 82 43 00
        e 122 b2 02 50
        e 0 92 53 71
        e 118 82 53 00
        e 122 b2 02 50
        e 0 92 47 71
        e 118 82 47 00
        e 122 b2 02 50
        e 0 92 56 71
        e 118 82 56 00
        e 122 b2 02 50
        e 0 92 4a 71
        e 118 82 4a 00
        e 122 b2 02 50
        e 0 92 51 71
        e 118 82 51 00
        e 122 b2 02 50
        e 0 92 45 71
        e 118 82 45 00
        e 122 b2 02 50
        e 0 92 4e 71
        e 118 82 4e 00
        e 122 b2 02 50
        e 0 92 42 71
        e 118 82 42 00
        e 122 b2 02 50
        e 0 92 51 71
        e 118 82 51 00
        e 122 b2 02 50
        e 0 92 45 71
        e 118 82 45 00
        e 122 b2 02 50
        e 0 92 4a 71
        e 118 82 4a 00
        e 122 b2 02 50
        e 0 92 3e 71
        e 118 82 3e 00
        e 122 b2 02 50
        e 0 92 51 71
        e 118 82 51 00
        e 122 b2 02 50
        e 0 92 45 71
        e 118 82 45 00
        e 122 b2 02 50
        e 0 92 56 71
        e 118 82 56 00
        e 122 b2 02 50
        e 0 92 4a 71
        e 118 82 4a 00
        e 122 b2 02 50
        e 0 92 51 71
        e 118 82 51 00
        e 122 b2 02 50
        e 0 92 45 71
        e 118 82 45 00
        e 122 b2 02 50
        e 0 92 4e 71
        e 118 82 4e 00
        e 122 b2 02 50
        e 0 92 42 71
        e 118 82 42 00
        e 122 b2 02 50
        e 0 92 51 71
        e 118 82 51 00
        e 122 b2 02 50
        e 0 92 45 71
        e 118 82 45 00
        e 122 b2 02 50
        e 0 92 4a 71
        e 118 82 4a 00
        e 122 b2 02 50
        e 0 92 3e 71
        e 118 82 3e 00
        e 122 b2 02 50
        e 0 92 51 71
        e 118 82 51 00
        e 122 b2 02 50
        e 0 92 45 71
        e 118 82 45 00
        e 122 b2 02 50
        e 0 92 58 71
        e 118 82 58 00
        e 122 b2 02 50
        e 0 92 4c 71
        e 118 82 4c 00
        e 122 b2 02 50
        e 0 92 54 71
        e 118 82 54 00
        e 122 b2 02 50
        e 0 92 48 71
        e 118 82 48 00
        e 122 b2 02 50
        e 0 92 51 71
        e 118 82 51 00
        e 122 b2 02 50
        e 0 92 45 71
        e 118 82 45 00
        e 122 b2 02 50
        e 0 92 4c 71
        e 118 82 4c 00
        e 122 b2 02 50
        e 0 92 40 71
        e 118 82 40 00
        e 122 b2 02 50
        e 0 92 51 71
        e 118 82 51 00
        e 122 b2 02 50
        e 0 92 45 71
        e 118 82 45 00
        e 122 b2 02 50
        e 0 92 4c 71
        e 118 82 4c 00
        e 122 b2 02 50
        e 0 92 40 71
        e 118 82 40 00
        e 122 b2 02 50
        e 0 92 56 71
        e 118 82 56 00
        e 122 b2 02 50
        e 0 92 4a 71
        e 118 82 4a 00
        e 122 b2 02 50
        e 0 92 53 71
        e 118 82 53 00
        e 122 b2 02 50
        e 0 92 47 71
        e 118 82 47 00
        e 122 b2 02 50
        e 0 92 4f 71
        e 118 82 4f 00
        e 122 b2 02 50
        e 0 92 43 71
        e 118 82 43 00
        e 122 b2 02 50
        e 0 92 4a 71
        e 118 82 4a 00
        e 122 b2 02 50
        e 0 92 3e 71
        e 118 82 3e 00
        e 122 b2 02 50
        e 0 92 4f 71
        e 118 82 4f 00
        e 122 b2 02 50
        e 0 92 43 71
        e 118 82 43 00
        e 122 b2 02 50
        e 0 92 53 71
        e 118 82 53 00
        e 122 b2 02 50
        e 0 92 47 71
        e 118 82 47 00
        e 122 b2 02 50
        e 0 92 51 71
        e 118 82 51 00
        e 122 b2 02 50
        e 0 92 45 71
        e 118 82 45 00
        e 122 b2 02 50
        e 0 92 54 71
        e 118 82 54 00
        e 122 b2 02 50
        e 0 92 48 71
        e 118 82 48 00
        e 122 b2 02 50
        e 0 92 58 71
        e 118 82 58 00
        e 122 b2 02 50
        e 0 92 4c 71
        e 118 82 4c 00
        e 122 b2 02 50
        e 0 92 51 71
        e 118 82 51 00
        e 122 b2 02 50
        e 0 92 45 71
        e 118 82 45 00
        e 122 b2 02 50
        e 0 92 4c 71
        e 118 82 4c 00
        e 122 b2 02 50
        e 0 92 40 71
        e 118 82 40 00
        e 122 b2 02 50
        e 0 92 51 71
        e 118 82 51 00
        e 122 b2 02 50
        e 0 92 45 71
        e 118 82 45 00
        e 122 b2 02 50
        e 0 92 56 71
        e 118 82 56 00
        e 122 b2 02 50
        e 0 92 4a 71
        e 118 82 4a 00
        e 122 b2 02 50
        e 0 92 51 71
        e 118 82 51 00
        e 122 b2 02 50
        e 0 92 45 71
        e 118 82 45 00
        e 122 b2 02 50
        e 0 92 4e 71
        e 118 82 4e 00
        e 122 b2 02 50
        e 0 92 42 71
        e 118 82 42 00
        e 122 b2 02 50
        e 0 92 51 71
        e 118 82 51 00
        e 122 b2 02 50
        e 0 92 45 71
        e 118 82 45 00
        e 122 b2 02 50
        e 0 92 4a 71
        e 118 82 4a 00
        e 122 b2 02 50
        e 0 92 3e 71
        e 118 82 3e 00
        e 122 b2 02 50
        e 0 92 4e 71
        e 118 82 4e 00
        e 122 b2 02 50
        e 0 92 42 71
        e 118 82 42 00
        e 122 b2 02 50
        e 0 92 51 71
        e 118 82 51 00
        e 122 b2 02 50
        e 0 92 45 71
        e 118 82 45 00
        e 122 b2 02 50
        e 0 92 4d 71
        e 118 82 4d 00
        e 122 b2 02 50
        e 0 92 41 71
        e 118 82 41 00
        e 122 b2 02 50
        e 0 92 48 71
        e 118 82 48 00
        e 122 b2 02 50
        e 0 92 3c 71
        e 118 82 3c 00
        e 122 b2 02 50
        e 0 92 51 71
        e 118 82 51 00
        e 122 b2 02 50
        e 0 92 45 71
        e 118 82 45 00
        e 122 b2 02 50
        e 0 92 4d 71
        e 118 82 4d 00
        e 122 b2 02 50
        e 0 92 41 71
        e 118 82 41 00
        e 122 b2 02 50
        e 0 92 51 71
        e 118 82 51 00
        e 122 b2 02 50
        e 0 92 45 71
        e 118 82 45 00
        e 122 b2 02 50
        e 0 92 4f 71
        e 118 82 4f 00
        e 122 b2 02 50
        e 0 92 43 71
        e 118 82 43 00
        e 122 b2 02 50
        e 0 92 4c 71
        e 118 82 4c 00
        e 122 b2 02 50
        e 0 92 40 71
        e 118 82 40 00
        e 122 b2 02 50
        e 0 92 47 71
        e 118 82 47 00
        e 122 b2 02 50
        e 0 92 3b 71
        e 118 82 3b 00
        e 122 b2 02 50
        e 0 92 4f 71
        e 118 82 4f 00
        e 122 b2 02 50
        e 0 92 43 71
        e 118 82 43 00
        e 122 b2 02 50
        e 0 92 4c 71
        e 118 82 4c 00
        e 122 b2 02 50
        e 0 92 40 71
        e 118 82 40 00
        e 122 b2 02 50
        e 0 92 4f 71
        e 118 82 4f 00
        e 122 b2 02 50
        e 0 92 43 71
        e 118 82 43 00
        e 122 b2 02 50
        e 0 92 43 71
        e 118 82 43 00
        e 122 b2 02 50
        e 0 92 37 71
        e 118 82 37 00
        e 122 b2 02 50
        e 0 92 45 71
        e 118 82 45 00
        e 122 b2 02 50
        e 0 92 39 71
        e 118 82 39 00
        e 122 b2 02 50
        e 0 92 4a 71
        e 118 82 4a 00
        e 122 b2 02 50
        e 0 92 3e 71
        e 118 82 3e 00
        e 122 b2 02 50
        e 0 92 4f 71
        e 118 82 4f 00
        e 122 b2 02 50
        e 0 92 43 71
        e 118 82 43 00
        e 122 b2 02 50
        e 0 92 51 71
        e 118 82 51 00
        e 122 b2 02 50
        e 0 92 45 71
        e 118 82 45 00
        e 122 b2 02 50
        e 0 92 56 71
        e 118 82 56 00
        e 122 b2 02 50
        e 0 92 4a 71
        e 118 82 4a 00
        e 122 b2 02 50
        e 0 92 43 71
        e 118 82 43 00
        e 122 b2 02 50
        e 0 92 37 71
        e 118 82 37 00
        e 122 b2 02 50
        e 0 92 45 71
        e 118 82 45 00
        e 122 b2 02 50
        e 0 92 39 71
        e 118 82 39 00
        e 122 b2 02 50
        e 0 92 4a 71
        e 118 82 4a 00
        e 122 b2 02 50
        e 0 92 3e 71
        e 118 82 3e 00
        e 122 b2 02 50
        e 0 92 4f 71
        e 118 82 4f 00
        e 122 b2 02 50
        e 0 92 43 71
        e 118 82 43 00
        e 122 b2 02 50
        e 0 92 51 71
        e 118 82 51 00
        e 122 b2 02 50
        e 0 92 45 71
        e 118 82 45 00
        e 122 b2 02 50
        e 0 92 56 71
        e 118 82 56 00
        e 122 b2 02 50
        e 0 92 4a 71
        e 118 82 4a 00
        e 122 b2 02 50
        e 0 92 4e 71
        e 118 82 4e 00
        e 122 b2 02 50
        e 0 92 45 71
        e 118 82 45 00
        e 122 b2 02 50
        e 0 92 4e 71
        e 118 82 4e 00
        e 122 b2 02 50
        e 0 92 45 71
        e 118 82 45 00
        e 122 b2 02 50
        e 0 92 4e 71
        e 118 82 4e 00
        e 122 b2 02 50
        e 0 92 45 71
        e 118 82 45 00
        e 122 b2 02 50
        e 0 92 4e 71
        e 118 82 4e 00
        e 122 b2 02 50
        e 0 92 45 71
        e 118 82 45 00
        e 122 b2 02 50
        e 0 92 4e 71
        e 118 82 4e 00
        e 122 b2 02 50
        e 0 92 45 71
        e 118 82 45 00
        e 122 b2 02 50
        e 0 92 4e 71
        e 118 82 4e 00
        e 122 b2 02 50
        e 0 92 45 71
        e 118 82 45 00
        E 3002 b0 7b 00
        CCINTERP 32
        CHASE_CC_TAKEOFFS 1
        GUID {3AD893F4-3B7B-46CC-9AE3-D607E1EA1048}
        IGNTEMPO 0 120 4 4
        SRCCOLOR 280
        VELLANE -1 150 0 0 1
        CFGEDITVIEW 36586.68274 0.04874 27 12 0 -1 0 0 0 0.5
        KEYSNAP 0
        TRACKSEL 0
        EVTFILTER 0 -1 -1 -1 -1 0 0 0 0 -1 -1 -1 -1 0 -1 0 -1 -1
        CFGEDIT 1 1 0 1 0 0 1 1 1 1 1 0.02083333 2584 183 3555 777 0 0 0 1 0.08333333 0 0 1 0 0.5 0 0 1 64
      >
    >
  >
  <TRACK {60A5B8D2-F22D-48B6-841A-543AAB44559B}
    NAME Horn
    PEAKCOL 16576
    BEAT -1
    AUTOMODE 0
    VOLPAN 1.26386553538292 0 -1 -1 1
    MUTESOLO 0 0 0
    IPHASE 0
    PLAYOFFS 0 1
    ISBUS 0 0
    BUSCOMP 0 0 0 0 0
    SHOWINMIX 1 0.6667 0.5 1 0.5 0 0 0
    FIXEDLANES 9 0 0
    SEL 0
    REC 0 0 1 0 0 0 0 0
    VU 2
    TRACKHEIGHT 0 0 0 0 0 0 0
    INQ 0 0 0 0.5 100 0 0 100
    NCHAN 2
    FX 1
    TRACKID {60A5B8D2-F22D-48B6-841A-543AAB44559B}
    PERF 0
    MIDIOUT -1
    MAINSEND 1 0
    <FXCHAIN
      WNDRECT 1944 155 655 408
      SHOW 0
      LASTSEL 0
      DOCKED 0
      BYPASS 0 0 0
      <VST "VSTi: sforzando (x86) (Plogue Art et Technologie, Inc)" "sforzando VST_x86.dll" 0 "" 1347176273<565354504C475173666F727A616E646F> ""
        UUdMUO5e7f4AAAAAAgAAAAEAAAAAAAAAAgAAAAAAAAD4AQAAAQAAAAAAEAA=
        Q0VHUDYFAAB4nI2U32+bMBDH3yftf7D8tElrsQlNFglWZWu28RCtEu0zOsBJUf0jAxt1//0OkgCqWkFe4L7++Oz7krvw9kVJ0oiqLo2OKL9mlNx++/gh3FQlJNCI0dp6
        taLkWJnC5Ta+Q4HxgCJL8BcmwtpSH2ry14Es7T9cpqS2lQCFckQXPiUKXpJO2Uhp8t33iN5wlHfxXfzH2Z0pRLcLnDUKLB6aSGMjysaSFI2QES015nZKaEuJLBtx2oxk
        nWPW9gESUODkioj2Std1Ls/yD9wlqoguET9Ik4F8cLq7JApeXxCeTcqiEzUozF7vfe/ePAtldLpVogJZpIlxutgbbdNPj8cCrCjSjTu42qZ88SX1mc8/p+0+xpjHliz9
        WQmdP6W/TaUpyUA/x3hCgKt0MBrf8yfQuq3zCv04Gol2LgNK7HDPY5ZWoA/ijFgM6m5BjV5NbvET9r5gBuVsF5+r7CrdQakvlTYg3ekreG8ivEfYe4g/jSymkWAauZlG
        ltPIahr5Oo2spxHOZjAz/OUzDOYzHOYzLObve3wPFahXDr7+2wwMX/C3qNBr2+wSbPd7kdtx4527+dR/G5WV2D1iaJxuAo0nVLDuJlTej4P+oF+P8SUp5BYnRjwMly7e
        9nEtJF5DFA+QnbqrTRJ6l4mIwX9z62Ot
        AAAQAAAA
      >
      FLOATPOS 0 0 0 0
      FXID {EF9B645E-BCC9-4808-B2C6-5D314374C916}
      WAK 0 0
    >
    <ITEM
      POSITION 0
      SNAPOFFS 0
      LENGTH 196.8
      LOOP 1
      ALLTAKES 0
      FADEIN 1 0 0 1 0 0 0
      FADEOUT 1 0 0 1 0 0 0
      MUTE 0 0
      SEL 0
      IGUID {64DEC37A-0ACA-4392-A5B5-A2C836CA34BC}
      IID 6
      NAME "Sleigh Bells - mus_downstream.mid [chan 4]"
      VOLPAN 1 0 1 -1
      SOFFS 0 0
      PLAYRATE 1 1 0 -1 0 0.0025
      CHANMODE 0
      GUID {B01723E8-CF33-4FF6-8541-E65A8EDC9926}
      <SOURCE MIDI
        HASDATA 1 960 QN
        CCINTERP 32
        POOLEDEVTS {FFD84DD9-C1B6-43F6-99D9-17928BCF13CD}
        E 0 c3 3c 00
        E 0 b3 07 7f
        E 0 b3 64 00
        E 0 b3 65 00
        E 0 b3 06 0c
        E 0 b3 64 7f
        E 0 b3 65 7f
        E 0 b3 0a 40
        E 0 b3 5b 00
        E 0 b3 5d 00
        E 0 b3 79 00
        E 280320 b3 02 50
        E 0 93 39 7f
        E 958 83 39 00
        E 2 b3 02 50
        E 0 93 3b 7f
        E 478 83 3b 00
        E 482 b3 02 50
        E 0 93 3c 7f
        E 1438 83 3c 00
        E 2 b3 02 50
        E 0 93 3b 7f
        E 478 83 3b 00
        E 2 b3 02 50
        E 0 93 3c 7f
        E 958 83 3c 00
        E 2 b3 02 50
        E 0 93 3e 7f
        E 1438 83 3e 00
        E 2 b3 02 50
        E 0 93 3c 7f
        E 478 83 3c 00
        E 2 b3 02 50
        E 0 93 3e 7f
        E 958 83 3e 00
        E 2 b3 02 50
        E 0 93 3e 7f
        E 478 83 3e 00
        E 2 b3 02 50
        E 0 93 40 7f
        E 958 83 40 00
        E 2 b3 02 50
        E 0 93 3e 7f
        E 238 83 3e 00
        E 242 b3 02 50
        E 0 93 3c 7f
        E 958 83 3c 00
        E 2 b3 02 50
        E 0 93 39 7f
        E 1438 83 39 00
        E 2 b3 02 50
        E 0 93 3c 7f
        E 478 83 3c 00
        E 2 b3 02 50
        E 0 93 40 7f
        E 958 83 40 00
        E 2 b3 02 50
        E 0 93 43 7f
        E 1438 83 43 00
        E 2 b3 02 50
        E 0 93 45 7f
        E 478 83 45 00
        E 2 b3 02 50
        E 0 93 43 7f
        E 958 83 43 00
        E 2 b3 02 50
        E 0 93 42 7f
        E 1438 83 42 00
        E 2 b3 02 50
        E 0 93 43 7f
        E 478 83 43 00
        E 2 b3 02 50
        E 0 93 42 7f
        E 958 83 42 00
        E 2 b3 02 50
        E 0 93 42 7f
        E 478 83 42 00
        E 482 b3 02 50
        E 0 93 40 7f
        E 1438 83 40 00
        E 2 b3 02 50
        E 0 93 3e 7f
        E 478 83 3e 00
        E 2 b3 02 50
        E 0 93 40 7f
        E 958 83 40 00
        E 2 b3 02 50
        E 0 93 39 7f
        E 958 83 39 00
        E 2 b3 02 50
        E 0 93 3b 7f
        E 478 83 3b 00
        E 482 b3 02 50
        E 0 93 3c 7f
        E 1438 83 3c 00
        E 2 b3 02 50
        E 0 93 3b 7f
        E 478 83 3b 00
        E 2 b3 02 50
        E 0 93 3c 7f
        E 958 83 3c 00
        E 2 b3 02 50
        E 0 93 3e 7f
        E 1438 83 3e 00
        E 2 b3 02 50
        E 0 93 3c 7f
        E 478 83 3c 00
        E 2 b3 02 50
        E 0 93 3e 7f
        E 958 83 3e 00
        E 2 b3 02 50
        E 0 93 3e 7f
        E 478 83 3e 00
        E 2 b3 02 50
        E 0 93 40 7f
        E 958 83 40 00
        E 2 b3 02 50
        E 0 93 3e 7f
        E 238 83 3e 00
        E 242 b3 02 50
        E 0 93 3c 7f
        E 958 83 3c 00
        E 2 b3 02 50
        E 0 93 39 7f
        E 1438 83 39 00
        E 2 b3 02 50
        E 0 93 3c 7f
        E 478 83 3c 00
        E 2 b3 02 50
        E 0 93 3e 7f
        E 958 83 3e 00
        E 2 b3 02 50
        E 0 93 3c 7f
        E 1438 83 3c 00
        E 2 b3 02 50
        E 0 93 3b 7f
        E 478 83 3b 00
        E 2 b3 02 50
        E 0 93 39 7f
        E 958 83 39 00
        E 2 b3 02 50
        E 0 93 37 7f
        E 1438 83 37 00
        E 2 b3 02 50
        E 0 93 39 7f
        E 478 83 39 00
        E 2 b3 02 50
        E 0 93 3b 7f
        E 958 83 3b 00
        E 2 b3 02 50
        E 0 93 39 7f
        E 958 83 39 00
        E 962 b3 02 50
        E 0 93 39 7f
        E 1918 83 39 00
        E 2 b3 02 50
        E 0 93 39 7f
        E 958 83 39 00
        E 2 b3 02 50
        E 0 93 3b 7f
        E 958 83 3b 00
        E 2 b3 02 50
        E 0 93 3c 7f
        E 1438 83 3c 00
        E 2 b3 02 50
        E 0 93 3b 7f
        E 478 83 3b 00
        E 2 b3 02 50
        E 0 93 3c 7f
        E 958 83 3c 00
        E 2 b3 02 50
        E 0 93 3e 7f
        E 1438 83 3e 00
        E 2 b3 02 50
        E 0 93 3c 7f
        E 478 83 3c 00
        E 2 b3 02 50
        E 0 93 3e 7f
        E 958 83 3e 00
        E 2 b3 02 50
        E 0 93 3e 7f
        E 478 83 3e 00
        E 2 b3 02 50
        E 0 93 40 7f
        E 958 83 40 00
        E 2 b3 02 50
        E 0 93 3e 7f
        E 238 83 3e 00
        E 242 b3 02 50
        E 0 93 3c 7f
        E 958 83 3c 00
        E 2 b3 02 50
        E 0 93 39 7f
        E 1438 83 39 00
        E 2 b3 02 50
        E 0 93 3c 7f
        E 478 83 3c 00
        E 2 b3 02 50
        E 0 93 40 7f
        E 958 83 40 00
        E 2 b3 02 50
        E 0 93 43 7f
        E 1438 83 43 00
        E 2 b3 02 50
        E 0 93 45 7f
        E 478 83 45 00
        E 2 b3 02 50
        E 0 93 43 7f
        E 958 83 43 00
        E 2 b3 02 50
        E 0 93 42 7f
        E 1438 83 42 00
        E 2 b3 02 50
        E 0 93 43 7f
        E 478 83 43 00
        E 2 b3 02 50
        E 0 93 42 7f
        E 958 83 42 00
        E 2 b3 02 50
        E 0 93 42 7f
        E 478 83 42 00
        E 482 b3 02 50
        E 0 93 40 7f
        E 1438 83 40 00
        E 2 b3 02 50
        E 0 93 3e 7f
        E 478 83 3e 00
        E 2 b3 02 50
        E 0 93 40 7f
        E 958 83 40 00
        E 2 b3 02 50
        E 0 93 39 7f
        E 958 83 39 00
        E 2 b3 02 50
        E 0 93 3b 7f
        E 958 83 3b 00
        E 2 b3 02 50
        E 0 93 3c 7f
        E 1438 83 3c 00
        E 2 b3 02 50
        E 0 93 3b 7f
        E 478 83 3b 00
        E 2 b3 02 50
        E 0 93 3c 7f
        E 958 83 3c 00
        E 2 b3 02 50
        E 0 93 3e 7f
        E 1438 83 3e 00
        E 2 b3 02 50
        E 0 93 3c 7f
        E 478 83 3c 00
        E 2 b3 02 50
        E 0 93 3e 7f
        E 958 83 3e 00
        E 2 b3 02 50
        E 0 93 3e 7f
        E 478 83 3e 00
        E 2 b3 02 50
        E 0 93 40 7f
        E 238 83 40 00
        E 242 b3 02 50
        E 0 93 40 7f
        E 478 83 40 00
        E 2 b3 02 50
        E 0 93 3e 7f
        E 238 83 3e 00
        E 242 b3 02 50
        E 0 93 3c 7f
        E 958 83 3c 00
        E 2 b3 02 50
        E 0 93 39 7f
        E 1438 83 39 00
        E 2 b3 02 50
        E 0 93 3c 7f
        E 478 83 3c 00
        E 2 b3 02 50
        E 0 93 3e 7f
        E 958 83 3e 00
        E 2 b3 02 50
        E 0 93 3c 7f
        E 1438 83 3c 00
        E 2 b3 02 50
        E 0 93 3b 7f
        E 478 83 3b 00
        E 2 b3 02 50
        E 0 93 39 7f
        E 958 83 39 00
        E 2 b3 02 50
        E 0 93 37 7f
        E 1438 83 37 00
        E 2 b3 02 50
        E 0 93 39 7f
        E 478 83 39 00
        E 2 b3 02 50
        E 0 93 3b 7f
        E 958 83 3b 00
        E 2 b3 02 50
        E 0 93 39 7f
        E 958 83 39 00
        E 962 b3 02 50
        E 0 93 39 7f
        E 1918 83 39 00
        E 2 b3 02 50
        E 0 93 40 7f
        E 478 83 40 00
        E 2 b3 02 50
        E 0 93 3e 7f
        E 238 83 3e 00
        E 242 b3 02 50
        E 0 93 3c 7f
        E 238 83 3c 00
        E 242 b3 02 50
        E 0 93 3b 7f
        E 238 83 3b 00
        E 242 b3 02 50
        E 0 93 39 7f
        E 1918 83 39 00
        E 2 b3 02 50
        E 0 93 3b 7f
        E 958 83 3b 00
        E 2 b3 02 50
        E 0 93 37 7f
        E 1918 83 37 00
        E 2 b3 02 50
        E 0 93 3b 7f
        E 958 83 3b 00
        E 2 b3 02 50
        E 0 93 39 7f
        E 1438 83 39 00
        E 2 b3 02 50
        E 0 93 3b 7f
        E 478 83 3b 00
        E 2 b3 02 50
        E 0 93 3c 7f
        E 958 83 3c 00
        E 2 b3 02 50
        E 0 93 3c 7f
        E 478 83 3c 00
        E 2 b3 02 50
        E 0 93 3e 7f
        E 958 83 3e 00
        E 2 b3 02 50
        E 0 93 3c 7f
        E 238 83 3c 00
        E 242 b3 02 50
        E 0 93 3b 7f
        E 958 83 3b 00
        E 2 b3 02 50
        E 0 93 39 7f
        E 1918 83 39 00
        E 2 b3 02 50
        E 0 93 3b 7f
        E 958 83 3b 00
        E 2 b3 02 50
        E 0 93 37 7f
        E 1918 83 37 00
        E 2 b3 02 50
        E 0 93 3b 7f
        E 958 83 3b 00
        E 2 b3 02 50
        E 0 93 3b 7f
        E 478 83 3b 00
        E 482 b3 02 50
        E 0 93 39 7f
        E 1438 83 39 00
        E 2 b3 02 50
        E 0 93 37 7f
        E 478 83 37 00
        E 2 b3 02 50
        E 0 93 39 7f
        E 958 83 39 00
        E 2 b3 02 50
        E 0 93 40 7f
        E 478 83 40 00
        E 2 b3 02 50
        E 0 93 3e 7f
        E 238 83 3e 00
        E 242 b3 02 50
        E 0 93 3c 7f
        E 238 83 3c 00
        E 242 b3 02 50
        E 0 93 3b 7f
        E 238 83 3b 00
        E 242 b3 02 50
        E 0 93 39 7f
        E 478 83 39 00
        E 482 b3 02 50
        E 0 93 39 7f
        E 958 83 39 00
        E 2 b3 02 50
        E 0 93 3b 7f
        E 958 83 3b 00
        E 2 b3 02 50
        E 0 93 37 7f
        E 1918 83 37 00
        E 2 b3 02 50
        E 0 93 3b 7f
        E 958 83 3b 00
        E 2 b3 02 50
        E 0 93 39 7f
        E 478 83 39 00
        E 482 b3 02 50
        E 0 93 39 7f
        E 478 83 39 00
        E 2 b3 02 50
        E 0 93 3b 7f
        E 478 83 3b 00
        E 2 b3 02 50
        E 0 93 3c 7f
        E 958 83 3c 00
        E 2 b3 02 50
        E 0 93 3c 7f
        E 478 83 3c 00
        E 2 b3 02 50
        E 0 93 3e 7f
        E 958 83 3e 00
        E 2 b3 02 50
        E 0 93 3c 7f
        E 238 83 3c 00
        E 242 b3 02 50
        E 0 93 3b 7f
        E 958 83 3b 00
        E 2 b3 02 50
        E 0 93 3c 7f
        E 1438 83 3c 00
        E 2 b3 02 50
        E 0 93 3b 7f
        E 478 83 3b 00
        E 2 b3 02 50
        E 0 93 39 7f
        E 958 83 39 00
        E 2 b3 02 50
        E 0 93 3b 7f
        E 1438 83 3b 00
        E 2 b3 02 50
        E 0 93 39 7f
        E 478 83 39 00
        E 2 b3 02 50
        E 0 93 37 7f
        E 958 83 37 00
        E 2 b3 02 50
        E 0 93 37 7f
        E 478 83 37 00
        E 482 b3 02 50
        E 0 93 39 7f
        E 2878 83 39 00
        E 2 b3 02 50
        E 0 93 40 7f
        E 478 83 40 00
        E 2 b3 02 50
        E 0 93 3e 7f
        E 238 83 3e 00
        E 242 b3 02 50
        E 0 93 3c 7f
        E 238 83 3c 00
        E 242 b3 02 50
        E 0 93 3b 7f
        E 238 83 3b 00
        E 242 b3 02 50
        E 0 93 39 7f
        E 1918 83 39 00
        E 2 b3 02 50
        E 0 93 3b 7f
        E 958 83 3b 00
        E 2 b3 02 50
        E 0 93 37 7f
        E 1918 83 37 00
        E 2 b3 02 50
        E 0 93 3b 7f
        E 958 83 3b 00
        E 2 b3 02 50
        E 0 93 39 7f
        E 478 83 39 00
        E 482 b3 02 50
        E 0 93 39 7f
        E 478 83 39 00
        E 2 b3 02 50
        E 0 93 3b 7f
        E 478 83 3b 00
        E 2 b3 02 50
        E 0 93 3c 7f
        E 958 83 3c 00
        E 2 b3 02 50
        E 0 93 3c 7f
        E 478 83 3c 00
        E 2 b3 02 50
        E 0 93 3e 7f
        E 958 83 3e 00
        E 2 b3 02 50
        E 0 93 3c 7f
        E 238 83 3c 00
        E 242 b3 02 50
        E 0 93 3b 7f
        E 958 83 3b 00
        E 2 b3 02 50
        E 0 93 39 7f
        E 1918 83 39 00
        E 2 b3 02 50
        E 0 93 3b 7f
        E 958 83 3b 00
        E 2 b3 02 50
        E 0 93 37 7f
        E 1918 83 37 00
        E 2 b3 02 50
        E 0 93 3b 7f
        E 958 83 3b 00
        E 2 b3 02 50
        E 0 93 3b 7f
        E 478 83 3b 00
        E 482 b3 02 50
        E 0 93 39 7f
        E 1438 83 39 00
        E 2 b3 02 50
        E 0 93 37 7f
        E 478 83 37 00
        E 2 b3 02 50
        E 0 93 39 7f
        E 958 83 39 00
        E 2 b3 02 50
        E 0 93 40 7f
        E 478 83 40 00
        E 2 b3 02 50
        E 0 93 3e 7f
        E 238 83 3e 00
        E 242 b3 02 50
        E 0 93 3c 7f
        E 238 83 3c 00
        E 242 b3 02 50
        E 0 93 3b 7f
        E 238 83 3b 00
        E 242 b3 02 50
        E 0 93 39 7f
        E 478 83 39 00
        E 482 b3 02 50
        E 0 93 39 7f
        E 958 83 39 00
        E 2 b3 02 50
        E 0 93 3b 7f
        E 958 83 3b 00
        E 2 b3 02 50
        E 0 93 37 7f
        E 1918 83 37 00
        E 2 b3 02 50
        E 0 93 3b 7f
        E 958 83 3b 00
        E 2 b3 02 50
        E 0 93 39 7f
        E 478 83 39 00
        E 482 b3 02 50
        E 0 93 39 7f
        E 478 83 39 00
        E 2 b3 02 50
        E 0 93 3b 7f
        E 478 83 3b 00
        E 2 b3 02 50
        E 0 93 3c 7f
        E 958 83 3c 00
        E 2 b3 02 50
        E 0 93 3c 7f
        E 478 83 3c 00
        E 2 b3 02 50
        E 0 93 3e 7f
        E 958 83 3e 00
        E 2 b3 02 50
        E 0 93 3c 7f
        E 238 83 3c 00
        E 242 b3 02 50
        E 0 93 3b 7f
        E 958 83 3b 00
        E 2 b3 02 50
        E 0 93 3c 7f
        E 1438 83 3c 00
        E 2 b3 02 50
        E 0 93 3b 7f
        E 478 83 3b 00
        E 2 b3 02 50
        E 0 93 39 7f
        E 958 83 39 00
        E 2 b3 02 50
        E 0 93 3b 7f
        E 1438 83 3b 00
        E 2 b3 02 50
        E 0 93 39 7f
        E 478 83 39 00
        E 2 b3 02 50
        E 0 93 37 7f
        E 958 83 37 00
        E 2 b3 02 50
        E 0 93 39 7f
        E 5758 83 39 00
        E 5762 b0 7b 00
        CCINTERP 32
        CHASE_CC_TAKEOFFS 1
        GUID {A15AC1CB-EDBB-48B4-B4C6-3314BA408509}
        IGNTEMPO 0 120 4 4
        SRCCOLOR 282
        VELLANE -1 150 0 0 1
        CFGEDITVIEW 361240.130245 0.020236 27 12 0 -1 0 0 0 0.5
        KEYSNAP 0
        TRACKSEL 0
        EVTFILTER 0 -1 -1 -1 -1 0 0 0 0 -1 -1 -1 -1 0 -1 0 -1 -1
        CFGEDIT 1 1 0 1 0 0 1 1 1 1 1 0.02083333 2584 183 3555 777 0 0 0 1 0.08333333 0 0 1 0 0.5 0 0 1 64
      >
    >
  >
  <TRACK {69312143-8F34-4BC8-816D-704A835493DF}
    NAME Accordion
    PEAKCOL 16576
    BEAT -1
    AUTOMODE 0
    VOLPAN 0.60115247317422 0 -1 -1 1
    MUTESOLO 0 0 0
    IPHASE 0
    PLAYOFFS 0 1
    ISBUS 0 0
    BUSCOMP 0 0 0 0 0
    SHOWINMIX 1 0.6667 0.5 1 0.5 0 0 0
    FIXEDLANES 9 0 0
    SEL 1
    REC 0 0 1 0 0 0 0 0
    VU 2
    TRACKHEIGHT 0 0 0 0 0 0 0
    INQ 0 0 0 0.5 100 0 0 100
    NCHAN 2
    FX 1
    TRACKID {69312143-8F34-4BC8-816D-704A835493DF}
    PERF 0
    MIDIOUT -1
    MAINSEND 1 0
    <FXCHAIN
      WNDRECT 1944 155 655 408
      SHOW 0
      LASTSEL 0
      DOCKED 0
      BYPASS 0 0 0
      <VST "VSTi: sforzando (x86) (Plogue Art et Technologie, Inc)" "sforzando VST_x86.dll" 0 "" 1347176273<565354504C475173666F727A616E646F> ""
        UUdMUO5e7f4AAAAAAgAAAAEAAAAAAAAAAgAAAAAAAAADAgAAAQAAAAAAEAA=
        Q0VHUEQFAAB4nI2UTY+bMBCG75X6HyyfWqkbMCGQSKEr2o0qDtGuxO4ZTYyTovVHCjba/vsOJCFo1RXJBeb147HnJTPr+zclSSvqpjI6oWzmU3L//fOndVpXkEMrRmur
        OKbkWJvScZs9oOCzkCJL8LfOhbWVPjTkjwNZ2b+4TEljawEK5YTOA0oUvOW9kkpp+PZHQhcM5W32kD06uzWl6HeBs0aBxUNzaWxC/bEkRStkQiuNuZ0S2lIiq1acNiPZ
        cMzaPUACCozcEdFdadZweZZ/4i5RJzRC/CDNDuSz0/0lUfCGgvBsUpW9qEFh9mYfeE/mVSiji40SNciyyI3T5d5oW3x5OZZgRVmk7uAaW7D5tyLwA/a16Pb5vu9hUKSc
        m7rEOijZgX7NMH+Ia/RqM77z36B1V+UdunE0Es2MQkrs9ZbHXVGDPogzYjFo+gU1ejXc4gccXMEMytk+PtfY17mFSl/qbEG60zfw/ouwAfE/QoJpZD6NhNPIYhqJppF4
        GllOI6tphPk3MDf4y24wmN3gMLvBYvaxx09Qg3rn4Pu/zZVh81Fls3gZhz5bLKJVtIyWq1HPeV3TXYLNfi+4HbfhubdP3ZiqXSU0F9dG6ufReF6Fq35e8WE4DAf9esku
        SYFbnB/ZddT08WaIGyHxGqJ8ht2p27oka+8yHzH4Bzx1ZkY=
        AAAQAAAA
      >
      FLOATPOS 0 0 0 0
      FXID {2251B425-CBC2-4C09-85F7-AA1851C6FAAC}
      WAK 0 0
    >
    <ITEM
      POSITION 0
      SNAPOFFS 0
      LENGTH 196.8
      LOOP 1
      ALLTAKES 0
      FADEIN 1 0 0 1 0 0 0
      FADEOUT 1 0 0 1 0 0 0
      MUTE 0 0
      SEL 1
      IGUID {9280354A-C339-4ECD-8898-15E73C04DE4C}
      IID 7
      NAME "Sleigh Bells - mus_downstream.mid [chan 5]"
      VOLPAN 1 0 1 -1
      SOFFS 0 0
      PLAYRATE 1 1 0 -1 0 0.0025
      CHANMODE 0
      GUID {95454205-0296-459C-ADA9-FE41B05DEE5A}
      <SOURCE MIDI
        HASDATA 1 960 QN
        CCINTERP 32
        POOLEDEVTS {F9FA6F59-957E-40DA-8DE2-A9A357D5EA80}
        E 0 c4 15 00
        E 0 b4 07 7f
        E 0 b4 06 0c
        E 0 b4 64 7f
        E 0 b4 65 7f
        E 0 b4 0a 40
        E 0 b4 5b 00
        E 0 b4 5d 00
        E 0 b4 79 00
        E 142080 b4 02 50
        E 0 94 40 34
        E 958 84 40 00
        E 2 b4 02 50
        E 0 94 42 34
        E 238 84 42 00
        E 242 b4 02 50
        E 0 94 44 34
        E 238 84 44 00
        E 242 b4 02 50
        E 0 94 45 34
        E 1918 84 45 00
        E 2 b4 02 50
        E 0 94 49 34
        E 0 94 4c 34
        E 958 84 49 00
        E 0 84 4c 00
        E 2 b4 02 50
        E 0 94 45 34
        E 0 94 49 34
        E 1438 84 45 00
        E 0 84 49 00
        E 2 b4 02 50
        E 0 94 44 34
        E 0 94 47 34
        E 118 84 44 00
        E 0 84 47 00
        E 2 94 45 34
        E 0 94 49 34
        E 118 84 45 00
        E 0 84 49 00
        E 2 94 44 34
        E 0 94 47 34
        E 238 84 44 00
        E 0 84 47 00
        E 2 b4 02 50
        E 0 94 42 34
        E 0 94 45 34
        E 958 84 42 00
        E 0 84 45 00
        E 2 94 44 34
        E 2 b4 02 50
        E 0 94 40 34
        E 1436 84 44 00
        E 2 84 40 00
        E 0 94 45 34
        E 2 b4 02 50
        E 0 94 42 34
        E 476 84 45 00
        E 2 84 42 00
        E 0 94 47 34
        E 2 b4 02 50
        E 0 94 44 34
        E 956 84 47 00
        E 2 b4 02 50
        E 0 84 44 00
        E 0 94 3e 34
        E 0 94 42 34
        E 958 84 3e 00
        E 0 84 42 00
        E 2 b4 02 50
        E 0 94 3e 34
        E 0 94 40 34
        E 1918 84 3e 00
        E 0 84 40 00
        E 2 b4 02 50
        E 0 94 45 34
        E 0 94 40 34
        E 1918 84 45 00
        E 0 84 40 00
        E 2 b4 02 50
        E 0 94 49 34
        E 0 94 4c 34
        E 958 84 49 00
        E 0 84 4c 00
        E 2 b4 02 50
        E 0 94 45 34
        E 0 94 49 34
        E 1438 84 45 00
        E 0 84 49 00
        E 2 b4 02 50
        E 0 94 44 34
        E 0 94 47 34
        E 118 84 44 00
        E 0 84 47 00
        E 2 94 45 34
        E 0 94 49 34
        E 118 84 45 00
        E 0 84 49 00
        E 2 94 44 34
        E 0 94 47 34
        E 238 84 44 00
        E 0 84 47 00
        E 2 b4 02 50
        E 0 94 42 34
        E 0 94 45 34
        E 958 84 42 00
        E 0 84 45 00
        E 2 b4 02 50
        E 0 94 42 34
        E 0 94 4a 34
        E 1438 84 42 00
        E 0 84 4a 00
        E 2 b4 02 50
        E 0 94 44 34
        E 0 94 4c 34
        E 478 84 44 00
        E 0 84 4c 00
        E 2 b4 02 50
        E 0 94 45 34
        E 0 94 4e 34
        E 960 b4 02 50
        E 0 84 45 00
        E 0 84 4e 00
        E 0 94 4e 34
        E 0 94 47 34
        E 120 84 4e 00
        E 0 94 50 34
        E 1318 84 47 00
        E 0 84 50 00
        E 2 b4 02 50
        E 0 94 51 34
        E 0 94 49 34
        E 238 84 51 00
        E 0 84 49 00
        E 2 b4 02 50
        E 0 94 50 34
        E 0 94 47 34
        E 238 84 50 00
        E 0 84 47 00
        E 2 b4 02 50
        E 0 94 4e 34
        E 0 94 45 34
        E 478 84 4e 00
        E 0 84 45 00
        E 2 b4 02 50
        E 0 94 50 34
        E 0 94 47 34
        E 478 84 50 00
        E 0 84 47 00
        E 2 b4 02 50
        E 0 94 50 34
        E 0 94 47 34
        E 478 84 50 00
        E 0 84 47 00
        E 2 b4 02 50
        E 0 94 51 34
        E 0 94 49 34
        E 238 84 51 00
        E 0 84 49 00
        E 242 b4 02 50
        E 0 94 51 34
        E 0 94 49 34
        E 478 84 51 00
        E 0 84 49 00
        E 2 b4 02 50
        E 0 94 4c 34
        E 0 94 45 34
        E 238 84 4c 00
        E 0 84 45 00
        E 242 b4 02 50
        E 0 94 4c 34
        E 0 94 45 34
        E 960 b4 02 50
        E 0 84 4c 00
        E 0 84 45 00
        E 0 94 4e 34
        E 0 94 45 34
        E 120 84 4e 00
        E 0 84 45 00
        E 0 94 4f 34
        E 0 94 47 34
        E 1318 84 4f 00
        E 0 84 47 00
        E 2 b4 02 50
        E 0 94 4e 34
        E 0 94 45 34
        E 118 84 4e 00
        E 0 84 45 00
        E 2 94 4f 34
        E 0 94 47 34
        E 118 84 4f 00
        E 0 84 47 00
        E 2 94 4e 34
        E 0 94 45 34
        E 238 84 4e 00
        E 0 84 45 00
        E 2 b4 02 50
        E 0 94 4c 34
        E 0 94 43 34
        E 958 84 4c 00
        E 0 84 43 00
        E 2 b4 02 50
        E 0 94 4a 34
        E 0 94 42 34
        E 1438 84 4a 00
        E 0 84 42 00
        E 2 b4 02 50
        E 0 94 49 34
        E 0 94 40 34
        E 478 84 49 00
        E 0 84 40 00
        E 2 b4 02 50
        E 0 94 45 34
        E 0 94 3e 34
        E 958 84 45 00
        E 0 84 3e 00
        E 2 b4 02 50
        E 0 94 47 34
        E 0 94 40 34
        E 1438 84 47 00
        E 2 b4 02 50
        E 0 94 49 34
        E 478 84 49 00
        E 2 b4 02 50
        E 0 94 4a 34
        E 958 84 40 00
        E 0 84 4a 00
        E 2 b4 02 50
        E 0 94 4c 34
        E 0 94 45 34
        E 958 84 4c 00
        E 0 84 45 00
        E 2 b4 02 50
        E 0 94 4c 34
        E 0 94 45 34
        E 478 84 4c 00
        E 0 84 45 00
        E 482 b4 02 50
        E 0 94 45 34
        E 0 94 40 34
        E 478 84 45 00
        E 0 84 40 00
        E 482 b4 02 50
        E 0 94 4a 34
        E 0 94 43 34
        E 1918 84 4a 00
        E 2 b4 02 50
        E 0 94 49 34
        E 478 84 49 00
        E 2 b4 02 50
        E 0 94 4a 34
        E 238 84 4a 00
        E 2 b4 02 50
        E 0 94 49 34
        E 238 84 43 00
        E 0 84 49 00
        E 2 b4 02 50
        E 0 94 47 34
        E 0 94 40 34
        E 1438 84 47 00
        E 2 b4 02 50
        E 0 94 45 34
        E 238 84 45 00
        E 240 84 40 00
        E 2 b4 02 50
        E 0 94 44 34
        E 0 94 3e 34
        E 478 84 3e 00
        E 480 84 44 00
        E 2 b4 02 50
        E 0 94 45 34
        E 0 94 3d 34
        E 958 84 45 00
        E 2 b4 02 50
        E 0 94 4e 67
        E 958 84 3d 00
        E 0 84 4e 00
        E 2 b4 02 50
        E 0 94 50 72
        E 958 84 50 00
        E 2 b4 02 50
        E 0 94 51 7f
        E 478 84 51 00
        E 2 b4 02 50
        E 0 94 50 7f
        E 238 84 50 00
        E 242 b4 02 50
        E 0 94 51 7f
        E 478 84 51 00
        E 2 b4 02 50
        E 0 94 53 7f
        E 238 84 53 00
        E 242 b4 02 50
        E 0 94 50 7f
        E 118 84 50 00
        E 2 94 51 7f
        E 118 84 51 00
        E 2 94 50 7f
        E 238 84 50 00
        E 2 b4 02 50
        E 0 94 4e 7f
        E 238 84 4e 00
        E 242 b4 02 50
        E 0 94 4c 7f
        E 1918 84 4c 00
        E 2 b4 02 50
        E 0 94 49 7f
        E 958 84 49 00
        E 2 b4 02 50
        E 0 94 4a 7f
        E 478 84 4a 00
        E 2 b4 02 50
        E 0 94 40 7f
        E 238 84 40 00
        E 242 b4 02 50
        E 0 94 49 7f
        E 478 84 49 00
        E 2 b4 02 50
        E 0 94 40 7f
        E 238 84 40 00
        E 242 b4 02 50
        E 0 94 47 7f
        E 478 84 47 00
        E 2 b4 02 50
        E 0 94 40 7f
        E 238 84 40 00
        E 242 b4 02 50
        E 0 94 49 7f
        E 478 84 49 00
        E 2 b4 02 50
        E 0 94 40 7f
        E 238 84 40 00
        E 242 b4 02 50
        E 0 94 47 7f
        E 478 84 47 00
        E 2 b4 02 50
        E 0 94 40 7f
        E 238 84 40 00
        E 242 b4 02 50
        E 0 94 45 7f
        E 958 84 45 00
        E 2 b4 02 50
        E 0 94 51 7f
        E 478 84 51 00
        E 2 b4 02 50
        E 0 94 50 7f
        E 238 84 50 00
        E 242 b4 02 50
        E 0 94 51 7f
        E 478 84 51 00
        E 2 b4 02 50
        E 0 94 53 7f
        E 238 84 53 00
        E 242 b4 02 50
        E 0 94 50 7f
        E 118 84 50 00
        E 2 94 51 7f
        E 118 84 51 00
        E 2 94 50 7f
        E 238 84 50 00
        E 2 b4 02 50
        E 0 94 4e 7f
        E 238 84 4e 00
        E 242 b4 02 50
        E 0 94 4c 7f
        E 958 84 4c 00
        E 2 b4 02 50
        E 0 94 4a 7f
        E 958 84 4a 00
        E 2 b4 02 50
        E 0 94 49 7f
        E 958 84 49 00
        E 2 b4 02 50
        E 0 94 4e 7f
        E 118 84 4e 00
        E 2 94 50 7f
        E 118 84 50 00
        E 2 94 4e 7f
        E 238 84 4e 00
        E 2 b4 02 50
        E 0 94 4c 7f
        E 478 84 4c 00
        E 2 b4 02 50
        E 0 94 4e 7f
        E 478 84 4e 00
        E 2 b4 02 50
        E 0 94 50 7f
        E 478 84 50 00
        E 2 b4 02 50
        E 0 94 51 7f
        E 958 84 51 00
        E 2 b4 02 50
        E 0 94 51 7f
        E 238 84 51 00
        E 2 b4 02 50
        E 0 94 53 7f
        E 1678 84 53 00
        E 2 b4 02 50
        E 0 94 50 7f
        E 958 84 50 00
        E 2 b4 02 50
        E 0 94 51 7f
        E 478 84 51 00
        E 2 b4 02 50
        E 0 94 45 7f
        E 238 84 45 00
        E 242 b4 02 50
        E 0 94 50 7f
        E 478 84 50 00
        E 2 b4 02 50
        E 0 94 45 7f
        E 238 84 45 00
        E 242 b4 02 50
        E 0 94 4e 7f
        E 478 84 4e 00
        E 2 b4 02 50
        E 0 94 45 7f
        E 238 84 45 00
        E 242 b4 02 50
        E 0 94 4c 7f
        E 478 84 4c 00
        E 2 b4 02 50
        E 0 94 45 7f
        E 238 84 45 00
        E 242 b4 02 50
        E 0 94 4a 7f
        E 478 84 4a 00
        E 2 b4 02 50
        E 0 94 45 7f
        E 238 84 45 00
        E 242 b4 02 50
        E 0 94 49 7f
        E 478 84 49 00
        E 2 b4 02 50
        E 0 94 45 7f
        E 238 84 45 00
        E 242 b4 02 50
        E 0 94 42 7f
        E 0 94 4a 7f
        E 478 84 42 00
        E 0 84 4a 00
        E 2 b4 02 50
        E 0 94 40 7f
        E 0 94 49 7f
        E 478 84 40 00
        E 0 84 49 00
        E 2 b4 02 50
        E 0 94 3e 7f
        E 0 94 47 7f
        E 238 84 3e 00
        E 0 84 47 00
        E 242 b4 02 50
        E 0 94 40 7f
        E 0 94 49 7f
        E 478 84 40 00
        E 0 84 49 00
        E 2 b4 02 50
        E 0 94 3e 7f
        E 0 94 47 7f
        E 478 84 3e 00
        E 0 84 47 00
        E 2 b4 02 50
        E 0 94 3d 7f
        E 0 94 45 7f
        E 238 84 3d 00
        E 0 84 45 00
        E 242 b4 02 50
        E 0 94 3b 7f
        E 0 94 44 7f
        E 1918 84 3b 00
        E 0 84 44 00
        E 2 b4 02 50
        E 0 94 40 7f
        E 958 84 40 00
        E 2 b4 02 50
        E 0 94 45 7f
        E 478 84 45 00
        E 2 b4 02 50
        E 0 94 47 7f
        E 478 84 47 00
        E 2 b4 02 50
        E 0 94 49 7f
        E 478 84 49 00
        E 2 b4 02 50
        E 0 94 4a 7f
        E 478 84 4a 00
        E 2 b4 02 50
        E 0 94 4c 7f
        E 478 84 4c 00
        E 2 b4 02 50
        E 0 94 4e 7f
        E 478 84 4e 00
        E 2 b4 02 50
        E 0 94 4f 7f
        E 478 84 4f 00
        E 2 b4 02 50
        E 0 94 51 7f
        E 238 84 51 00
        E 242 b4 02 50
        E 0 94 4e 7f
        E 118 84 4e 00
        E 2 94 4f 7f
        E 118 84 4f 00
        E 2 94 4e 7f
        E 238 84 4e 00
        E 2 b4 02 50
        E 0 94 4c 7f
        E 478 84 4c 00
        E 2 b4 02 50
        E 0 94 4a 7f
        E 478 84 4a 00
        E 2 b4 02 50
        E 0 94 49 7f
        E 478 84 49 00
        E 2 b4 02 50
        E 0 94 47 7f
        E 478 84 47 00
        E 2 b4 02 50
        E 0 94 49 7f
        E 238 84 49 00
        E 242 b4 02 50
        E 0 94 47 7f
        E 118 84 47 00
        E 2 94 49 7f
        E 118 84 49 00
        E 2 94 47 7f
        E 238 84 47 00
        E 2 b4 02 50
        E 0 94 45 7f
        E 238 84 45 00
        E 242 b4 02 50
        E 0 94 44 7f
        E 958 84 44 00
        E 2 b4 02 50
        E 0 94 45 7f
        E 940 84 45 00
        E 20 b4 02 50
        E 0 94 40 7f
        E 958 84 40 00
        E 2 b4 02 50
        E 0 94 42 7f
        E 240 84 42 00
        E 240 b4 02 50
        E 0 94 44 7f
        E 240 84 44 00
        E 220 b4 02 50
        E 20 94 45 7f
        E 1918 84 45 00
        E 2 b4 02 50
        E 0 94 49 7f
        E 0 94 4c 7f
        E 958 84 49 00
        E 0 84 4c 00
        E 2 b4 02 50
        E 0 94 45 7f
        E 0 94 49 7f
        E 1438 84 45 00
        E 0 84 49 00
        E 2 b4 02 50
        E 0 94 44 7f
        E 0 94 47 7f
        E 118 84 44 00
        E 0 84 47 00
        E 2 94 45 7f
        E 0 94 49 7f
        E 118 84 45 00
        E 0 84 49 00
        E 2 94 44 7f
        E 0 94 47 7f
        E 238 84 44 00
        E 0 84 47 00
        E 2 b4 02 50
        E 0 94 42 7f
        E 0 94 45 7f
        E 958 84 42 00
        E 0 84 45 00
        E 2 b4 02 50
        E 0 94 40 7f
        E 0 94 44 7f
        E 1438 84 40 00
        E 0 84 44 00
        E 2 b4 02 50
        E 0 94 42 7f
        E 0 94 45 7f
        E 478 84 42 00
        E 0 84 45 00
        E 2 b4 02 50
        E 0 94 44 7f
        E 0 94 47 7f
        E 958 84 44 00
        E 0 84 47 00
        E 2 b4 02 50
        E 0 94 3e 7f
        E 0 94 42 7f
        E 958 84 3e 00
        E 0 84 42 00
        E 2 b4 02 50
        E 0 94 3e 7f
        E 0 94 40 7f
        E 1918 84 3e 00
        E 0 84 40 00
        E 2 b4 02 50
        E 0 94 40 7f
        E 0 94 45 7f
        E 1918 84 40 00
        E 0 84 45 00
        E 2 b4 02 50
        E 0 94 49 7f
        E 0 94 4c 7f
        E 958 84 49 00
        E 0 84 4c 00
        E 2 b4 02 50
        E 0 94 45 7f
        E 0 94 49 7f
        E 1438 84 45 00
        E 0 84 49 00
        E 2 b4 02 50
        E 0 94 44 7f
        E 0 94 47 7f
        E 118 84 44 00
        E 0 84 47 00
        E 2 94 45 7f
        E 0 94 49 7f
        E 118 84 45 00
        E 0 84 49 00
        E 2 94 44 7f
        E 0 94 47 7f
        E 238 84 44 00
        E 0 84 47 00
        E 2 b4 02 50
        E 0 94 42 7f
        E 0 94 45 7f
        E 958 84 42 00
        E 0 84 45 00
        E 2 b4 02 50
        E 0 94 42 7f
        E 0 94 4a 7f
        E 1438 84 42 00
        E 0 84 4a 00
        E 2 b4 02 50
        E 0 94 44 7f
        E 0 94 4c 7f
        E 478 84 44 00
        E 0 84 4c 00
        E 2 b4 02 50
        E 0 94 45 7f
        E 0 94 4e 7f
        E 960 b4 02 50
        E 0 84 45 00
        E 0 84 4e 00
        E 0 94 4e 7f
        E 0 94 45 7f
        E 240 84 4e 00
        E 0 84 45 00
        E 0 94 47 7f
        E 0 94 50 7f
        E 1198 84 47 00
        E 0 84 50 00
        E 2 b4 02 50
        E 0 94 55 7f
        E 0 94 51 7f
        E 238 84 55 00
        E 0 84 51 00
        E 2 b4 02 50
        E 0 94 53 7f
        E 0 94 50 7f
        E 238 84 53 00
        E 0 84 50 00
        E 2 b4 02 50
        E 0 94 51 7f
        E 0 94 4e 7f
        E 478 84 51 00
        E 0 84 4e 00
        E 2 b4 02 50
        E 0 94 53 7f
        E 0 94 50 7f
        E 478 84 53 00
        E 0 84 50 00
        E 2 b4 02 50
        E 0 94 53 7f
        E 0 94 50 7f
        E 478 84 53 00
        E 0 84 50 00
        E 2 b4 02 50
        E 0 94 55 7f
        E 0 94 51 7f
        E 238 84 55 00
        E 0 84 51 00
        E 242 b4 02 50
        E 0 94 55 7f
        E 0 94 51 7f
        E 478 84 55 00
        E 0 84 51 00
        E 2 b4 02 50
        E 0 94 51 7f
        E 0 94 4c 7f
        E 238 84 51 00
        E 0 84 4c 00
        E 242 b4 02 50
        E 0 94 51 7f
        E 0 94 4c 7f
        E 960 b4 02 50
        E 0 84 51 00
        E 0 84 4c 00
        E 0 94 51 7f
        E 0 94 4e 7f
        E 120 84 51 00
        E 0 84 4e 00
        E 0 94 53 7f
        E 0 94 4f 7f
        E 1318 84 53 00
        E 0 84 4f 00
        E 2 b4 02 50
        E 0 94 51 7f
        E 0 94 4e 7f
        E 118 84 51 00
        E 0 84 4e 00
        E 2 94 53 7f
        E 0 94 4f 7f
        E 118 84 53 00
        E 0 84 4f 00
        E 2 94 51 7f
        E 0 94 4e 7f
        E 238 84 51 00
        E 0 84 4e 00
        E 2 b4 02 50
        E 0 94 4f 7f
        E 0 94 4c 7f
        E 958 84 4f 00
        E 0 84 4c 00
        E 2 b4 02 50
        E 0 94 4e 7f
        E 0 94 4a 7f
        E 1438 84 4e 00
        E 0 84 4a 00
        E 2 b4 02 50
        E 0 94 4c 7f
        E 0 94 49 7f
        E 478 84 4c 00
        E 0 84 49 00
        E 2 b4 02 50
        E 0 94 4a 7f
        E 0 94 45 7f
        E 958 84 4a 00
        E 0 84 45 00
        E 2 b4 02 50
        E 0 94 4c 7f
        E 0 94 47 7f
        E 1438 84 47 00
        E 2 b4 02 50
        E 0 94 49 7f
        E 478 84 49 00
        E 2 b4 02 50
        E 0 94 4a 7f
        E 958 84 4c 00
        E 0 84 4a 00
        E 2 b4 02 50
        E 0 94 51 7f
        E 0 94 4c 7f
        E 958 84 51 00
        E 0 84 4c 00
        E 2 b4 02 50
        E 0 94 51 7f
        E 0 94 4c 7f
        E 478 84 51 00
        E 0 84 4c 00
        E 482 b4 02 50
        E 0 94 4c 7f
        E 0 94 45 7f
        E 478 84 4c 00
        E 0 84 45 00
        E 482 b4 02 50
        E 0 94 4f 7f
        E 0 94 4a 7f
        E 1918 84 4a 00
        E 2 b4 02 50
        E 0 94 49 7f
        E 478 84 49 00
        E 2 b4 02 50
        E 0 94 4a 7f
        E 238 84 4a 00
        E 2 b4 02 50
        E 0 94 49 7f
        E 238 84 4f 00
        E 0 84 49 00
        E 2 b4 02 50
        E 0 94 4c 7f
        E 0 94 47 7f
        E 1438 84 47 00
        E 2 b4 02 50
        E 0 94 45 7f
        E 238 84 45 00
        E 240 84 4c 00
        E 2 b4 02 50
        E 0 94 4a 7f
        E 0 94 44 7f
        E 478 84 4a 00
        E 480 84 44 00
        E 2 b4 02 50
        E 0 94 49 7f
        E 0 94 45 7f
        E 2878 84 49 00
        E 0 84 45 00
        E 40322 b4 02 50
        E 0 94 3e 64
        E 0 94 42 64
        E 958 84 3e 00
        E 0 84 42 00
        E 962 b4 02 50
        E 0 94 3e 64
        E 0 94 42 64
        E 1918 84 3e 00
        E 0 84 42 00
        E 2 b4 02 50
        E 0 94 4c 64
        E 0 94 51 64
        E 958 84 4c 00
        E 0 84 51 00
        E 2 b4 02 50
        E 0 94 4c 64
        E 0 94 51 64
        E 238 84 4c 00
        E 0 84 51 00
        E 242 b4 02 50
        E 0 94 4c 64
        E 0 94 51 64
        E 238 84 4c 00
        E 0 84 51 00
        E 242 b4 02 50
        E 0 94 4c 64
        E 0 94 51 64
        E 1918 84 4c 00
        E 0 84 51 00
        E 38402 b4 02 50
        E 0 94 3e 64
        E 0 94 42 64
        E 958 84 3e 00
        E 0 84 42 00
        E 962 b4 02 50
        E 0 94 3e 64
        E 0 94 42 64
        E 1918 84 3e 00
        E 0 84 42 00
        E 2 b4 02 50
        E 0 94 4c 64
        E 0 94 51 64
        E 958 84 4c 00
        E 0 84 51 00
        E 2 b4 02 50
        E 0 94 4c 64
        E 0 94 51 64
        E 238 84 4c 00
        E 0 84 51 00
        E 242 b4 02 50
        E 0 94 4c 64
        E 0 94 51 64
        E 238 84 4c 00
        E 0 84 51 00
        E 242 b4 02 50
        E 0 94 4c 64
        E 0 94 51 64
        E 1918 84 4c 00
        E 0 84 51 00
        E 2 b4 02 50
        E 0 94 3c 50
        E 0 94 40 50
        E 478 84 3c 00
        E 0 84 40 00
        E 41762 b4 02 50
        E 0 94 4c 64
        E 478 84 4c 00
        E 2 b4 02 50
        E 0 94 4a 64
        E 238 84 4a 00
        E 242 b4 02 50
        E 0 94 48 64
        E 118 84 48 00
        E 2 94 4a 64
        E 118 84 4a 00
        E 2 94 48 64
        E 238 84 48 00
        E 2 b4 02 50
        E 0 94 47 64
        E 238 84 47 00
        E 242 b4 02 50
        E 0 94 45 64
        E 1918 84 45 00
        E 2 b4 02 50
        E 0 94 47 64
        E 958 84 47 00
        E 2 b4 02 50
        E 0 94 43 64
        E 1918 84 43 00
        E 2 b4 02 50
        E 0 94 47 64
        E 958 84 47 00
        E 2 b4 02 50
        E 0 94 45 64
        E 478 84 45 00
        E 482 b4 02 50
        E 0 94 45 64
        E 478 84 45 00
        E 2 b4 02 50
        E 0 94 47 64
        E 478 84 47 00
        E 2 b4 02 50
        E 0 94 48 64
        E 958 84 48 00
        E 2 b4 02 50
        E 0 94 48 64
        E 478 84 48 00
        E 2 b4 02 50
        E 0 94 4a 64
        E 958 84 4a 00
        E 2 b4 02 50
        E 0 94 48 64
        E 118 84 48 00
        E 2 94 4a 64
        E 118 84 4a 00
        E 2 94 48 64
        E 238 84 48 00
        E 2 b4 02 50
        E 0 94 47 64
        E 958 84 47 00
        E 2 b4 02 50
        E 0 94 45 64
        E 116 84 45 00
        E 2 94 47 64
        E 116 84 47 00
        E 6 94 45 64
        E 1678 84 45 00
        E 2 b4 02 50
        E 0 94 47 64
        E 958 84 47 00
        E 2 b4 02 50
        E 0 94 43 64
        E 1918 84 43 00
        E 2 b4 02 50
        E 0 94 47 64
        E 958 84 47 00
        E 2 b4 02 50
        E 0 94 47 64
        E 478 84 47 00
        E 482 b4 02 50
        E 0 94 45 64
        E 116 84 45 00
        E 2 94 47 64
        E 116 84 47 00
        E 4 94 45 64
        E 1196 84 45 00
        E 6 b4 02 50
        E 0 94 43 64
        E 478 84 43 00
        E 2 b4 02 50
        E 0 94 45 64
        E 958 84 45 00
        E 2 b4 02 50
        E 0 94 4c 64
        E 478 84 4c 00
        E 2 b4 02 50
        E 0 94 4a 64
        E 238 84 4a 00
        E 242 b4 02 50
        E 0 94 48 64
        E 118 84 48 00
        E 2 94 4a 64
        E 118 84 4a 00
        E 2 94 48 64
        E 238 84 48 00
        E 2 b4 02 50
        E 0 94 47 64
        E 238 84 47 00
        E 242 b4 02 50
        E 0 94 45 64
        E 478 84 45 00
        E 482 b4 02 50
        E 0 94 45 64
        E 958 84 45 00
        E 2 b4 02 50
        E 0 94 47 64
        E 958 84 47 00
        E 2 b4 02 50
        E 0 94 43 64
        E 1918 84 43 00
        E 2 b4 02 50
        E 0 94 47 64
        E 958 84 47 00
        E 2 b4 02 50
        E 0 94 45 64
        E 478 84 45 00
        E 482 b4 02 50
        E 0 94 45 64
        E 478 84 45 00
        E 2 b4 02 50
        E 0 94 47 64
        E 478 84 47 00
        E 2 b4 02 50
        E 0 94 48 64
        E 958 84 48 00
        E 2 b4 02 50
        E 0 94 48 64
        E 478 84 48 00
        E 2 b4 02 50
        E 0 94 4a 64
        E 958 84 4a 00
        E 2 b4 02 50
        E 0 94 48 64
        E 118 84 48 00
        E 2 94 4a 64
        E 118 84 4a 00
        E 2 94 48 64
        E 238 84 48 00
        E 2 b4 02 50
        E 0 94 47 64
        E 958 84 47 00
        E 2 b4 02 50
        E 0 94 48 64
        E 1438 84 48 00
        E 2 b4 02 50
        E 0 94 47 64
        E 478 84 47 00
        E 2 b4 02 50
        E 0 94 45 64
        E 958 84 45 00
        E 2 b4 02 50
        E 0 94 47 64
        E 1438 84 47 00
        E 2 b4 02 50
        E 0 94 45 64
        E 478 84 45 00
        E 2 b4 02 50
        E 0 94 43 64
        E 958 84 43 00
        E 2 b4 02 50
        E 0 94 37 7f
        E 5758 84 37 00
        E 5762 b0 7b 00
        CCINTERP 32
        CHASE_CC_TAKEOFFS 1
        GUID {E62C29BA-C9BD-4DA0-8A71-B2013BC530B6}
        IGNTEMPO 0 120 4 4
        SRCCOLOR 284
        VELLANE -1 150 0 0 1
        CFGEDITVIEW 108600.310303 0.027125 25 12 0 -1 0 0 0 0.5
        KEYSNAP 0
        TRACKSEL 0
        EVTFILTER 0 -1 -1 -1 -1 0 0 0 0 -1 -1 -1 -1 0 -1 0 -1 -1
        CFGEDIT 1 1 0 1 0 0 1 1 1 1 1 0.02083333 2584 183 3555 777 0 0 0 1 0.08333333 0 0 1 0 0.5 0 0 1 64
      >
    >
  >
  <TRACK {50CF8510-6CE1-42F8-92B5-E66350C5D36A}
    NAME Flute
    PEAKCOL 16576
    BEAT -1
    AUTOMODE 0
    VOLPAN 1 0 -1 -1 1
    MUTESOLO 0 0 0
    IPHASE 0
    PLAYOFFS 0 1
    ISBUS 0 0
    BUSCOMP 0 0 0 0 0
    SHOWINMIX 1 0.6667 0.5 1 0.5 0 0 0
    FIXEDLANES 9 0 0
    SEL 0
    REC 0 0 1 0 0 0 0 0
    VU 2
    TRACKHEIGHT 0 0 0 0 0 0 0
    INQ 0 0 0 0.5 100 0 0 100
    NCHAN 2
    FX 1
    TRACKID {50CF8510-6CE1-42F8-92B5-E66350C5D36A}
    PERF 0
    MIDIOUT -1
    MAINSEND 1 0
    <FXCHAIN
      WNDRECT 1944 155 655 408
      SHOW 0
      LASTSEL 0
      DOCKED 0
      BYPASS 0 0 0
      <VST "VSTi: sforzando (x86) (Plogue Art et Technologie, Inc)" "sforzando VST_x86.dll" 0 "" 1347176273<565354504C475173666F727A616E646F> ""
        UUdMUO5e7f4AAAAAAgAAAAEAAAAAAAAAAgAAAAAAAAABAgAAAQAAAAAAEAA=
        Q0VHUEAFAAB4nI2UTY+bMBCG75X6HyyfWqkbbEIgSKGrtJtWHKKulN0zGsBJ0fojBTva/vsOJCFo1RVwCfP68djzhpnV/auS5CTqpjI6oXzGKLn/+vHDal1XsIOTGKzF
        UUTJsTalK2z6gALjAUWW4LPaCWsrfWjIHweysn9xmZLG1gIUygmd+5QoeN11ylpKU2y/JXTBUd6mD+kvZ7emFN0ucNYosHjoThqbUDaUpDgJmdBKY26nhLaUyOokzpuR
        bArM2v6ABBQ4uSOivdKsKeRF/o67RJ3QEPGDNDnIJ6e7S6Lg9QXh2aQqO1GDwuzN3vcezYtQRmcbJWqQZbYzTpd7o2326flYghVltnYH19iMz79kPvP556zdxxjzWDTP
        fkhnBSU56JcUcweo05vF+F78Bq3bCu/QiaORaGQYUGJvNzzmWQ36IC6IxaDpFtTg1RQW/7zeEcyg8OA2vtTX1biFSl9rPIF0Z/+9/yK8R9h7iD+OzMeRYBxZjCPhOBKN
        I8txJB5HOJvATPCXTzCYT3CYT7CYv+/xI9Sg3jj49rO5MXw+qGwWLaOA8cUijMNluIwH/ea1DXcNNvu9KOywBS99fe7EtcoroYtBI3WzaDirgribVUU/GPqDfj6n16RQ
        WJwd6W3MdPGmjxsh8RqifIL83G1tkpV3nY0Y/AOGH2S7
        AAAQAAAA
      >
      FLOATPOS 0 0 0 0
      FXID {D218BAFE-F7EB-4006-BCAF-F456AD340F28}
      WAK 0 0
    >
    <ITEM
      POSITION 0
      SNAPOFFS 0
      LENGTH 196.8
      LOOP 1
      ALLTAKES 0
      FADEIN 1 0 0 1 0 0 0
      FADEOUT 1 0 0 1 0 0 0
      MUTE 0 0
      SEL 0
      IGUID {8C8CF286-7BCD-43C3-95AB-BA35AD0DFF0E}
      IID 8
      NAME "Sleigh Bells - mus_downstream.mid [chan 6]"
      VOLPAN 1 0 1 -1
      SOFFS 0 0
      PLAYRATE 1 1 0 -1 0 0.0025
      CHANMODE 0
      GUID {474D6931-DC93-4BCE-92CF-B4278D1E91B9}
      <SOURCE MIDI
        HASDATA 1 960 QN
        CCINTERP 32
        POOLEDEVTS {0480F2CA-6625-4664-929A-170B83BC8854}
        E 0 c5 49 00
        E 0 b5 07 7f
        E 0 b5 06 0c
        E 0 b5 64 7f
        E 0 b5 65 7f
        E 0 b5 0a 40
        E 0 b5 5b 00
        E 0 b5 5d 00
        E 0 b5 79 00
        E 5760 b5 02 50
        E 0 95 45 7f
        E 1918 85 45 00
        E 2 b5 02 50
        E 0 95 4c 7f
        E 958 85 4c 00
        E 2 b5 02 50
        E 0 95 49 7f
        E 1438 85 49 00
        E 2 b5 02 50
        E 0 95 47 7f
        E 118 85 47 00
        E 2 95 49 7f
        E 118 85 49 00
        E 2 95 47 7f
        E 238 85 47 00
        E 2 b5 02 50
        E 0 95 45 7f
        E 958 85 45 00
        E 2 b5 02 50
        E 0 95 44 7f
        E 1438 85 44 00
        E 2 b5 02 50
        E 0 95 45 7f
        E 478 85 45 00
        E 2 b5 02 50
        E 0 95 47 7f
        E 958 85 47 00
        E 2 b5 02 50
        E 0 95 42 7f
        E 958 85 42 00
        E 2 b5 02 50
        E 0 95 40 7f
        E 1918 85 40 00
        E 2 b5 02 50
        E 0 95 45 7f
        E 1918 85 45 00
        E 2 b5 02 50
        E 0 95 4c 7f
        E 958 85 4c 00
        E 2 b5 02 50
        E 0 95 49 7f
        E 1438 85 49 00
        E 2 b5 02 50
        E 0 95 47 7f
        E 118 85 47 00
        E 2 95 49 7f
        E 118 85 49 00
        E 2 95 47 7f
        E 238 85 47 00
        E 2 b5 02 50
        E 0 95 45 7f
        E 958 85 45 00
        E 2 b5 02 50
        E 0 95 4a 7f
        E 1438 85 4a 00
        E 2 b5 02 50
        E 0 95 4c 7f
        E 478 85 4c 00
        E 2 b5 02 50
        E 0 95 4e 7f
        E 960 b5 02 50
        E 0 85 4e 00
        E 0 95 4e 7f
        E 240 85 4e 00
        E 0 95 50 7f
        E 1198 85 50 00
        E 2 b5 02 50
        E 0 95 51 7f
        E 238 85 51 00
        E 2 b5 02 50
        E 0 95 50 7f
        E 238 85 50 00
        E 2 b5 02 50
        E 0 95 4e 7f
        E 478 85 4e 00
        E 2 b5 02 50
        E 0 95 50 7f
        E 478 85 50 00
        E 2 b5 02 50
        E 0 95 50 7f
        E 478 85 50 00
        E 2 b5 02 50
        E 0 95 51 7f
        E 238 85 51 00
        E 242 b5 02 50
        E 0 95 51 7f
        E 478 85 51 00
        E 2 b5 02 50
        E 0 95 4c 7f
        E 238 85 4c 00
        E 242 b5 02 50
        E 0 95 4c 7f
        E 960 b5 02 50
        E 0 85 4c 00
        E 0 95 4e 7f
        E 120 85 4e 00
        E 0 95 4f 7f
        E 1318 85 4f 00
        E 2 b5 02 50
        E 0 95 4e 7f
        E 118 85 4e 00
        E 2 95 4f 7f
        E 118 85 4f 00
        E 2 95 4e 7f
        E 238 85 4e 00
        E 2 b5 02 50
        E 0 95 4c 7f
        E 958 85 4c 00
        E 2 b5 02 50
        E 0 95 4a 7f
        E 1438 85 4a 00
        E 2 b5 02 50
        E 0 95 49 7f
        E 478 85 49 00
        E 2 b5 02 50
        E 0 95 45 7f
        E 958 85 45 00
        E 2 b5 02 50
        E 0 95 47 7f
        E 1438 85 47 00
        E 2 b5 02 50
        E 0 95 49 7f
        E 478 85 49 00
        E 2 b5 02 50
        E 0 95 4a 7f
        E 958 85 4a 00
        E 2 b5 02 50
        E 0 95 4a 7f
        E 478 85 4a 00
        E 2 b5 02 50
        E 0 95 4c 7f
        E 238 85 4c 00
        E 242 b5 02 50
        E 0 95 4c 7f
        E 478 85 4c 00
        E 2 b5 02 50
        E 0 95 45 7f
        E 238 85 45 00
        E 242 b5 02 50
        E 0 95 45 7f
        E 958 85 45 00
        E 2 b5 02 50
        E 0 95 4a 7f
        E 1918 85 4a 00
        E 2 b5 02 50
        E 0 95 49 7f
        E 478 85 49 00
        E 2 b5 02 50
        E 0 95 4a 7f
        E 238 85 4a 00
        E 2 b5 02 50
        E 0 95 49 7f
        E 238 85 49 00
        E 2 b5 02 50
        E 0 95 47 7f
        E 1438 85 47 00
        E 2 b5 02 50
        E 0 95 45 7f
        E 238 85 45 00
        E 242 b5 02 50
        E 0 95 44 7f
        E 958 85 44 00
        E 2 b5 02 50
        E 0 95 45 7f
        E 2878 85 45 00
        E 2 b5 02 50
        E 0 95 45 7f
        E 1918 85 45 00
        E 2 b5 02 50
        E 0 95 4c 7f
        E 958 85 4c 00
        E 2 b5 02 50
        E 0 95 49 7f
        E 1438 85 49 00
        E 2 b5 02 50
        E 0 95 47 7f
        E 118 85 47 00
        E 2 95 49 7f
        E 118 85 49 00
        E 2 95 47 7f
        E 238 85 47 00
        E 2 b5 02 50
        E 0 95 45 7f
        E 958 85 45 00
        E 2 b5 02 50
        E 0 95 44 7f
        E 1438 85 44 00
        E 2 b5 02 50
        E 0 95 45 7f
        E 478 85 45 00
        E 2 b5 02 50
        E 0 95 47 7f
        E 958 85 47 00
        E 2 b5 02 50
        E 0 95 42 7f
        E 958 85 42 00
        E 2 b5 02 50
        E 0 95 40 7f
        E 1918 85 40 00
        E 2 b5 02 50
        E 0 95 45 7f
        E 1918 85 45 00
        E 2 b5 02 50
        E 0 95 4c 7f
        E 958 85 4c 00
        E 2 b5 02 50
        E 0 95 49 7f
        E 1438 85 49 00
        E 2 b5 02 50
        E 0 95 47 7f
        E 118 85 47 00
        E 2 95 49 7f
        E 118 85 49 00
        E 2 95 47 7f
        E 238 85 47 00
        E 2 b5 02 50
        E 0 95 45 7f
        E 958 85 45 00
        E 2 b5 02 50
        E 0 95 4a 7f
        E 1438 85 4a 00
        E 2 b5 02 50
        E 0 95 4c 7f
        E 478 85 4c 00
        E 2 b5 02 50
        E 0 95 4e 7f
        E 960 b5 02 50
        E 0 85 4e 00
        E 0 95 4e 7f
        E 238 85 4e 00
        E 2 95 50 7f
        E 1198 85 50 00
        E 2 b5 02 50
        E 0 95 51 7f
        E 238 85 51 00
        E 2 b5 02 50
        E 0 95 50 7f
        E 238 85 50 00
        E 2 b5 02 50
        E 0 95 4e 7f
        E 478 85 4e 00
        E 2 b5 02 50
        E 0 95 50 7f
        E 478 85 50 00
        E 2 b5 02 50
        E 0 95 50 7f
        E 478 85 50 00
        E 2 b5 02 50
        E 0 95 51 7f
        E 238 85 51 00
        E 242 b5 02 50
        E 0 95 51 7f
        E 478 85 51 00
        E 2 b5 02 50
        E 0 95 4c 7f
        E 238 85 4c 00
        E 242 b5 02 50
        E 0 95 4c 7f
        E 960 b5 02 50
        E 0 85 4c 00
        E 0 95 4e 7f
        E 120 85 4e 00
        E 0 95 4f 7f
        E 1318 85 4f 00
        E 2 b5 02 50
        E 0 95 4e 7f
        E 118 85 4e 00
        E 2 95 4f 7f
        E 118 85 4f 00
        E 2 95 4e 7f
        E 238 85 4e 00
        E 2 b5 02 50
        E 0 95 4c 7f
        E 958 85 4c 00
        E 2 b5 02 50
        E 0 95 4a 7f
        E 1438 85 4a 00
        E 2 b5 02 50
        E 0 95 49 7f
        E 478 85 49 00
        E 2 b5 02 50
        E 0 95 45 7f
        E 958 85 45 00
        E 2 b5 02 50
        E 0 95 47 7f
        E 1438 85 47 00
        E 2 b5 02 50
        E 0 95 49 7f
        E 478 85 49 00
        E 2 b5 02 50
        E 0 95 4a 7f
        E 958 85 4a 00
        E 2 b5 02 50
        E 0 95 4c 7f
        E 958 85 4c 00
        E 2 b5 02 50
        E 0 95 4c 7f
        E 478 85 4c 00
        E 482 b5 02 50
        E 0 95 45 7f
        E 478 85 45 00
        E 482 b5 02 50
        E 0 95 4a 7f
        E 1918 85 4a 00
        E 2 b5 02 50
        E 0 95 49 7f
        E 478 85 49 00
        E 2 b5 02 50
        E 0 95 4a 7f
        E 238 85 4a 00
        E 2 b5 02 50
        E 0 95 49 7f
        E 238 85 49 00
        E 2 b5 02 50
        E 0 95 47 7f
        E 1438 85 47 00
        E 2 b5 02 50
        E 0 95 45 7f
        E 238 85 45 00
        E 242 b5 02 50
        E 0 95 44 7f
        E 958 85 44 00
        E 2 b5 02 50
        E 0 95 45 7f
        E 2878 85 45 00
        E 2 b5 02 50
        E 0 95 40 64
        E 478 85 40 00
        E 482 b5 02 50
        E 0 95 40 64
        E 958 85 40 00
        E 2 b5 02 50
        E 0 95 42 64
        E 958 85 42 00
        E 2 b5 02 50
        E 0 95 43 64
        E 1918 85 43 00
        E 2 b5 02 50
        E 0 95 40 64
        E 958 85 40 00
        E 2 b5 02 50
        E 0 95 43 64
        E 1438 85 43 00
        E 2 b5 02 50
        E 0 95 45 64
        E 478 85 45 00
        E 2 b5 02 50
        E 0 95 47 64
        E 960 b5 02 50
        E 0 85 47 00
        E 2 95 4a 64
        E 118 85 4a 00
        E 0 95 49 64
        E 358 85 49 00
        E 2 b5 02 50
        E 0 95 47 64
        E 238 85 47 00
        E 242 b5 02 50
        E 0 95 45 64
        E 958 85 45 00
        E 2 b5 02 50
        E 0 95 43 64
        E 238 85 43 00
        E 2 b5 02 50
        E 0 95 45 64
        E 238 85 45 00
        E 2 b5 02 50
        E 0 95 47 64
        E 238 85 47 00
        E 2 b5 02 50
        E 0 95 49 64
        E 238 85 49 00
        E 2 b5 02 50
        E 0 95 4a 64
        E 958 85 4a 00
        E 2 b5 02 50
        E 0 95 49 64
        E 958 85 49 00
        E 2 b5 02 50
        E 0 95 4a 64
        E 958 85 4a 00
        E 2 b5 02 50
        E 0 95 4a 64
        E 478 85 4a 00
        E 2 b5 02 50
        E 0 95 4c 64
        E 238 85 4c 00
        E 242 b5 02 50
        E 0 95 4c 64
        E 478 85 4c 00
        E 2 b5 02 50
        E 0 95 4a 64
        E 238 85 4a 00
        E 242 b5 02 50
        E 0 95 4a 64
        E 958 85 4a 00
        E 2 b5 02 50
        E 0 95 49 64
        E 1438 85 49 00
        E 2 b5 02 50
        E 0 95 47 64
        E 118 85 47 00
        E 2 95 49 64
        E 118 85 49 00
        E 2 95 47 64
        E 238 85 47 00
        E 2 b5 02 50
        E 0 95 45 64
        E 958 85 45 00
        E 2 b5 02 50
        E 0 95 47 64
        E 1918 85 47 00
        E 2 b5 02 50
        E 0 95 49 64
        E 958 85 49 00
        E 2 b5 02 50
        E 0 95 4a 64
        E 1918 85 4a 00
        E 2 b5 02 50
        E 0 95 49 64
        E 478 85 49 00
        E 2 b5 02 50
        E 0 95 4a 64
        E 238 85 4a 00
        E 2 b5 02 50
        E 0 95 49 64
        E 238 85 49 00
        E 2 b5 02 50
        E 0 95 47 64
        E 958 85 47 00
        E 2 b5 02 50
        E 0 95 45 64
        E 1918 85 45 00
        E 2 b5 02 50
        E 0 95 49 64
        E 478 85 49 00
        E 2 b5 02 50
        E 0 95 47 64
        E 238 85 47 00
        E 242 b5 02 50
        E 0 95 45 64
        E 958 85 45 00
        E 2 b5 02 50
        E 0 95 44 64
        E 958 85 44 00
        E 2 b5 02 50
        E 0 95 40 64
        E 1918 85 40 00
        E 2 b5 02 50
        E 0 95 42 64
        E 958 85 42 00
        E 2 b5 02 50
        E 0 95 43 64
        E 1438 85 43 00
        E 2 b5 02 50
        E 0 95 45 64
        E 478 85 45 00
        E 2 b5 02 50
        E 0 95 47 64
        E 478 85 47 00
        E 2 b5 02 50
        E 0 95 49 64
        E 478 85 49 00
        E 2 b5 02 50
        E 0 95 49 64
        E 478 85 49 00
        E 2 b5 02 50
        E 0 95 4a 64
        E 1438 85 4a 00
        E 2 b5 02 50
        E 0 95 49 64
        E 958 85 49 00
        E 2 b5 02 50
        E 0 95 47 64
        E 478 85 47 00
        E 2 b5 02 50
        E 0 95 49 64
        E 238 85 49 00
        E 242 b5 02 50
        E 0 95 47 64
        E 118 85 47 00
        E 2 95 49 64
        E 118 85 49 00
        E 2 95 47 64
        E 238 85 47 00
        E 2 b5 02 50
        E 0 95 45 64
        E 238 85 45 00
        E 242 b5 02 50
        E 0 95 44 64
        E 958 85 44 00
        E 2 b5 02 50
        E 0 95 45 64
        E 958 85 45 00
        E 2 b5 02 50
        E 0 95 40 64
        E 958 85 40 00
        E 2 b5 02 50
        E 0 95 42 64
        E 238 85 42 00
        E 242 b5 02 50
        E 0 95 44 64
        E 238 85 44 00
        E 242 b5 02 50
        E 0 95 45 7f
        E 1918 85 45 00
        E 2 b5 02 50
        E 0 95 4c 7f
        E 958 85 4c 00
        E 2 b5 02 50
        E 0 95 49 7f
        E 1438 85 49 00
        E 2 b5 02 50
        E 0 95 47 7f
        E 118 85 47 00
        E 2 95 49 7f
        E 118 85 49 00
        E 2 95 47 7f
        E 238 85 47 00
        E 2 b5 02 50
        E 0 95 45 7f
        E 958 85 45 00
        E 2 b5 02 50
        E 0 95 44 7f
        E 1438 85 44 00
        E 2 b5 02 50
        E 0 95 45 7f
        E 478 85 45 00
        E 2 b5 02 50
        E 0 95 47 7f
        E 958 85 47 00
        E 2 b5 02 50
        E 0 95 42 7f
        E 958 85 42 00
        E 2 b5 02 50
        E 0 95 40 7f
        E 1918 85 40 00
        E 2 b5 02 50
        E 0 95 45 7f
        E 1918 85 45 00
        E 2 b5 02 50
        E 0 95 4c 7f
        E 958 85 4c 00
        E 2 b5 02 50
        E 0 95 49 7f
        E 1438 85 49 00
        E 2 b5 02 50
        E 0 95 47 7f
        E 118 85 47 00
        E 2 95 49 7f
        E 118 85 49 00
        E 2 95 47 7f
        E 238 85 47 00
        E 2 b5 02 50
        E 0 95 45 7f
        E 958 85 45 00
        E 2 b5 02 50
        E 0 95 4a 7f
        E 1438 85 4a 00
        E 2 b5 02 50
        E 0 95 4c 7f
        E 478 85 4c 00
        E 2 b5 02 50
        E 0 95 4e 7f
        E 960 b5 02 50
        E 0 85 4e 00
        E 2 95 4e 7f
        E 238 85 4e 00
        E 0 95 50 7f
        E 1198 85 50 00
        E 2 b5 02 50
        E 0 95 51 7f
        E 238 85 51 00
        E 2 b5 02 50
        E 0 95 50 7f
        E 238 85 50 00
        E 2 b5 02 50
        E 0 95 4e 7f
        E 478 85 4e 00
        E 2 b5 02 50
        E 0 95 50 7f
        E 478 85 50 00
        E 2 b5 02 50
        E 0 95 50 7f
        E 478 85 50 00
        E 2 b5 02 50
        E 0 95 51 7f
        E 238 85 51 00
        E 242 b5 02 50
        E 0 95 51 7f
        E 478 85 51 00
        E 2 b5 02 50
        E 0 95 4c 7f
        E 238 85 4c 00
        E 242 b5 02 50
        E 0 95 4c 7f
        E 960 b5 02 50
        E 0 95 4e 7f
        E 20 85 4c 00
        E 220 85 4e 00
        E 0 95 4f 7f
        E 1198 85 4f 00
        E 2 b5 02 50
        E 0 95 4e 7f
        E 118 85 4e 00
        E 2 95 4f 7f
        E 118 85 4f 00
        E 2 95 4e 7f
        E 238 85 4e 00
        E 2 b5 02 50
        E 0 95 4c 7f
        E 958 85 4c 00
        E 2 b5 02 50
        E 0 95 4a 7f
        E 1438 85 4a 00
        E 2 b5 02 50
        E 0 95 49 7f
        E 478 85 49 00
        E 2 b5 02 50
        E 0 95 45 7f
        E 958 85 45 00
        E 2 b5 02 50
        E 0 95 47 7f
        E 1438 85 47 00
        E 2 b5 02 50
        E 0 95 49 7f
        E 478 85 49 00
        E 2 b5 02 50
        E 0 95 4a 7f
        E 958 85 4a 00
        E 2 b5 02 50
        E 0 95 4c 7f
        E 958 85 4c 00
        E 2 b5 02 50
        E 0 95 4c 7f
        E 478 85 4c 00
        E 482 b5 02 50
        E 0 95 45 7f
        E 478 85 45 00
        E 482 b5 02 50
        E 0 95 4a 7f
        E 1918 85 4a 00
        E 2 b5 02 50
        E 0 95 49 7f
        E 478 85 49 00
        E 2 b5 02 50
        E 0 95 4a 7f
        E 238 85 4a 00
        E 2 b5 02 50
        E 0 95 49 7f
        E 238 85 49 00
        E 2 b5 02 50
        E 0 95 47 7f
        E 1438 85 47 00
        E 2 b5 02 50
        E 0 95 45 7f
        E 238 85 45 00
        E 242 b5 02 50
        E 0 95 44 7f
        E 958 85 44 00
        E 2 b5 02 50
        E 0 95 45 7f
        E 2878 85 45 00
        E 45122 b5 02 50
        E 0 95 40 7f
        E 958 85 40 00
        E 2 b5 02 50
        E 0 95 45 7f
        E 1918 85 45 00
        E 2 b5 02 50
        E 0 95 4c 7f
        E 958 85 4c 00
        E 2 b5 02 50
        E 0 95 49 7f
        E 1438 85 49 00
        E 2 b5 02 50
        E 0 95 47 7f
        E 118 85 47 00
        E 2 95 49 7f
        E 118 85 49 00
        E 2 95 47 7f
        E 238 85 47 00
        E 2 b5 02 50
        E 0 95 45 7f
        E 958 85 45 00
        E 2 b5 02 50
        E 0 95 44 7f
        E 1438 85 44 00
        E 2 b5 02 50
        E 0 95 45 7f
        E 478 85 45 00
        E 2 b5 02 50
        E 0 95 47 7f
        E 958 85 47 00
        E 2 b5 02 50
        E 0 95 42 7f
        E 958 85 42 00
        E 2 b5 02 50
        E 0 95 40 7f
        E 1918 85 40 00
        E 2 b5 02 50
        E 0 95 45 7f
        E 1918 85 45 00
        E 2 b5 02 50
        E 0 95 4c 7f
        E 958 85 4c 00
        E 2 b5 02 50
        E 0 95 49 7f
        E 1438 85 49 00
        E 2 b5 02 50
        E 0 95 47 7f
        E 118 85 47 00
        E 2 95 49 7f
        E 118 85 49 00
        E 2 95 47 7f
        E 238 85 47 00
        E 2 b5 02 50
        E 0 95 45 7f
        E 958 85 45 00
        E 2 b5 02 50
        E 0 95 4a 7f
        E 1438 85 4a 00
        E 2 b5 02 50
        E 0 95 4c 7f
        E 478 85 4c 00
        E 2 b5 02 50
        E 0 95 4e 7f
        E 960 b5 02 50
        E 0 85 4e 00
        E 2 95 4e 7f
        E 238 85 4e 00
        E 0 95 50 7f
        E 1198 85 50 00
        E 2 b5 02 50
        E 0 95 51 7f
        E 238 85 51 00
        E 2 b5 02 50
        E 0 95 50 7f
        E 238 85 50 00
        E 2 b5 02 50
        E 0 95 4e 7f
        E 478 85 4e 00
        E 2 b5 02 50
        E 0 95 50 7f
        E 478 85 50 00
        E 2 b5 02 50
        E 0 95 50 7f
        E 478 85 50 00
        E 2 b5 02 50
        E 0 95 51 7f
        E 238 85 51 00
        E 242 b5 02 50
        E 0 95 51 7f
        E 478 85 51 00
        E 2 b5 02 50
        E 0 95 4c 7f
        E 238 85 4c 00
        e 242 b5 02 50
        e 0 95 4c 7f
        E 960 b5 02 50
        e 0 85 4c 00
        E 0 95 4e 7f
        E 120 85 4e 00
        E 0 95 4f 7f
        E 1318 85 4f 00
        E 2 b5 02 50
        E 0 95 4e 7f
        E 118 85 4e 00
        E 2 95 4f 7f
        E 118 85 4f 00
        E 2 95 4e 7f
        E 238 85 4e 00
        E 2 b5 02 50
        E 0 95 4c 7f
        E 958 85 4c 00
        E 2 b5 02 50
        E 0 95 4a 7f
        E 1438 85 4a 00
        E 2 b5 02 50
        E 0 95 49 7f
        E 478 85 49 00
        E 2 b5 02 50
        E 0 95 45 7f
        E 958 85 45 00
        E 2 b5 02 50
        E 0 95 47 7f
        E 1438 85 47 00
        E 2 b5 02 50
        E 0 95 49 7f
        E 478 85 49 00
        E 2 b5 02 50
        E 0 95 4a 7f
        E 958 85 4a 00
        E 2 b5 02 50
        E 0 95 4c 7f
        E 958 85 4c 00
        E 2 b5 02 50
        E 0 95 4c 7f
        E 478 85 4c 00
        E 482 b5 02 50
        E 0 95 45 7f
        E 478 85 45 00
        E 482 b5 02 50
        E 0 95 4a 7f
        E 1918 85 4a 00
        E 2 b5 02 50
        E 0 95 49 7f
        E 478 85 49 00
        E 2 b5 02 50
        E 0 95 4a 7f
        E 238 85 4a 00
        E 2 b5 02 50
        E 0 95 49 7f
        E 238 85 49 00
        E 2 b5 02 50
        E 0 95 47 7f
        E 1438 85 47 00
        E 2 b5 02 50
        E 0 95 45 7f
        E 238 85 45 00
        E 242 b5 02 50
        E 0 95 44 7f
        E 958 85 44 00
        E 2 b5 02 50
        E 0 95 45 7f
        E 2878 85 45 00
        E 90242 b5 02 50
        E 0 95 4c 7f
        E 478 85 4c 00
        E 2 b5 02 50
        E 0 95 4a 7f
        E 238 85 4a 00
        E 242 b5 02 50
        E 0 95 48 7f
        E 58 85 48 00
        E 62 95 4a 7f
        E 58 85 4a 00
        E 62 95 48 7f
        E 118 85 48 00
        E 122 b5 02 50
        E 0 95 47 7f
        E 238 85 47 00
        E 242 b5 02 50
        E 0 95 45 7f
        E 1918 85 45 00
        E 2 b5 02 50
        E 0 95 47 7f
        E 958 85 47 00
        E 2 b5 02 50
        E 0 95 43 7f
        E 1918 85 43 00
        E 2 b5 02 50
        E 0 95 47 7f
        E 958 85 47 00
        E 2 b5 02 50
        E 0 95 45 7f
        E 1438 85 45 00
        E 2 b5 02 50
        E 0 95 47 7f
        E 478 85 47 00
        E 2 b5 02 50
        E 0 95 48 7f
        E 958 85 48 00
        E 2 b5 02 50
        E 0 95 48 7f
        E 478 85 48 00
        E 2 b5 02 50
        E 0 95 4a 7f
        E 958 85 4a 00
        E 2 b5 02 50
        E 0 95 48 7f
        E 118 85 48 00
        E 2 95 4a 7f
        E 118 85 4a 00
        E 2 95 48 7f
        E 238 85 48 00
        E 2 b5 02 50
        E 0 95 47 7f
        E 958 85 47 00
        E 2 b5 02 50
        E 0 95 45 7f
        E 116 85 45 00
        E 2 95 47 7f
        E 116 85 47 00
        E 6 95 45 7f
        E 1678 85 45 00
        E 2 b5 02 50
        E 0 95 47 7f
        E 958 85 47 00
        E 2 b5 02 50
        E 0 95 43 7f
        E 1918 85 43 00
        E 2 b5 02 50
        E 0 95 47 7f
        E 958 85 47 00
        E 2 b5 02 50
        E 0 95 47 7f
        E 478 85 47 00
        E 482 b5 02 50
        E 0 95 45 7f
        E 116 85 45 00
        E 2 95 47 7f
        E 116 85 47 00
        E 4 95 45 7f
        E 1196 85 45 00
        E 6 b5 02 50
        E 0 95 43 7f
        E 478 85 43 00
        E 2 b5 02 50
        E 0 95 45 7f
        E 958 85 45 00
        E 2 b5 02 50
        E 0 95 4c 7f
        E 478 85 4c 00
        E 2 b5 02 50
        E 0 95 4a 7f
        E 238 85 4a 00
        E 242 b5 02 50
        E 0 95 48 7f
        E 118 85 48 00
        E 2 95 4a 7f
        E 118 85 4a 00
        E 2 95 48 7f
        E 238 85 48 00
        E 2 b5 02 50
        E 0 95 47 7f
        E 238 85 47 00
        E 242 b5 02 50
        E 0 95 45 7f
        E 478 85 45 00
        E 482 b5 02 50
        E 0 95 45 7f
        E 958 85 45 00
        E 2 b5 02 50
        E 0 95 47 7f
        E 958 85 47 00
        E 2 b5 02 50
        E 0 95 43 7f
        E 1918 85 43 00
        E 2 b5 02 50
        E 0 95 47 7f
        E 958 85 47 00
        E 2 b5 02 50
        E 0 95 45 7f
        E 478 85 45 00
        E 482 b5 02 50
        E 0 95 45 7f
        E 478 85 45 00
        E 2 b5 02 50
        E 0 95 47 7f
        E 478 85 47 00
        E 2 b5 02 50
        E 0 95 48 7f
        E 958 85 48 00
        E 2 b5 02 50
        E 0 95 48 7f
        E 478 85 48 00
        E 2 b5 02 50
        E 0 95 4a 7f
        E 958 85 4a 00
        E 2 b5 02 50
        E 0 95 48 7f
        E 118 85 48 00
        E 2 95 4a 7f
        E 118 85 4a 00
        E 2 95 48 7f
        E 238 85 48 00
        E 2 b5 02 50
        E 0 95 47 7f
        E 958 85 47 00
        E 2 b5 02 50
        E 0 95 48 7f
        E 1438 85 48 00
        E 2 b5 02 50
        E 0 95 47 7f
        E 118 85 47 00
        E 2 95 48 7f
        E 118 85 48 00
        E 2 95 47 7f
        E 238 85 47 00
        E 2 b5 02 50
        E 0 95 45 7f
        E 958 85 45 00
        E 2 b5 02 50
        E 0 95 47 7f
        E 1438 85 47 00
        E 2 b5 02 50
        E 0 95 45 7f
        E 478 85 45 00
        E 2 b5 02 50
        E 0 95 43 7f
        E 958 85 43 00
        E 2 b5 02 50
        E 0 95 43 7f
        E 478 85 43 00
        E 482 b5 02 50
        E 0 95 45 7f
        E 2878 85 45 00
        E 2 b5 02 50
        E 0 95 58 64
        E 478 85 58 00
        E 2 b5 02 50
        E 0 95 56 64
        E 238 85 56 00
        E 242 b5 02 50
        E 0 95 54 64
        E 118 85 54 00
        E 2 95 56 64
        E 118 85 56 00
        E 2 95 54 64
        E 238 85 54 00
        E 2 b5 02 50
        E 0 95 53 64
        E 238 85 53 00
        E 242 b5 02 50
        E 0 95 51 64
        E 1918 85 51 00
        E 2 b5 02 50
        E 0 95 53 64
        E 958 85 53 00
        E 2 b5 02 50
        E 0 95 4f 64
        E 1918 85 4f 00
        E 2 b5 02 50
        E 0 95 53 64
        E 958 85 53 00
        E 2 b5 02 50
        E 0 95 51 64
        E 478 85 51 00
        E 482 b5 02 50
        E 0 95 51 64
        E 478 85 51 00
        E 2 b5 02 50
        E 0 95 53 64
        E 478 85 53 00
        E 2 b5 02 50
        E 0 95 54 64
        E 958 85 54 00
        E 2 b5 02 50
        E 0 95 54 64
        E 478 85 54 00
        E 2 b5 02 50
        E 0 95 56 64
        E 958 85 56 00
        E 2 b5 02 50
        E 0 95 54 64
        E 118 85 54 00
        E 2 95 56 64
        E 118 85 56 00
        E 2 95 54 64
        E 238 85 54 00
        E 2 b5 02 50
        E 0 95 53 64
        E 958 85 53 00
        E 2 b5 02 50
        E 0 95 51 64
        E 116 85 51 00
        E 2 95 53 64
        E 116 85 53 00
        E 6 95 51 64
        E 1678 85 51 00
        E 2 b5 02 50
        E 0 95 53 64
        E 958 85 53 00
        E 2 b5 02 50
        E 0 95 4f 64
        E 1918 85 4f 00
        E 2 b5 02 50
        E 0 95 53 64
        E 958 85 53 00
        E 2 b5 02 50
        E 0 95 53 64
        E 478 85 53 00
        E 482 b5 02 50
        E 0 95 51 64
        E 116 85 51 00
        E 2 95 53 64
        E 116 85 53 00
        E 4 95 51 64
        E 1196 85 51 00
        E 6 b5 02 50
        E 0 95 4f 64
        E 478 85 4f 00
        E 2 b5 02 50
        E 0 95 51 64
        E 958 85 51 00
        E 2 b5 02 50
        E 0 95 58 64
        E 478 85 58 00
        E 2 b5 02 50
        E 0 95 56 64
        E 238 85 56 00
        E 242 b5 02 50
        E 0 95 54 64
        E 118 85 54 00
        E 2 95 56 64
        E 118 85 56 00
        E 2 95 54 64
        E 238 85 54 00
        E 2 b5 02 50
        E 0 95 53 64
        E 238 85 53 00
        E 242 b5 02 50
        E 0 95 51 64
        E 478 85 51 00
        E 482 b5 02 50
        E 0 95 51 64
        E 958 85 51 00
        E 2 b5 02 50
        E 0 95 53 64
        E 958 85 53 00
        E 2 b5 02 50
        E 0 95 4f 64
        E 1918 85 4f 00
        E 2 b5 02 50
        E 0 95 53 64
        E 958 85 53 00
        E 2 b5 02 50
        E 0 95 51 64
        E 478 85 51 00
        E 482 b5 02 50
        E 0 95 51 64
        E 478 85 51 00
        E 2 b5 02 50
        E 0 95 53 64
        E 478 85 53 00
        E 2 b5 02 50
        E 0 95 54 64
        E 958 85 54 00
        E 2 b5 02 50
        E 0 95 54 64
        E 478 85 54 00
        E 2 b5 02 50
        E 0 95 56 64
        E 958 85 56 00
        E 2 b5 02 50
        E 0 95 54 64
        E 118 85 54 00
        E 2 95 56 64
        E 118 85 56 00
        E 2 95 54 64
        E 238 85 54 00
        E 2 b5 02 50
        E 0 95 53 64
        E 958 85 53 00
        E 2 b5 02 50
        E 0 95 54 64
        E 1438 85 54 00
        E 2 b5 02 50
        E 0 95 53 64
        E 478 85 53 00
        E 2 b5 02 50
        E 0 95 51 64
        E 958 85 51 00
        E 2 b5 02 50
        E 0 95 53 64
        E 1438 85 53 00
        E 2 b5 02 50
        E 0 95 51 64
        E 478 85 51 00
        E 2 b5 02 50
        E 0 95 4f 64
        E 958 85 4f 00
        E 2 b5 02 50
        E 0 95 4f 64
        E 0 95 51 64
        E 5758 85 4f 00
        E 0 85 51 00
        E 5762 b0 7b 00
        CCINTERP 32
        CHASE_CC_TAKEOFFS 1
        GUID {258B6C8D-BB01-4660-853F-7613D2777E0D}
        IGNTEMPO 0 120 4 4
        SRCCOLOR 286
        VELLANE -1 150 0 0 1
        CFGEDITVIEW 275642.360939 0.065334 12 12 0 -1 0 0 0 0.5
        KEYSNAP 0
        TRACKSEL 0
        EVTFILTER 0 -1 -1 -1 -1 0 0 0 0 -1 -1 -1 -1 0 -1 0 -1 -1
        CFGEDIT 1 1 0 1 0 0 1 1 1 1 1 0.02083333 2584 183 3555 777 0 0 0 1 0.08333333 0 0 1 0 0.5 0 0 1 64
      >
    >
  >
  <TRACK {269400DA-CF95-45D9-8F00-996ACBE34B3F}
    NAME Strings
    PEAKCOL 16576
    BEAT -1
    AUTOMODE 0
    VOLPAN 1 0 -1 -1 1
    MUTESOLO 0 0 0
    IPHASE 0
    PLAYOFFS 0 1
    ISBUS 0 0
    BUSCOMP 0 0 0 0 0
    SHOWINMIX 1 0.6667 0.5 1 0.5 0 0 0
    FIXEDLANES 9 0 0
    SEL 0
    REC 0 0 1 0 0 0 0 0
    VU 2
    TRACKHEIGHT 0 0 0 0 0 0 0
    INQ 0 0 0 0.5 100 0 0 100
    NCHAN 2
    FX 1
    TRACKID {269400DA-CF95-45D9-8F00-996ACBE34B3F}
    PERF 0
    MIDIOUT -1
    MAINSEND 1 0
    <FXCHAIN
      WNDRECT 1944 155 655 408
      SHOW 0
      LASTSEL 0
      DOCKED 0
      BYPASS 0 0 0
      <VST "VSTi: sforzando (x86) (Plogue Art et Technologie, Inc)" "sforzando VST_x86.dll" 0 "" 1347176273<565354504C475173666F727A616E646F> ""
        UUdMUO5e7f4AAAAAAgAAAAEAAAAAAAAAAgAAAAAAAAD4AQAAAQAAAAAAEAA=
        Q0VHUDoFAAB4nI2UTW+bQBCG75X6H1Z7SqUmsJjYsQSJ3MaqOFiNRHJGA4xdlP1wYddK/30HbGMUJQIuMLPPzuy8y0z08KYkO2DdVEbHXNz4nD3cf/0SreoKUjjgYG25
        WHC2r03pCps8ksMXISeW0ROlaG2ldw3760BW9h8tc9bYGkGRO+azgDMFb2nnWUlpis2PmN8Kcm+Sx+S3sxtTYrcLnDUKLCVNpbEx94cuiQeUMa80xXYKteVMVgc8biay
        KShq+wIJ5BDsmmF7pJumkCf3T9qFdcznhO+kyUE+O90dkhxeXxDlZlXZOTUoit5sA+/JvKIyOlsrrEGWWWqcLrdG2+zqZV+CxTJbuZ1rbCZm37PAD8S3rN3n+77nh3cZ
        1U+ZsrVuUOUSOctBvyaUJSSCX8Sm7+IPaN3Wek2a7I0kSechZ/Zy1n2e1aB3eEIsGU23oAafprB0jb02FEE529mnSrtqN1Dpc7UHkO54E96HiOgR/zMkGEdm40g4jtyO
        I/NxZDGO3I0jy3FE+BOYCfqKCQKLCQqLCRKLzzV+ghrUOwXf/zYXRszER1Tkta12NtbbLRZ22Hynjj724ErlFepi0DjdFBpOqXDZTamiHwl9ol8vyTkoFJamRnIZMJ29
        7u0GJR0Dy2fIj93VBom881Qk4z/QvGVo
        AAAQAAAA
      >
      FLOATPOS 0 0 0 0
      FXID {BE9195C2-5E4D-44D2-B293-EA6D849A18C0}
      WAK 0 0
    >
    <ITEM
      POSITION 0
      SNAPOFFS 0
      LENGTH 196.8
      LOOP 1
      ALLTAKES 0
      FADEIN 1 0 0 1 0 0 0
      FADEOUT 1 0 0 1 0 0 0
      MUTE 0 0
      SEL 0
      IGUID {445D0E8D-7AC7-4759-B3B5-0C1E056FA27C}
      IID 9
      NAME "Sleigh Bells - mus_downstream.mid [chan 7]"
      VOLPAN 1 0 1 -1
      SOFFS 0 0
      PLAYRATE 1 1 0 -1 0 0.0025
      CHANMODE 0
      GUID {1E28FA19-4F74-4F03-89B5-00494B7652AD}
      <SOURCE MIDI
        HASDATA 1 960 QN
        CCINTERP 32
        POOLEDEVTS {810B0BE4-F41A-4C33-ACE6-7A96608AE9E8}
        E 0 c6 30 00
        E 0 b6 07 1d
        E 0 b6 64 00
        E 0 b6 65 00
        E 0 b6 06 0c
        E 0 b6 64 7f
        E 0 b6 65 7f
        E 0 b6 0a 40
        E 0 b6 5b 00
        E 0 b6 5d 00
        E 0 b6 02 50
        E 0 96 39 7f
        E 0 96 40 7f
        E 0 b6 79 00
        E 5758 86 39 00
        E 0 86 40 00
        E 2 b6 02 50
        E 0 96 39 7f
        E 0 96 40 7f
        E 2878 86 39 00
        E 0 86 40 00
        E 2 b6 02 50
        E 0 96 39 7f
        E 0 96 42 7f
        E 2878 86 39 00
        E 0 86 42 00
        E 2 b6 02 50
        E 0 96 3b 7f
        E 0 96 44 7f
        E 2878 86 3b 00
        E 0 86 44 00
        E 2 b6 02 50
        E 0 96 3e 7f
        E 0 96 42 7f
        E 2878 86 3e 00
        E 0 86 42 00
        E 2 b6 02 50
        E 0 96 39 7f
        E 0 96 40 7f
        E 2878 86 39 00
        E 0 86 40 00
        E 2 b6 02 50
        E 0 96 39 7f
        E 0 96 42 7f
        E 2878 86 39 00
        E 0 86 42 00
        E 2 b6 02 50
        E 0 96 3e 7f
        E 0 96 42 7f
        E 2878 86 3e 00
        E 0 86 42 00
        E 2 b6 02 50
        E 0 96 3b 7f
        E 0 96 44 7f
        E 2878 86 3b 00
        E 0 86 44 00
        E 2 b6 02 50
        E 0 96 3d 7f
        E 0 96 45 7f
        E 2878 86 3d 00
        E 0 86 45 00
        E 2 b6 02 50
        E 0 96 3e 7f
        E 0 96 47 7f
        E 2878 86 3e 00
        E 0 86 47 00
        E 2 b6 02 50
        E 0 96 3e 7f
        E 0 96 45 7f
        E 2878 86 3e 00
        E 0 86 45 00
        E 2 b6 02 50
        E 0 96 3b 7f
        E 0 96 44 7f
        E 2878 86 3b 00
        E 0 86 44 00
        E 2 b6 02 50
        E 0 96 3d 7f
        E 0 96 45 7f
        E 2878 86 3d 00
        E 0 86 45 00
        E 2 b6 02 50
        E 0 96 3b 7f
        E 0 96 43 7f
        E 2878 86 3b 00
        E 0 86 43 00
        E 2 b6 02 50
        E 0 96 3b 7f
        E 0 96 44 7f
        E 2878 86 3b 00
        E 0 86 44 00
        E 2 b6 02 50
        E 0 96 3d 7f
        E 0 96 40 7f
        E 2878 86 3d 00
        E 0 86 40 00
        E 2 b6 02 50
        E 0 96 39 7f
        E 0 96 40 7f
        E 2878 86 39 00
        E 0 86 40 00
        E 2 b6 02 50
        E 0 96 39 7f
        E 0 96 42 7f
        E 2878 86 39 00
        E 0 86 42 00
        E 2 b6 02 50
        E 0 96 3b 7f
        E 0 96 44 7f
        E 2878 86 3b 00
        E 0 86 44 00
        E 2 b6 02 50
        E 0 96 3e 7f
        E 0 96 42 7f
        E 1438 86 3e 00
        E 0 86 42 00
        E 2 b6 02 50
        E 0 96 3b 7f
        E 0 96 44 7f
        E 1438 86 3b 00
        E 0 86 44 00
        E 2 b6 02 50
        E 0 96 39 7f
        E 0 96 40 7f
        E 2878 86 39 00
        E 0 86 40 00
        E 2 b6 02 50
        E 0 96 39 7f
        E 0 96 42 7f
        E 2878 86 39 00
        E 0 86 42 00
        E 2 b6 02 50
        E 0 96 3e 7f
        E 0 96 42 7f
        E 2878 86 3e 00
        E 0 86 42 00
        E 2 b6 02 50
        E 0 96 3b 7f
        E 0 96 44 7f
        E 2878 86 3b 00
        E 0 86 44 00
        E 2 b6 02 50
        E 0 96 3d 7f
        E 0 96 45 7f
        E 2878 86 3d 00
        E 0 86 45 00
        E 2 b6 02 50
        E 0 96 3e 7f
        E 0 96 47 7f
        E 2878 86 3e 00
        E 0 86 47 00
        E 2 b6 02 50
        E 0 96 3e 7f
        E 0 96 45 7f
        E 2878 86 3e 00
        E 0 86 45 00
        E 2 b6 02 50
        E 0 96 3b 7f
        E 0 96 44 7f
        E 2878 86 3b 00
        E 0 86 44 00
        E 2 b6 02 50
        E 0 96 3d 7f
        E 0 96 45 7f
        E 2878 86 3d 00
        E 0 86 45 00
        E 2 b6 02 50
        E 0 96 3b 7f
        E 0 96 43 7f
        E 2878 86 3b 00
        E 0 86 43 00
        E 2 b6 02 50
        E 0 96 3b 7f
        E 0 96 44 7f
        E 2878 86 3b 00
        E 0 86 44 00
        E 2 b6 02 50
        E 0 96 3d 7f
        E 0 96 40 7f
        E 2878 86 3d 00
        E 0 86 40 00
        E 2 b6 02 50
        E 0 96 3b 64
        E 0 96 40 64
        E 5758 86 3b 00
        E 0 86 40 00
        E 2 b6 02 50
        E 0 96 3b 64
        E 0 96 3e 64
        E 2878 86 3b 00
        E 0 86 3e 00
        E 2 b6 02 50
        E 0 96 39 64
        E 0 96 40 64
        E 2878 86 39 00
        E 0 86 40 00
        E 2 b6 02 50
        E 0 96 37 64
        E 0 96 3e 64
        E 2878 86 37 00
        E 0 86 3e 00
        E 2 b6 02 50
        E 0 96 39 64
        E 0 96 3d 64
        E 2878 86 39 00
        E 0 86 3d 00
        E 2 b6 02 50
        E 0 96 39 64
        E 0 96 3e 64
        E 2878 86 39 00
        E 0 86 3e 00
        E 2 b6 02 50
        E 0 96 38 64
        E 0 96 40 64
        E 2878 86 38 00
        E 0 86 40 00
        E 2 b6 02 50
        E 0 96 3b 64
        E 0 96 3e 64
        E 2878 86 3b 00
        E 0 86 3e 00
        E 2 b6 02 50
        E 0 96 3b 64
        E 0 96 3e 64
        E 2878 86 3b 00
        E 0 86 3e 00
        E 2 b6 02 50
        E 0 96 39 64
        E 0 96 3d 64
        E 2878 86 39 00
        E 0 86 3d 00
        E 2 b6 02 50
        E 0 96 38 64
        E 0 96 40 64
        E 2878 86 38 00
        E 0 86 40 00
        E 2 b6 02 50
        E 0 96 3b 64
        E 0 96 3e 64
        E 2878 86 3b 00
        E 0 86 3e 00
        E 2 b6 02 50
        E 0 96 3b 64
        E 0 96 3e 64
        E 2878 86 3b 00
        E 0 86 3e 00
        E 2 b6 02 50
        E 0 96 38 64
        E 0 96 3e 64
        E 2878 86 38 00
        E 0 86 3e 00
        E 2 b6 02 50
        E 0 96 39 64
        E 0 96 3d 64
        E 2878 86 39 00
        E 0 86 3d 00
        E 2 b6 02 50
        E 0 96 39 7f
        E 0 96 40 7f
        E 2878 86 39 00
        E 0 86 40 00
        E 2 b6 02 50
        E 0 96 39 7f
        E 0 96 42 7f
        E 2878 86 39 00
        E 0 86 42 00
        E 2 b6 02 50
        E 0 96 3b 7f
        E 0 96 44 7f
        E 2878 86 3b 00
        E 0 86 44 00
        E 2 b6 02 50
        E 0 96 3e 7f
        E 0 96 42 7f
        E 1438 86 3e 00
        E 0 86 42 00
        E 2 b6 02 50
        E 0 96 3b 7f
        E 0 96 44 7f
        E 1438 86 3b 00
        E 0 86 44 00
        E 2 b6 02 50
        E 0 96 39 7f
        E 0 96 40 7f
        E 2878 86 39 00
        E 0 86 40 00
        E 2 b6 02 50
        E 0 96 39 7f
        E 0 96 42 7f
        E 2878 86 39 00
        E 0 86 42 00
        E 2 b6 02 50
        E 0 96 3e 7f
        E 0 96 42 7f
        E 2878 86 3e 00
        E 0 86 42 00
        E 2 b6 02 50
        E 0 96 3b 7f
        E 0 96 44 7f
        E 2878 86 3b 00
        E 0 86 44 00
        E 2 b6 02 50
        E 0 96 3d 7f
        E 0 96 45 7f
        E 2878 86 3d 00
        E 0 86 45 00
        E 2 b6 02 50
        E 0 96 3e 7f
        E 0 96 47 7f
        E 2878 86 3e 00
        E 0 86 47 00
        E 2 b6 02 50
        E 0 96 3e 7f
        E 0 96 45 7f
        E 2878 86 3e 00
        E 0 86 45 00
        E 2 b6 02 50
        E 0 96 3b 7f
        E 0 96 44 7f
        E 2878 86 3b 00
        E 0 86 44 00
        E 2 b6 02 50
        E 0 96 3d 7f
        E 0 96 45 7f
        E 2878 86 3d 00
        E 0 86 45 00
        E 2 b6 02 50
        E 0 96 3b 7f
        E 0 96 43 7f
        E 2878 86 3b 00
        E 0 86 43 00
        E 2 b6 02 50
        E 0 96 3b 7f
        E 0 96 44 7f
        E 2878 86 3b 00
        E 0 86 44 00
        E 2 b6 02 50
        E 0 96 3d 7f
        E 0 96 40 7f
        E 2878 86 3d 00
        E 0 86 40 00
        E 2 b6 02 50
        E 0 96 39 7f
        E 0 96 42 7f
        E 2878 86 39 00
        E 0 86 42 00
        E 2 b6 02 50
        E 0 96 39 7f
        E 0 96 40 7f
        E 2878 86 39 00
        E 0 86 40 00
        E 2 b6 02 50
        E 0 96 39 7f
        E 0 96 42 7f
        E 2878 86 39 00
        E 0 86 42 00
        E 2 b6 02 50
        E 0 96 39 7f
        E 0 96 40 7f
        E 2878 86 39 00
        E 0 86 40 00
        E 2 b6 02 50
        E 0 96 39 7f
        E 0 96 42 7f
        E 2878 86 39 00
        E 0 86 42 00
        E 2 b6 02 50
        E 0 96 39 7f
        E 0 96 40 7f
        E 2878 86 39 00
        E 0 86 40 00
        E 2 b6 02 50
        E 0 96 39 7f
        E 0 96 3e 7f
        E 2878 86 39 00
        E 0 86 3e 00
        E 2 b6 02 50
        E 0 96 38 7f
        E 0 96 40 7f
        E 2878 86 38 00
        E 0 86 40 00
        E 2 b6 02 50
        E 0 96 39 7f
        E 0 96 3d 7f
        E 2878 86 39 00
        E 0 86 3d 00
        E 2 b6 02 50
        E 0 96 39 7f
        E 0 96 3d 7f
        E 2878 86 39 00
        E 0 86 3d 00
        E 2 b6 02 50
        E 0 96 39 7f
        E 0 96 3e 7f
        E 2878 86 39 00
        E 0 86 3e 00
        E 2 b6 02 50
        E 0 96 38 7f
        E 0 96 40 7f
        E 2878 86 38 00
        E 0 86 40 00
        E 2 b6 02 50
        E 0 96 39 7f
        E 0 96 40 7f
        E 2878 86 39 00
        E 0 86 40 00
        E 2 b6 02 50
        E 0 96 3b 7f
        E 0 96 3e 7f
        E 2878 86 3b 00
        E 0 86 3e 00
        E 2 b6 02 50
        E 0 96 38 7f
        E 0 96 3e 7f
        E 2878 86 38 00
        E 0 86 3e 00
        E 2 b6 02 50
        E 0 96 39 7f
        E 0 96 3d 7f
        E 2878 86 39 00
        E 0 86 3d 00
        E 2 b6 02 50
        E 0 96 39 7f
        E 0 96 40 7f
        E 2878 86 39 00
        E 0 86 40 00
        E 2 b6 02 50
        E 0 96 39 7f
        E 0 96 42 7f
        E 2878 86 39 00
        E 0 86 42 00
        E 2 b6 02 50
        E 0 96 3b 7f
        E 0 96 44 7f
        E 2878 86 3b 00
        E 0 86 44 00
        E 2 b6 02 50
        E 0 96 3e 7f
        E 0 96 42 7f
        E 1438 86 3e 00
        E 0 86 42 00
        E 2 b6 02 50
        E 0 96 3b 7f
        E 0 96 44 7f
        E 1438 86 3b 00
        E 0 86 44 00
        E 2 b6 02 50
        E 0 96 39 7f
        E 0 96 40 7f
        E 2878 86 39 00
        E 0 86 40 00
        E 2 b6 02 50
        E 0 96 39 7f
        E 0 96 42 7f
        E 2878 86 39 00
        E 0 86 42 00
        E 2 b6 02 50
        E 0 96 3e 7f
        E 0 96 42 7f
        E 2878 86 3e 00
        E 0 86 42 00
        E 2 b6 02 50
        E 0 96 3b 7f
        E 0 96 44 7f
        E 2878 86 3b 00
        E 0 86 44 00
        E 2 b6 02 50
        E 0 96 3d 7f
        E 0 96 45 7f
        E 2878 86 3d 00
        E 0 86 45 00
        E 2 b6 02 50
        E 0 96 3e 7f
        E 0 96 47 7f
        E 2878 86 3e 00
        E 0 86 47 00
        E 2 b6 02 50
        E 0 96 3e 7f
        E 0 96 45 7f
        E 2878 86 3e 00
        E 0 86 45 00
        E 2 b6 02 50
        E 0 96 3b 7f
        E 0 96 44 7f
        E 2878 86 3b 00
        E 0 86 44 00
        E 2 b6 02 50
        E 0 96 3d 7f
        E 0 96 45 7f
        E 2878 86 3d 00
        E 0 86 45 00
        E 2 b6 02 50
        E 0 96 3b 7f
        E 0 96 43 7f
        E 2878 86 3b 00
        E 0 86 43 00
        E 2 b6 02 50
        E 0 96 3b 7f
        E 0 96 44 7f
        E 2878 86 3b 00
        E 0 86 44 00
        E 2 b6 02 50
        E 0 96 3d 7f
        E 0 96 40 7f
        E 2878 86 3d 00
        E 0 86 40 00
        E 2 b6 02 50
        E 0 96 40 7f
        E 0 96 45 7f
        E 2878 86 40 00
        E 0 86 45 00
        E 2 b6 02 50
        E 0 96 3e 7f
        E 0 96 47 7f
        E 2878 86 3e 00
        E 0 86 47 00
        E 2 b6 02 50
        E 0 96 3c 7f
        E 0 96 45 7f
        E 2878 86 3c 00
        E 0 86 45 00
        E 2 b6 02 50
        E 0 96 40 7f
        E 0 96 45 7f
        E 2878 86 40 00
        E 0 86 45 00
        E 2 b6 02 50
        E 0 96 40 7f
        E 0 96 43 7f
        E 2878 86 40 00
        E 0 86 43 00
        E 2 b6 02 50
        E 0 96 3e 7f
        E 0 96 42 7f
        E 2878 86 3e 00
        E 0 86 42 00
        E 2 b6 02 50
        E 0 96 40 7f
        E 0 96 45 7f
        E 2878 86 40 00
        E 0 86 45 00
        E 2 b6 02 50
        E 0 96 40 7f
        E 0 96 44 7f
        E 2878 86 40 00
        E 0 86 44 00
        E 2 b6 02 50
        E 0 96 40 7f
        E 0 96 45 7f
        E 2878 86 40 00
        E 0 86 45 00
        E 2 b6 02 50
        E 0 96 3e 7f
        E 0 96 47 7f
        E 2878 86 3e 00
        E 0 86 47 00
        E 2 b6 02 50
        E 0 96 43 7f
        E 0 96 48 7f
        E 2878 86 43 00
        E 0 86 48 00
        E 2 b6 02 50
        E 0 96 45 7f
        E 0 96 48 7f
        E 2878 86 45 00
        E 0 86 48 00
        E 2 b6 02 50
        E 0 96 41 7f
        E 0 96 45 7f
        E 2878 86 41 00
        E 0 86 45 00
        E 2 b6 02 50
        E 0 96 3b 7f
        E 0 96 43 7f
        E 2878 86 3b 00
        E 0 86 43 00
        E 2 b6 02 50
        E 0 96 3e 7f
        E 0 96 42 7f
        E 2878 86 3e 00
        E 0 86 42 00
        E 2 b6 02 50
        E 0 96 3e 7f
        E 0 96 45 7f
        E 2878 86 3e 00
        E 0 86 45 00
        E 2 b6 02 50
        E 0 96 40 7f
        E 0 96 45 7f
        E 2878 86 40 00
        E 0 86 45 00
        E 2 b6 02 50
        E 0 96 3e 7f
        E 0 96 47 7f
        E 2878 86 3e 00
        E 0 86 47 00
        E 2 b6 02 50
        E 0 96 3c 7f
        E 0 96 45 7f
        E 2878 86 3c 00
        E 0 86 45 00
        E 2 b6 02 50
        E 0 96 40 7f
        E 0 96 45 7f
        E 2878 86 40 00
        E 0 86 45 00
        E 2 b6 02 50
        E 0 96 40 7f
        E 0 96 43 7f
        E 2878 86 40 00
        E 0 86 43 00
        E 2 b6 02 50
        E 0 96 3e 7f
        E 0 96 42 7f
        E 2878 86 3e 00
        E 0 86 42 00
        E 2 b6 02 50
        E 0 96 40 7f
        E 0 96 45 7f
        E 2878 86 40 00
        E 0 86 45 00
        E 2 b6 02 50
        E 0 96 40 7f
        E 0 96 44 7f
        E 2878 86 40 00
        E 0 86 44 00
        E 2 b6 02 50
        E 0 96 40 7f
        E 0 96 45 7f
        E 2878 86 40 00
        E 0 86 45 00
        E 2 b6 02 50
        E 0 96 3e 7f
        E 0 96 47 7f
        E 2878 86 3e 00
        E 0 86 47 00
        E 2 b6 02 50
        E 0 96 43 7f
        E 0 96 48 7f
        E 2878 86 43 00
        E 0 86 48 00
        E 2 b6 02 50
        E 0 96 45 7f
        E 0 96 48 7f
        E 2878 86 45 00
        E 0 86 48 00
        E 2 b6 02 50
        E 0 96 41 7f
        E 0 96 45 7f
        E 2878 86 41 00
        E 0 86 45 00
        E 2 b6 02 50
        E 0 96 3b 7f
        E 0 96 43 7f
        E 2878 86 3b 00
        E 0 86 43 00
        E 2 b6 02 50
        E 0 96 3e 7f
        E 0 96 42 7f
        E 2878 86 3e 00
        E 0 86 42 00
        E 2 b6 02 50
        E 0 96 3e 7f
        E 0 96 45 7f
        E 2878 86 3e 00
        E 0 86 45 00
        E 2 b6 02 50
        E 0 96 40 7f
        E 0 96 45 7f
        E 2878 86 40 00
        E 0 86 45 00
        E 2 b6 02 50
        E 0 96 3e 7f
        E 0 96 47 7f
        E 2878 86 3e 00
        E 0 86 47 00
        E 2 b6 02 50
        E 0 96 40 7f
        E 0 96 48 7f
        E 2878 86 40 00
        E 0 86 48 00
        E 2 b6 02 50
        E 0 96 3e 7f
        E 0 96 45 7f
        E 2878 86 3e 00
        E 0 86 45 00
        E 2 b6 02 50
        E 0 96 40 7f
        E 0 96 45 7f
        E 2878 86 40 00
        E 0 86 45 00
        E 2 b6 02 50
        E 0 96 3e 7f
        E 0 96 47 7f
        E 2878 86 3e 00
        E 0 86 47 00
        E 2 b6 02 50
        E 0 96 3e 7f
        E 0 96 45 7f
        E 2878 86 3e 00
        E 0 86 45 00
        E 2 b6 02 50
        E 0 96 3e 7f
        E 0 96 45 7f
        E 2878 86 3e 00
        E 0 86 45 00
        E 2 b6 02 50
        E 0 96 40 7f
        E 0 96 45 7f
        E 2878 86 40 00
        E 0 86 45 00
        E 2 b6 02 50
        E 0 96 3e 7f
        E 0 96 47 7f
        E 2878 86 3e 00
        E 0 86 47 00
        E 2 b6 02 50
        E 0 96 40 7f
        E 0 96 48 7f
        E 2878 86 40 00
        E 0 86 48 00
        E 2 b6 02 50
        E 0 96 3e 7f
        E 0 96 45 7f
        E 2878 86 3e 00
        E 0 86 45 00
        E 2 b6 02 50
        E 0 96 3c 7f
        E 0 96 45 7f
        E 2878 86 3c 00
        E 0 86 45 00
        E 2 b6 02 50
        E 0 96 40 7f
        E 0 96 43 7f
        E 2878 86 40 00
        E 0 86 43 00
        E 2 b6 02 50
        E 0 96 3e 7f
        E 0 96 45 7f
        E 2878 86 3e 00
        E 0 86 45 00
        E 2 b6 02 50
        E 0 96 3e 7f
        E 0 96 45 7f
        E 2878 86 3e 00
        E 0 86 45 00
        E 2 b6 02 50
        E 0 96 40 7f
        E 0 96 45 7f
        E 2878 86 40 00
        E 0 86 45 00
        E 2 b6 02 50
        E 0 96 3e 7f
        E 0 96 47 7f
        E 2878 86 3e 00
        E 0 86 47 00
        E 2 b6 02 50
        E 0 96 40 7f
        E 0 96 45 7f
        E 2878 86 40 00
        E 0 86 45 00
        E 2 b6 02 50
        E 0 96 3e 7f
        E 0 96 45 7f
        E 2878 86 3e 00
        E 0 86 45 00
        E 2 b6 02 50
        E 0 96 40 7f
        E 0 96 45 7f
        E 2878 86 40 00
        E 0 86 45 00
        E 2 b6 02 50
        E 0 96 3e 7f
        E 0 96 47 7f
        E 2878 86 3e 00
        E 0 86 47 00
        E 2 b6 02 50
        E 0 96 3e 7f
        E 0 96 45 7f
        E 2878 86 3e 00
        E 0 86 45 00
        E 2 b6 02 50
        E 0 96 3e 7f
        E 0 96 45 7f
        E 2878 86 3e 00
        E 0 86 45 00
        E 2 b6 02 50
        E 0 96 40 7f
        E 0 96 45 7f
        E 2878 86 40 00
        E 0 86 45 00
        E 2 b6 02 50
        E 0 96 3e 7f
        E 0 96 47 7f
        E 2878 86 3e 00
        E 0 86 47 00
        E 2 b6 02 50
        E 0 96 40 7f
        E 0 96 48 7f
        E 2878 86 40 00
        E 0 86 48 00
        E 2 b6 02 50
        E 0 96 3e 7f
        E 0 96 45 7f
        E 2878 86 3e 00
        E 0 86 45 00
        E 2 b6 02 50
        E 0 96 3c 7f
        E 0 96 45 7f
        E 2878 86 3c 00
        E 0 86 45 00
        E 2 b6 02 50
        E 0 96 40 7f
        E 0 96 43 7f
        E 2878 86 40 00
        E 0 86 43 00
        E 2 b6 02 50
        E 0 96 39 7f
        E 0 96 43 7f
        E 5758 86 39 00
        E 0 86 43 00
        E 2 b6 02 50
        E 0 96 39 7f
        E 0 96 42 7f
        E 5758 86 39 00
        E 0 86 42 00
        E 2 b0 7b 00
        CCINTERP 32
        CHASE_CC_TAKEOFFS 1
        GUID {CD7CA53C-EB91-47CE-9755-0D0806EB6F52}
        IGNTEMPO 0 120 4 4
        SRCCOLOR 288
        VELLANE -1 150 0 0 1
      >
    >
  >
  <TRACK {2C2CAC1E-7956-4311-814C-E6636500A6A0}
    NAME Harp
    PEAKCOL 16576
    BEAT -1
    AUTOMODE 0
    VOLPAN 1 0 -1 -1 1
    MUTESOLO 0 0 0
    IPHASE 0
    PLAYOFFS 0 1
    ISBUS 0 0
    BUSCOMP 0 0 0 0 0
    SHOWINMIX 1 0.6667 0.5 1 0.5 0 0 0
    FIXEDLANES 9 0 0
    SEL 0
    REC 0 0 1 0 0 0 0 0
    VU 2
    TRACKHEIGHT 0 0 0 0 0 0 0
    INQ 0 0 0 0.5 100 0 0 100
    NCHAN 2
    FX 1
    TRACKID {2C2CAC1E-7956-4311-814C-E6636500A6A0}
    PERF 0
    MIDIOUT -1
    MAINSEND 1 0
    <FXCHAIN
      WNDRECT 1944 155 655 408
      SHOW 0
      LASTSEL 0
      DOCKED 0
      BYPASS 0 0 0
      <VST "VSTi: sforzando (x86) (Plogue Art et Technologie, Inc)" "sforzando VST_x86.dll" 0 "" 1347176273<565354504C475173666F727A616E646F> ""
        UUdMUO5e7f4AAAAAAgAAAAEAAAAAAAAAAgAAAAAAAADyAQAAAQAAAAAAEAA=
        Q0VHUC8FAAB4nI2U32+bMBDH3yftf7D8tElrwYQmiwStsjXaeIhWifYZHeCkqP7BwI66/36HkwCqWgEv4b7++Oz7hrvo7lUKcuRNW2kVU3btU3J3+/lTtGkqSOHIR2vr
        1YqSutGlLUxyj4LPQooswSdKuTGVOrTkrwVRmX+4TElrGg4S5ZguAkokvKZO2Qihi92PmN4wlHfJffLHmp0uudsF1mgJBg9NhTYx9ceS4EcuYlopzG0lV4YSUR35aTOS
        bYFZux8QgAIjV4R3V7puC3GWf+Iu3sR0ifhB6BzEo1Xukih4fUF4NqlKJyqQmL3dB96DfuFSq2wreQOizFJtVbnXymRfnuoSDC+zjT3Y1mRs8S0L/IB9zbp9vu97frjM
        fkNTU5KDekkwdYgyHRzG9+IZlOoKvEIjai3Qx2VIiRkuWOdZA+rAz4jBoHULcvSqC4P/XW8IZpDWuPhcnitxB5W6lHgEYU/2e+8irEf8j5BgGllMI+E0cjONLKeR1TTy
        fRpZTyPMn8HM8JfNMJjNcJjNsJh97PEDNCDfOPj2sxkYtmDvUZHX9dcl2O73vDDjjju38anxNjKvuCr40Dhu9IxHU7h2o6no50B/0K+n5JIUCoOjIhmmiou3fdxygdfg
        5SPkp+7qkkTeZRRi8B/5bWDw
        AAAQAAAA
      >
      FLOATPOS 0 0 0 0
      FXID {FB0AFD72-185F-4020-8329-5C05A25C5BD7}
      WAK 0 0
    >
    <ITEM
      POSITION 0
      SNAPOFFS 0
      LENGTH 196.8
      LOOP 1
      ALLTAKES 0
      FADEIN 1 0 0 1 0 0 0
      FADEOUT 1 0 0 1 0 0 0
      MUTE 0 0
      SEL 0
      IGUID {A6D846D1-A760-484C-863A-39A991161D4C}
      IID 10
      NAME "Sleigh Bells - mus_downstream.mid [chan 8]"
      VOLPAN 1 0 1 -1
      SOFFS 0 0
      PLAYRATE 1 1 0 -1 0 0.0025
      CHANMODE 0
      GUID {30206974-F850-446F-9AF7-3FD6FC170653}
      <SOURCE MIDI
        HASDATA 1 960 QN
        CCINTERP 32
        POOLEDEVTS {026E0714-FCEC-46A7-8201-27BDB0559C64}
        E 0 c7 2e 00
        E 0 b7 07 7f
        E 0 b7 64 00
        E 0 b7 65 00
        E 0 b7 06 0c
        E 0 b7 64 7f
        E 0 b7 65 7f
        E 0 b7 0a 40
        E 0 b7 5b 00
        E 0 b7 5d 00
        E 0 b7 02 50
        E 0 97 2d 7f
        E 0 b7 79 00
        E 478 87 2d 00
        E 2 b7 02 50
        E 0 97 34 7f
        E 478 87 34 00
        E 2 b7 02 50
        E 0 97 39 7f
        E 478 87 39 00
        E 2 b7 02 50
        E 0 97 34 7f
        E 478 87 34 00
        E 2 b7 02 50
        E 0 97 3d 7f
        E 478 87 3d 00
        E 2 b7 02 50
        E 0 97 34 7f
        E 478 87 34 00
        E 2 b7 02 50
        E 0 97 2d 7f
        E 478 87 2d 00
        E 2 b7 02 50
        E 0 97 34 7f
        E 478 87 34 00
        E 2 b7 02 50
        E 0 97 39 7f
        E 478 87 39 00
        E 2 b7 02 50
        E 0 97 34 7f
        E 478 87 34 00
        E 2 b7 02 50
        E 0 97 3d 7f
        E 478 87 3d 00
        E 2 b7 02 50
        E 0 97 34 7f
        E 478 87 34 00
        E 2 b7 02 50
        E 0 97 2d 7f
        E 478 87 2d 00
        E 2 b7 02 50
        E 0 97 34 7f
        E 478 87 34 00
        E 2 b7 02 50
        E 0 97 39 7f
        E 478 87 39 00
        E 2 b7 02 50
        E 0 97 34 7f
        E 478 87 34 00
        E 2 b7 02 50
        E 0 97 3d 7f
        E 478 87 3d 00
        E 2 b7 02 50
        E 0 97 2d 7f
        E 478 87 2d 00
        E 2 b7 02 50
        E 0 97 2a 7f
        E 478 87 2a 00
        E 2 b7 02 50
        E 0 97 31 7f
        E 478 87 31 00
        E 2 b7 02 50
        E 0 97 39 7f
        E 478 87 39 00
        E 2 b7 02 50
        E 0 97 31 7f
        E 478 87 31 00
        E 2 b7 02 50
        E 0 97 3d 7f
        E 478 87 3d 00
        E 2 b7 02 50
        E 0 97 36 7f
        E 478 87 36 00
        E 2 b7 02 50
        E 0 97 28 7f
        E 478 87 28 00
        E 2 b7 02 50
        E 0 97 34 7f
        E 478 87 34 00
        E 2 b7 02 50
        E 0 97 38 7f
        E 478 87 38 00
        E 2 b7 02 50
        E 0 97 34 7f
        E 478 87 34 00
        E 2 b7 02 50
        E 0 97 3b 7f
        E 478 87 3b 00
        E 2 b7 02 50
        E 0 97 34 7f
        E 478 87 34 00
        E 2 b7 02 50
        E 0 97 32 7f
        E 478 87 32 00
        E 2 b7 02 50
        E 0 97 36 7f
        E 478 87 36 00
        E 2 b7 02 50
        E 0 97 39 7f
        E 478 87 39 00
        E 2 b7 02 50
        E 0 97 36 7f
        E 478 87 36 00
        E 2 b7 02 50
        E 0 97 3e 7f
        E 478 87 3e 00
        E 2 b7 02 50
        E 0 97 39 7f
        E 478 87 39 00
        E 2 b7 02 50
        E 0 97 2d 7f
        E 478 87 2d 00
        E 2 b7 02 50
        E 0 97 34 7f
        E 478 87 34 00
        E 2 b7 02 50
        E 0 97 39 7f
        E 478 87 39 00
        E 2 b7 02 50
        E 0 97 34 7f
        E 478 87 34 00
        E 2 b7 02 50
        E 0 97 3d 7f
        E 478 87 3d 00
        E 2 b7 02 50
        E 0 97 2d 7f
        E 478 87 2d 00
        E 2 b7 02 50
        E 0 97 2a 7f
        E 478 87 2a 00
        E 2 b7 02 50
        E 0 97 31 7f
        E 478 87 31 00
        E 2 b7 02 50
        E 0 97 39 7f
        E 478 87 39 00
        E 2 b7 02 50
        E 0 97 31 7f
        E 478 87 31 00
        E 2 b7 02 50
        E 0 97 3d 7f
        E 478 87 3d 00
        E 2 b7 02 50
        E 0 97 36 7f
        E 478 87 36 00
        E 2 b7 02 50
        E 0 97 32 7f
        E 478 87 32 00
        E 2 b7 02 50
        E 0 97 36 7f
        E 478 87 36 00
        E 2 b7 02 50
        E 0 97 39 7f
        E 478 87 39 00
        E 2 b7 02 50
        E 0 97 36 7f
        E 478 87 36 00
        E 2 b7 02 50
        E 0 97 3e 7f
        E 478 87 3e 00
        E 2 b7 02 50
        E 0 97 39 7f
        E 478 87 39 00
        E 2 b7 02 50
        E 0 97 28 7f
        E 478 87 28 00
        E 2 b7 02 50
        E 0 97 34 7f
        E 478 87 34 00
        E 2 b7 02 50
        E 0 97 38 7f
        E 478 87 38 00
        E 2 b7 02 50
        E 0 97 34 7f
        E 478 87 34 00
        E 2 b7 02 50
        E 0 97 3b 7f
        E 478 87 3b 00
        E 2 b7 02 50
        E 0 97 34 7f
        E 478 87 34 00
        E 2 b7 02 50
        E 0 97 2d 7f
        E 478 87 2d 00
        E 2 b7 02 50
        E 0 97 34 7f
        E 478 87 34 00
        E 2 b7 02 50
        E 0 97 39 7f
        E 478 87 39 00
        E 2 b7 02 50
        E 0 97 34 7f
        E 478 87 34 00
        E 2 b7 02 50
        E 0 97 3d 7f
        E 478 87 3d 00
        E 2 b7 02 50
        E 0 97 2d 7f
        E 478 87 2d 00
        E 2 b7 02 50
        E 0 97 2b 7f
        E 478 87 2b 00
        E 2 b7 02 50
        E 0 97 32 7f
        E 478 87 32 00
        E 2 b7 02 50
        E 0 97 3b 7f
        E 478 87 3b 00
        E 2 b7 02 50
        E 0 97 37 7f
        E 478 87 37 00
        E 2 b7 02 50
        E 0 97 3e 7f
        E 478 87 3e 00
        E 2 b7 02 50
        E 0 97 32 7f
        E 478 87 32 00
        E 2 b7 02 50
        E 0 97 32 7f
        E 478 87 32 00
        E 2 b7 02 50
        E 0 97 36 7f
        E 478 87 36 00
        E 2 b7 02 50
        E 0 97 39 7f
        E 478 87 39 00
        E 2 b7 02 50
        E 0 97 36 7f
        E 478 87 36 00
        E 2 b7 02 50
        E 0 97 3e 7f
        E 478 87 3e 00
        E 2 b7 02 50
        E 0 97 39 7f
        E 478 87 39 00
        E 2 b7 02 50
        E 0 97 28 7f
        E 478 87 28 00
        E 2 b7 02 50
        E 0 97 34 7f
        E 478 87 34 00
        E 2 b7 02 50
        E 0 97 38 7f
        E 478 87 38 00
        E 2 b7 02 50
        E 0 97 34 7f
        E 478 87 34 00
        E 2 b7 02 50
        E 0 97 3b 7f
        E 478 87 3b 00
        E 2 b7 02 50
        E 0 97 34 7f
        E 478 87 34 00
        E 2 b7 02 50
        E 0 97 2d 7f
        E 478 87 2d 00
        E 2 b7 02 50
        E 0 97 34 7f
        E 478 87 34 00
        E 2 b7 02 50
        E 0 97 39 7f
        E 478 87 39 00
        E 2 b7 02 50
        E 0 97 34 7f
        E 478 87 34 00
        E 2 b7 02 50
        E 0 97 3d 7f
        E 478 87 3d 00
        E 2 b7 02 50
        E 0 97 2d 7f
        E 478 87 2d 00
        E 2 b7 02 50
        E 0 97 2b 7f
        E 478 87 2b 00
        E 2 b7 02 50
        E 0 97 32 7f
        E 478 87 32 00
        E 2 b7 02 50
        E 0 97 3b 7f
        E 478 87 3b 00
        E 2 b7 02 50
        E 0 97 37 7f
        E 478 87 37 00
        E 2 b7 02 50
        E 0 97 3e 7f
        E 478 87 3e 00
        E 2 b7 02 50
        E 0 97 32 7f
        E 478 87 32 00
        E 2 b7 02 50
        E 0 97 28 7f
        E 478 87 28 00
        E 2 b7 02 50
        E 0 97 34 7f
        E 478 87 34 00
        E 2 b7 02 50
        E 0 97 38 7f
        E 478 87 38 00
        E 2 b7 02 50
        E 0 97 34 7f
        E 478 87 34 00
        E 2 b7 02 50
        E 0 97 3b 7f
        E 478 87 3b 00
        E 2 b7 02 50
        E 0 97 34 7f
        E 478 87 34 00
        E 2 b7 02 50
        E 0 97 2d 7f
        E 478 87 2d 00
        E 2 b7 02 50
        E 0 97 34 7f
        E 478 87 34 00
        E 2 b7 02 50
        E 0 97 39 7f
        E 478 87 39 00
        E 2 b7 02 50
        E 0 97 34 7f
        E 478 87 34 00
        E 2 b7 02 50
        E 0 97 3d 7f
        E 478 87 3d 00
        E 2 b7 02 50
        E 0 97 28 7f
        E 478 87 28 00
        E 2 b7 02 50
        E 0 97 2d 7f
        E 478 87 2d 00
        E 2 b7 02 50
        E 0 97 34 7f
        E 478 87 34 00
        E 2 b7 02 50
        E 0 97 39 7f
        E 478 87 39 00
        E 2 b7 02 50
        E 0 97 34 7f
        E 478 87 34 00
        E 2 b7 02 50
        E 0 97 3d 7f
        E 478 87 3d 00
        E 2 b7 02 50
        E 0 97 2d 7f
        E 478 87 2d 00
        E 2 b7 02 50
        E 0 97 2a 7f
        E 478 87 2a 00
        E 2 b7 02 50
        E 0 97 31 7f
        E 478 87 31 00
        E 2 b7 02 50
        E 0 97 39 7f
        E 478 87 39 00
        E 2 b7 02 50
        E 0 97 31 7f
        E 478 87 31 00
        E 2 b7 02 50
        E 0 97 3d 7f
        E 478 87 3d 00
        E 2 b7 02 50
        E 0 97 36 7f
        E 478 87 36 00
        E 2 b7 02 50
        E 0 97 28 7f
        E 478 87 28 00
        E 2 b7 02 50
        E 0 97 34 7f
        E 478 87 34 00
        E 2 b7 02 50
        E 0 97 38 7f
        E 478 87 38 00
        E 2 b7 02 50
        E 0 97 34 7f
        E 478 87 34 00
        E 2 b7 02 50
        E 0 97 3b 7f
        E 478 87 3b 00
        E 2 b7 02 50
        E 0 97 34 7f
        E 478 87 34 00
        E 2 b7 02 50
        E 0 97 32 7f
        E 478 87 32 00
        E 2 b7 02 50
        E 0 97 36 7f
        E 478 87 36 00
        E 2 b7 02 50
        E 0 97 39 7f
        E 478 87 39 00
        E 2 b7 02 50
        E 0 97 34 7f
        E 478 87 34 00
        E 2 b7 02 50
        E 0 97 3b 7f
        E 478 87 3b 00
        E 2 b7 02 50
        E 0 97 38 7f
        E 478 87 38 00
        E 2 b7 02 50
        E 0 97 2d 7f
        E 478 87 2d 00
        E 2 b7 02 50
        E 0 97 34 7f
        E 478 87 34 00
        E 2 b7 02 50
        E 0 97 39 7f
        E 478 87 39 00
        E 2 b7 02 50
        E 0 97 34 7f
        E 478 87 34 00
        E 2 b7 02 50
        E 0 97 3d 7f
        E 478 87 3d 00
        E 2 b7 02 50
        E 0 97 2d 7f
        E 478 87 2d 00
        E 2 b7 02 50
        E 0 97 2a 7f
        E 478 87 2a 00
        E 2 b7 02 50
        E 0 97 31 7f
        E 478 87 31 00
        E 2 b7 02 50
        E 0 97 39 7f
        E 478 87 39 00
        E 2 b7 02 50
        E 0 97 31 7f
        E 478 87 31 00
        E 2 b7 02 50
        E 0 97 3d 7f
        E 478 87 3d 00
        E 2 b7 02 50
        E 0 97 36 7f
        E 478 87 36 00
        E 2 b7 02 50
        E 0 97 32 7f
        E 478 87 32 00
        E 2 b7 02 50
        E 0 97 36 7f
        E 478 87 36 00
        E 2 b7 02 50
        E 0 97 39 7f
        E 478 87 39 00
        E 2 b7 02 50
        E 0 97 36 7f
        E 478 87 36 00
        E 2 b7 02 50
        E 0 97 3e 7f
        E 478 87 3e 00
        E 2 b7 02 50
        E 0 97 39 7f
        E 478 87 39 00
        E 2 b7 02 50
        E 0 97 28 7f
        E 478 87 28 00
        E 2 b7 02 50
        E 0 97 34 7f
        E 478 87 34 00
        E 2 b7 02 50
        E 0 97 38 7f
        E 478 87 38 00
        E 2 b7 02 50
        E 0 97 34 7f
        E 478 87 34 00
        E 2 b7 02 50
        E 0 97 3b 7f
        E 478 87 3b 00
        E 2 b7 02 50
        E 0 97 34 7f
        E 478 87 34 00
        E 2 b7 02 50
        E 0 97 2d 7f
        E 478 87 2d 00
        E 2 b7 02 50
        E 0 97 34 7f
        E 478 87 34 00
        E 2 b7 02 50
        E 0 97 39 7f
        E 478 87 39 00
        E 2 b7 02 50
        E 0 97 34 7f
        E 478 87 34 00
        E 2 b7 02 50
        E 0 97 3d 7f
        E 478 87 3d 00
        E 2 b7 02 50
        E 0 97 2d 7f
        E 478 87 2d 00
        E 2 b7 02 50
        E 0 97 2b 7f
        E 478 87 2b 00
        E 2 b7 02 50
        E 0 97 32 7f
        E 478 87 32 00
        E 2 b7 02 50
        E 0 97 3b 7f
        E 478 87 3b 00
        E 2 b7 02 50
        E 0 97 37 7f
        E 478 87 37 00
        E 2 b7 02 50
        E 0 97 3e 7f
        E 478 87 3e 00
        E 2 b7 02 50
        E 0 97 32 7f
        E 478 87 32 00
        E 2 b7 02 50
        E 0 97 32 7f
        E 478 87 32 00
        E 2 b7 02 50
        E 0 97 36 7f
        E 478 87 36 00
        E 2 b7 02 50
        E 0 97 39 7f
        E 478 87 39 00
        E 2 b7 02 50
        E 0 97 36 7f
        E 478 87 36 00
        E 2 b7 02 50
        E 0 97 3e 7f
        E 478 87 3e 00
        E 2 b7 02 50
        E 0 97 39 7f
        E 478 87 39 00
        E 2 b7 02 50
        E 0 97 28 7f
        E 478 87 28 00
        E 2 b7 02 50
        E 0 97 34 7f
        E 478 87 34 00
        E 2 b7 02 50
        E 0 97 38 7f
        E 478 87 38 00
        E 2 b7 02 50
        E 0 97 34 7f
        E 478 87 34 00
        E 2 b7 02 50
        E 0 97 3b 7f
        E 478 87 3b 00
        E 2 b7 02 50
        E 0 97 34 7f
        E 478 87 34 00
        E 2 b7 02 50
        E 0 97 2d 7f
        E 478 87 2d 00
        E 2 b7 02 50
        E 0 97 34 7f
        E 478 87 34 00
        E 2 b7 02 50
        E 0 97 39 7f
        E 478 87 39 00
        E 2 b7 02 50
        E 0 97 34 7f
        E 478 87 34 00
        E 2 b7 02 50
        E 0 97 3d 7f
        E 478 87 3d 00
        E 2 b7 02 50
        E 0 97 2d 7f
        E 478 87 2d 00
        E 2 b7 02 50
        E 0 97 2b 7f
        E 478 87 2b 00
        E 2 b7 02 50
        E 0 97 32 7f
        E 478 87 32 00
        E 2 b7 02 50
        E 0 97 3b 7f
        E 478 87 3b 00
        E 2 b7 02 50
        E 0 97 37 7f
        E 478 87 37 00
        E 2 b7 02 50
        E 0 97 3e 7f
        E 478 87 3e 00
        E 2 b7 02 50
        E 0 97 32 7f
        E 478 87 32 00
        E 2 b7 02 50
        E 0 97 28 7f
        E 478 87 28 00
        E 2 b7 02 50
        E 0 97 34 7f
        E 478 87 34 00
        E 2 b7 02 50
        E 0 97 38 7f
        E 478 87 38 00
        E 2 b7 02 50
        E 0 97 34 7f
        E 478 87 34 00
        E 2 b7 02 50
        E 0 97 3b 7f
        E 478 87 3b 00
        E 2 b7 02 50
        E 0 97 34 7f
        E 478 87 34 00
        E 2 b7 02 50
        E 0 97 2d 7f
        E 478 87 2d 00
        E 2 b7 02 50
        E 0 97 34 7f
        E 478 87 34 00
        E 2 b7 02 50
        E 0 97 39 7f
        E 478 87 39 00
        E 2 b7 02 50
        E 0 97 34 7f
        E 478 87 34 00
        E 2 b7 02 50
        E 0 97 3d 7f
        E 478 87 3d 00
        E 2 b7 02 50
        E 0 97 2d 7f
        E 478 87 2d 00
        E 2 b7 02 50
        E 0 97 34 64
        E 478 87 34 00
        E 2 b7 02 50
        E 0 97 40 64
        E 478 87 40 00
        E 2 b7 02 50
        E 0 97 3b 64
        E 478 87 3b 00
        E 2 b7 02 50
        E 0 97 34 64
        E 478 87 34 00
        E 2 b7 02 50
        E 0 97 37 64
        E 478 87 37 00
        E 2 b7 02 50
        E 0 97 3b 64
        E 478 87 3b 00
        E 2 b7 02 50
        E 0 97 34 64
        E 478 87 34 00
        E 2 b7 02 50
        E 0 97 40 64
        E 478 87 40 00
        E 2 b7 02 50
        E 0 97 3b 64
        E 478 87 3b 00
        E 2 b7 02 50
        E 0 97 34 64
        E 478 87 34 00
        E 2 b7 02 50
        E 0 97 37 64
        E 478 87 37 00
        E 2 b7 02 50
        E 0 97 3b 64
        E 478 87 3b 00
        E 2 b7 02 50
        E 0 97 37 64
        E 478 87 37 00
        E 2 b7 02 50
        E 0 97 3e 64
        E 478 87 3e 00
        E 2 b7 02 50
        E 0 97 3b 64
        E 478 87 3b 00
        E 2 b7 02 50
        E 0 97 37 64
        E 478 87 37 00
        E 2 b7 02 50
        E 0 97 3b 64
        E 478 87 3b 00
        E 2 b7 02 50
        E 0 97 3e 64
        E 478 87 3e 00
        E 2 b7 02 50
        E 0 97 2d 64
        E 478 87 2d 00
        E 2 b7 02 50
        E 0 97 34 64
        E 478 87 34 00
        E 2 b7 02 50
        E 0 97 39 64
        E 478 87 39 00
        E 2 b7 02 50
        E 0 97 3b 64
        E 478 87 3b 00
        E 2 b7 02 50
        E 0 97 3d 64
        E 478 87 3d 00
        E 2 b7 02 50
        E 0 97 40 64
        E 478 87 40 00
        E 2 b7 02 50
        E 0 97 32 64
        E 478 87 32 00
        E 2 b7 02 50
        E 0 97 3b 64
        E 478 87 3b 00
        E 2 b7 02 50
        E 0 97 37 64
        E 478 87 37 00
        E 2 b7 02 50
        E 0 97 32 64
        E 478 87 32 00
        E 2 b7 02 50
        E 0 97 37 64
        E 478 87 37 00
        E 2 b7 02 50
        E 0 97 3b 64
        E 478 87 3b 00
        E 2 b7 02 50
        E 0 97 2d 64
        E 478 87 2d 00
        E 2 b7 02 50
        E 0 97 34 64
        E 478 87 34 00
        E 2 b7 02 50
        E 0 97 39 64
        E 478 87 39 00
        E 2 b7 02 50
        E 0 97 3b 64
        E 478 87 3b 00
        E 2 b7 02 50
        E 0 97 3d 64
        E 478 87 3d 00
        E 2 b7 02 50
        E 0 97 40 64
        E 478 87 40 00
        E 2 b7 02 50
        E 0 97 32 64
        E 478 87 32 00
        E 2 b7 02 50
        E 0 97 3e 64
        E 478 87 3e 00
        E 2 b7 02 50
        E 0 97 39 64
        E 478 87 39 00
        E 2 b7 02 50
        E 0 97 32 64
        E 478 87 32 00
        E 2 b7 02 50
        E 0 97 36 64
        E 478 87 36 00
        E 2 b7 02 50
        E 0 97 3e 64
        E 478 87 3e 00
        E 2 b7 02 50
        E 0 97 28 64
        E 478 87 28 00
        E 2 b7 02 50
        E 0 97 3b 64
        E 478 87 3b 00
        E 2 b7 02 50
        E 0 97 38 64
        E 478 87 38 00
        E 2 b7 02 50
        E 0 97 34 64
        E 478 87 34 00
        E 2 b7 02 50
        E 0 97 2f 64
        E 478 87 2f 00
        E 2 b7 02 50
        E 0 97 34 64
        E 478 87 34 00
        E 2 b7 02 50
        E 0 97 37 64
        E 478 87 37 00
        E 2 b7 02 50
        E 0 97 3e 64
        E 478 87 3e 00
        E 2 b7 02 50
        E 0 97 3b 64
        E 478 87 3b 00
        E 2 b7 02 50
        E 0 97 37 64
        E 478 87 37 00
        E 2 b7 02 50
        E 0 97 3b 64
        E 478 87 3b 00
        E 2 b7 02 50
        E 0 97 3e 64
        E 478 87 3e 00
        E 2 b7 02 50
        E 0 97 32 64
        E 478 87 32 00
        E 2 b7 02 50
        E 0 97 3b 64
        E 478 87 3b 00
        E 2 b7 02 50
        E 0 97 37 64
        E 478 87 37 00
        E 2 b7 02 50
        E 0 97 32 64
        E 478 87 32 00
        E 2 b7 02 50
        E 0 97 37 64
        E 478 87 37 00
        E 2 b7 02 50
        E 0 97 3b 64
        E 478 87 3b 00
        E 2 b7 02 50
        E 0 97 2d 64
        E 478 87 2d 00
        E 2 b7 02 50
        E 0 97 34 64
        E 478 87 34 00
        E 2 b7 02 50
        E 0 97 39 64
        E 478 87 39 00
        E 2 b7 02 50
        E 0 97 40 64
        E 478 87 40 00
        E 2 b7 02 50
        E 0 97 3d 64
        E 478 87 3d 00
        E 2 b7 02 50
        E 0 97 39 64
        E 478 87 39 00
        E 2 b7 02 50
        E 0 97 34 64
        E 478 87 34 00
        E 2 b7 02 50
        E 0 97 3b 64
        E 478 87 3b 00
        E 2 b7 02 50
        E 0 97 38 64
        E 478 87 38 00
        E 2 b7 02 50
        E 0 97 34 64
        E 478 87 34 00
        E 2 b7 02 50
        E 0 97 38 64
        E 478 87 38 00
        E 2 b7 02 50
        E 0 97 3b 64
        E 478 87 3b 00
        E 2 b7 02 50
        E 0 97 37 64
        E 478 87 37 00
        E 2 b7 02 50
        E 0 97 3e 64
        E 478 87 3e 00
        E 2 b7 02 50
        E 0 97 3b 64
        E 478 87 3b 00
        E 2 b7 02 50
        E 0 97 37 64
        E 478 87 37 00
        E 2 b7 02 50
        E 0 97 3b 64
        E 478 87 3b 00
        E 2 b7 02 50
        E 0 97 3e 64
        E 478 87 3e 00
        E 2 b7 02 50
        E 0 97 37 64
        E 478 87 37 00
        E 2 b7 02 50
        E 0 97 3e 64
        E 478 87 3e 00
        E 2 b7 02 50
        E 0 97 3b 64
        E 478 87 3b 00
        E 2 b7 02 50
        E 0 97 37 64
        E 478 87 37 00
        E 2 b7 02 50
        E 0 97 3b 64
        E 478 87 3b 00
        E 2 b7 02 50
        E 0 97 3e 64
        E 478 87 3e 00
        E 2 b7 02 50
        E 0 97 28 64
        E 478 87 28 00
        E 2 b7 02 50
        E 0 97 3b 64
        E 478 87 3b 00
        E 2 b7 02 50
        E 0 97 38 64
        E 478 87 38 00
        E 2 b7 02 50
        E 0 97 34 64
        E 478 87 34 00
        E 2 b7 02 50
        E 0 97 2f 64
        E 478 87 2f 00
        E 2 b7 02 50
        E 0 97 34 64
        E 478 87 34 00
        E 2 b7 02 50
        E 0 97 2d 64
        E 478 87 2d 00
        E 2 b7 02 50
        E 0 97 34 64
        E 478 87 34 00
        E 2 b7 02 50
        E 0 97 39 64
        E 478 87 39 00
        E 2 b7 02 50
        E 0 97 40 64
        E 478 87 40 00
        E 2 b7 02 50
        E 0 97 3d 64
        E 478 87 3d 00
        E 2 b7 02 50
        E 0 97 39 64
        E 478 87 39 00
        E 2 b7 02 50
        E 0 97 2d 7f
        E 478 87 2d 00
        E 2 b7 02 50
        E 0 97 34 7f
        E 478 87 34 00
        E 2 b7 02 50
        E 0 97 39 7f
        E 478 87 39 00
        E 2 b7 02 50
        E 0 97 34 7f
        E 478 87 34 00
        E 2 b7 02 50
        E 0 97 3d 7f
        E 478 87 3d 00
        E 2 b7 02 50
        E 0 97 2d 7f
        E 478 87 2d 00
        E 2 b7 02 50
        E 0 97 2a 7f
        E 478 87 2a 00
        E 2 b7 02 50
        E 0 97 31 7f
        E 478 87 31 00
        E 2 b7 02 50
        E 0 97 39 7f
        E 478 87 39 00
        E 2 b7 02 50
        E 0 97 31 7f
        E 478 87 31 00
        E 2 b7 02 50
        E 0 97 3d 7f
        E 478 87 3d 00
        E 2 b7 02 50
        E 0 97 36 7f
        E 478 87 36 00
        E 2 b7 02 50
        E 0 97 28 7f
        E 478 87 28 00
        E 2 b7 02 50
        E 0 97 34 7f
        E 478 87 34 00
        E 2 b7 02 50
        E 0 97 38 7f
        E 478 87 38 00
        E 2 b7 02 50
        E 0 97 34 7f
        E 478 87 34 00
        E 2 b7 02 50
        E 0 97 3b 7f
        E 478 87 3b 00
        E 2 b7 02 50
        E 0 97 34 7f
        E 478 87 34 00
        E 2 b7 02 50
        E 0 97 32 7f
        E 478 87 32 00
        E 2 b7 02 50
        E 0 97 36 7f
        E 478 87 36 00
        E 2 b7 02 50
        E 0 97 39 7f
        E 478 87 39 00
        E 2 b7 02 50
        E 0 97 34 7f
        E 478 87 34 00
        E 2 b7 02 50
        E 0 97 3b 7f
        E 478 87 3b 00
        E 2 b7 02 50
        E 0 97 38 7f
        E 478 87 38 00
        E 2 b7 02 50
        E 0 97 2d 7f
        E 478 87 2d 00
        E 2 b7 02 50
        E 0 97 34 7f
        E 478 87 34 00
        E 2 b7 02 50
        E 0 97 39 7f
        E 478 87 39 00
        E 2 b7 02 50
        E 0 97 34 7f
        E 478 87 34 00
        E 2 b7 02 50
        E 0 97 3d 7f
        E 478 87 3d 00
        E 2 b7 02 50
        E 0 97 2d 7f
        E 478 87 2d 00
        E 2 b7 02 50
        E 0 97 2a 7f
        E 478 87 2a 00
        E 2 b7 02 50
        E 0 97 31 7f
        E 478 87 31 00
        E 2 b7 02 50
        E 0 97 39 7f
        E 478 87 39 00
        E 2 b7 02 50
        E 0 97 31 7f
        E 478 87 31 00
        E 2 b7 02 50
        E 0 97 3d 7f
        E 478 87 3d 00
        E 2 b7 02 50
        E 0 97 36 7f
        E 478 87 36 00
        E 2 b7 02 50
        E 0 97 32 7f
        E 478 87 32 00
        E 2 b7 02 50
        E 0 97 36 7f
        E 478 87 36 00
        E 2 b7 02 50
        E 0 97 39 7f
        E 478 87 39 00
        E 2 b7 02 50
        E 0 97 36 7f
        E 478 87 36 00
        E 2 b7 02 50
        E 0 97 3e 7f
        E 478 87 3e 00
        E 2 b7 02 50
        E 0 97 39 7f
        E 478 87 39 00
        E 2 b7 02 50
        E 0 97 28 7f
        E 478 87 28 00
        E 2 b7 02 50
        E 0 97 34 7f
        E 478 87 34 00
        E 2 b7 02 50
        E 0 97 38 7f
        E 478 87 38 00
        E 2 b7 02 50
        E 0 97 34 7f
        E 478 87 34 00
        E 2 b7 02 50
        E 0 97 3b 7f
        E 478 87 3b 00
        E 2 b7 02 50
        E 0 97 34 7f
        E 478 87 34 00
        E 2 b7 02 50
        E 0 97 2d 7f
        E 478 87 2d 00
        E 2 b7 02 50
        E 0 97 34 7f
        E 478 87 34 00
        E 2 b7 02 50
        E 0 97 39 7f
        E 478 87 39 00
        E 2 b7 02 50
        E 0 97 34 7f
        E 478 87 34 00
        E 2 b7 02 50
        E 0 97 3d 7f
        E 478 87 3d 00
        E 2 b7 02 50
        E 0 97 2d 7f
        E 478 87 2d 00
        E 2 b7 02 50
        E 0 97 2b 7f
        E 478 87 2b 00
        E 2 b7 02 50
        E 0 97 32 7f
        E 478 87 32 00
        E 2 b7 02 50
        E 0 97 3b 7f
        E 478 87 3b 00
        E 2 b7 02 50
        E 0 97 37 7f
        E 478 87 37 00
        E 2 b7 02 50
        E 0 97 3e 7f
        E 478 87 3e 00
        E 2 b7 02 50
        E 0 97 32 7f
        E 478 87 32 00
        E 2 b7 02 50
        E 0 97 32 7f
        E 478 87 32 00
        E 2 b7 02 50
        E 0 97 36 7f
        E 478 87 36 00
        E 2 b7 02 50
        E 0 97 39 7f
        E 478 87 39 00
        E 2 b7 02 50
        E 0 97 36 7f
        E 478 87 36 00
        E 2 b7 02 50
        E 0 97 3e 7f
        E 478 87 3e 00
        E 2 b7 02 50
        E 0 97 39 7f
        E 478 87 39 00
        E 2 b7 02 50
        E 0 97 28 7f
        E 478 87 28 00
        E 2 b7 02 50
        E 0 97 34 7f
        E 478 87 34 00
        E 2 b7 02 50
        E 0 97 38 7f
        E 478 87 38 00
        E 2 b7 02 50
        E 0 97 34 7f
        E 478 87 34 00
        E 2 b7 02 50
        E 0 97 3b 7f
        E 478 87 3b 00
        E 2 b7 02 50
        E 0 97 34 7f
        E 478 87 34 00
        E 2 b7 02 50
        E 0 97 2d 7f
        E 478 87 2d 00
        E 2 b7 02 50
        E 0 97 34 7f
        E 478 87 34 00
        E 2 b7 02 50
        E 0 97 39 7f
        E 478 87 39 00
        E 2 b7 02 50
        E 0 97 34 7f
        E 478 87 34 00
        E 2 b7 02 50
        E 0 97 3d 7f
        E 478 87 3d 00
        E 2 b7 02 50
        E 0 97 2d 7f
        E 478 87 2d 00
        E 2 b7 02 50
        E 0 97 2b 7f
        E 478 87 2b 00
        E 2 b7 02 50
        E 0 97 32 7f
        E 478 87 32 00
        E 2 b7 02 50
        E 0 97 3b 7f
        E 478 87 3b 00
        E 2 b7 02 50
        E 0 97 37 7f
        E 478 87 37 00
        E 2 b7 02 50
        E 0 97 3e 7f
        E 478 87 3e 00
        E 2 b7 02 50
        E 0 97 32 7f
        E 478 87 32 00
        E 2 b7 02 50
        E 0 97 28 7f
        E 478 87 28 00
        E 2 b7 02 50
        E 0 97 34 7f
        E 478 87 34 00
        E 2 b7 02 50
        E 0 97 38 7f
        E 478 87 38 00
        E 2 b7 02 50
        E 0 97 34 7f
        E 478 87 34 00
        E 2 b7 02 50
        E 0 97 3b 7f
        E 478 87 3b 00
        E 2 b7 02 50
        E 0 97 34 7f
        E 478 87 34 00
        E 2 b7 02 50
        E 0 97 2d 7f
        E 478 87 2d 00
        E 2 b7 02 50
        E 0 97 34 7f
        E 478 87 34 00
        E 2 b7 02 50
        E 0 97 39 7f
        E 478 87 39 00
        E 2 b7 02 50
        E 0 97 34 7f
        E 478 87 34 00
        E 2 b7 02 50
        E 0 97 3d 7f
        E 478 87 3d 00
        E 2 b7 02 50
        E 0 97 2d 7f
        E 478 87 2d 00
        E 2 b7 02 50
        E 0 97 32 7f
        E 478 87 32 00
        E 2 b7 02 50
        E 0 97 3e 7f
        E 478 87 3e 00
        E 2 b7 02 50
        E 0 97 39 7f
        E 478 87 39 00
        E 2 b7 02 50
        E 0 97 32 7f
        E 478 87 32 00
        E 2 b7 02 50
        E 0 97 36 7f
        E 478 87 36 00
        E 2 b7 02 50
        E 0 97 39 7f
        E 478 87 39 00
        E 2 b7 02 50
        E 0 97 2d 7f
        E 478 87 2d 00
        E 2 b7 02 50
        E 0 97 3d 7f
        E 478 87 3d 00
        E 2 b7 02 50
        E 0 97 39 7f
        E 478 87 39 00
        E 2 b7 02 50
        E 0 97 34 7f
        E 478 87 34 00
        E 2 b7 02 50
        E 0 97 2d 7f
        E 478 87 2d 00
        E 2 b7 02 50
        E 0 97 34 7f
        E 478 87 34 00
        E 2 b7 02 50
        E 0 97 32 7f
        E 478 87 32 00
        E 2 b7 02 50
        E 0 97 3e 7f
        E 478 87 3e 00
        E 2 b7 02 50
        E 0 97 39 7f
        E 478 87 39 00
        E 2 b7 02 50
        E 0 97 32 7f
        E 478 87 32 00
        E 2 b7 02 50
        E 0 97 36 7f
        E 478 87 36 00
        E 2 b7 02 50
        E 0 97 39 7f
        E 478 87 39 00
        E 2 b7 02 50
        E 0 97 2d 7f
        E 478 87 2d 00
        E 2 b7 02 50
        E 0 97 3d 7f
        E 478 87 3d 00
        E 2 b7 02 50
        E 0 97 39 7f
        E 478 87 39 00
        E 2 b7 02 50
        E 0 97 34 7f
        E 478 87 34 00
        E 2 b7 02 50
        E 0 97 2d 7f
        E 478 87 2d 00
        E 2 b7 02 50
        E 0 97 34 7f
        E 478 87 34 00
        E 2 b7 02 50
        E 0 97 32 7f
        E 478 87 32 00
        E 2 b7 02 50
        E 0 97 3e 7f
        E 478 87 3e 00
        E 2 b7 02 50
        E 0 97 39 7f
        E 478 87 39 00
        E 2 b7 02 50
        E 0 97 34 7f
        E 478 87 34 00
        E 2 b7 02 50
        E 0 97 38 7f
        E 478 87 38 00
        E 2 b7 02 50
        E 0 97 3b 7f
        E 478 87 3b 00
        E 2 b7 02 50
        E 0 97 2d 7f
        E 478 87 2d 00
        E 2 b7 02 50
        E 0 97 3d 7f
        E 478 87 3d 00
        E 2 b7 02 50
        E 0 97 39 7f
        E 478 87 39 00
        E 2 b7 02 50
        E 0 97 34 7f
        E 478 87 34 00
        E 2 b7 02 50
        E 0 97 2d 7f
        E 478 87 2d 00
        E 2 b7 02 50
        E 0 97 34 7f
        E 478 87 34 00
        E 2 b7 02 50
        E 0 97 36 7f
        E 478 87 36 00
        E 2 b7 02 50
        E 0 97 3e 7f
        E 478 87 3e 00
        E 2 b7 02 50
        E 0 97 39 7f
        E 478 87 39 00
        E 2 b7 02 50
        E 0 97 32 7f
        E 478 87 32 00
        E 2 b7 02 50
        E 0 97 36 7f
        E 478 87 36 00
        E 2 b7 02 50
        E 0 97 39 7f
        E 478 87 39 00
        E 2 b7 02 50
        E 0 97 34 7f
        E 478 87 34 00
        E 2 b7 02 50
        E 0 97 40 7f
        E 478 87 40 00
        E 2 b7 02 50
        E 0 97 3b 7f
        E 478 87 3b 00
        E 2 b7 02 50
        E 0 97 38 7f
        E 478 87 38 00
        E 2 b7 02 50
        E 0 97 2f 7f
        E 478 87 2f 00
        E 2 b7 02 50
        E 0 97 34 7f
        E 478 87 34 00
        E 2 b7 02 50
        E 0 97 36 7f
        E 478 87 36 00
        E 2 b7 02 50
        E 0 97 3d 7f
        E 478 87 3d 00
        E 2 b7 02 50
        E 0 97 39 7f
        E 478 87 39 00
        E 2 b7 02 50
        E 0 97 40 7f
        E 478 87 40 00
        E 2 b7 02 50
        E 0 97 39 7f
        E 478 87 39 00
        E 2 b7 02 50
        E 0 97 36 7f
        E 478 87 36 00
        E 2 b7 02 50
        E 0 97 2d 7f
        E 478 87 2d 00
        E 2 b7 02 50
        E 0 97 3d 7f
        E 478 87 3d 00
        E 2 b7 02 50
        E 0 97 39 7f
        E 478 87 39 00
        E 2 b7 02 50
        E 0 97 34 7f
        E 478 87 34 00
        E 2 b7 02 50
        E 0 97 2d 7f
        E 478 87 2d 00
        E 2 b7 02 50
        E 0 97 34 7f
        E 478 87 34 00
        E 2 b7 02 50
        E 0 97 32 7f
        E 478 87 32 00
        E 2 b7 02 50
        E 0 97 3e 7f
        E 478 87 3e 00
        E 2 b7 02 50
        E 0 97 39 7f
        E 478 87 39 00
        E 2 b7 02 50
        E 0 97 34 7f
        E 478 87 34 00
        E 2 b7 02 50
        E 0 97 38 7f
        E 478 87 38 00
        E 2 b7 02 50
        E 0 97 3b 7f
        E 478 87 3b 00
        E 2 b7 02 50
        E 0 97 34 7f
        E 478 87 34 00
        E 2 b7 02 50
        E 0 97 40 7f
        E 478 87 40 00
        E 2 b7 02 50
        E 0 97 3b 7f
        E 478 87 3b 00
        E 2 b7 02 50
        E 0 97 38 7f
        E 478 87 38 00
        E 2 b7 02 50
        E 0 97 2f 7f
        E 478 87 2f 00
        E 2 b7 02 50
        E 0 97 34 7f
        E 478 87 34 00
        E 2 b7 02 50
        E 0 97 2d 7f
        E 478 87 2d 00
        E 2 b7 02 50
        E 0 97 3d 7f
        E 478 87 3d 00
        E 2 b7 02 50
        E 0 97 39 7f
        E 478 87 39 00
        E 2 b7 02 50
        E 0 97 34 7f
        E 478 87 34 00
        E 2 b7 02 50
        E 0 97 2d 7f
        E 478 87 2d 00
        E 2 b7 02 50
        E 0 97 34 7f
        E 478 87 34 00
        E 2 b7 02 50
        E 0 97 2b 7f
        E 478 87 2b 00
        E 2 b7 02 50
        E 0 97 3b 7f
        E 478 87 3b 00
        E 2 b7 02 50
        E 0 97 37 7f
        E 478 87 37 00
        E 2 b7 02 50
        E 0 97 32 7f
        E 478 87 32 00
        E 2 b7 02 50
        E 0 97 2b 7f
        E 478 87 2b 00
        E 2 b7 02 50
        E 0 97 32 7f
        E 478 87 32 00
        E 2 b7 02 50
        E 0 97 34 7f
        E 478 87 34 00
        E 2 b7 02 50
        E 0 97 40 7f
        E 478 87 40 00
        E 2 b7 02 50
        E 0 97 3b 7f
        E 478 87 3b 00
        E 2 b7 02 50
        E 0 97 38 7f
        E 478 87 38 00
        E 2 b7 02 50
        E 0 97 2f 7f
        E 478 87 2f 00
        E 2 b7 02 50
        E 0 97 34 7f
        E 478 87 34 00
        E 2 b7 02 50
        E 0 97 2d 7f
        E 478 87 2d 00
        E 2 b7 02 50
        E 0 97 3d 7f
        E 478 87 3d 00
        E 2 b7 02 50
        E 0 97 39 7f
        E 478 87 39 00
        E 2 b7 02 50
        E 0 97 34 7f
        E 478 87 34 00
        E 2 b7 02 50
        E 0 97 2d 7f
        E 478 87 2d 00
        E 2 b7 02 50
        E 0 97 34 7f
        E 478 87 34 00
        E 2 b7 02 50
        E 0 97 2d 7f
        E 478 87 2d 00
        E 2 b7 02 50
        E 0 97 34 7f
        E 478 87 34 00
        E 2 b7 02 50
        E 0 97 39 7f
        E 478 87 39 00
        E 2 b7 02 50
        E 0 97 34 7f
        E 478 87 34 00
        E 2 b7 02 50
        E 0 97 3d 7f
        E 478 87 3d 00
        E 2 b7 02 50
        E 0 97 2d 7f
        E 478 87 2d 00
        E 2 b7 02 50
        E 0 97 2a 7f
        E 478 87 2a 00
        E 2 b7 02 50
        E 0 97 31 7f
        E 478 87 31 00
        E 2 b7 02 50
        E 0 97 39 7f
        E 478 87 39 00
        E 2 b7 02 50
        E 0 97 31 7f
        E 478 87 31 00
        E 2 b7 02 50
        E 0 97 3d 7f
        E 478 87 3d 00
        E 2 b7 02 50
        E 0 97 36 7f
        E 478 87 36 00
        E 2 b7 02 50
        E 0 97 28 7f
        E 478 87 28 00
        E 2 b7 02 50
        E 0 97 34 7f
        E 478 87 34 00
        E 2 b7 02 50
        E 0 97 38 7f
        E 478 87 38 00
        E 2 b7 02 50
        E 0 97 34 7f
        E 478 87 34 00
        E 2 b7 02 50
        E 0 97 3b 7f
        E 478 87 3b 00
        E 2 b7 02 50
        E 0 97 34 7f
        E 478 87 34 00
        E 2 b7 02 50
        E 0 97 32 7f
        E 478 87 32 00
        E 2 b7 02 50
        E 0 97 36 7f
        E 478 87 36 00
        E 2 b7 02 50
        E 0 97 39 7f
        E 478 87 39 00
        E 2 b7 02 50
        E 0 97 34 7f
        E 478 87 34 00
        E 2 b7 02 50
        E 0 97 3b 7f
        E 478 87 3b 00
        E 2 b7 02 50
        E 0 97 38 7f
        E 478 87 38 00
        E 2 b7 02 50
        E 0 97 2d 7f
        E 478 87 2d 00
        E 2 b7 02 50
        E 0 97 34 7f
        E 478 87 34 00
        E 2 b7 02 50
        E 0 97 39 7f
        E 478 87 39 00
        E 2 b7 02 50
        E 0 97 34 7f
        E 478 87 34 00
        E 2 b7 02 50
        E 0 97 3d 7f
        E 478 87 3d 00
        E 2 b7 02 50
        E 0 97 2d 7f
        E 478 87 2d 00
        E 2 b7 02 50
        E 0 97 2a 7f
        E 478 87 2a 00
        E 2 b7 02 50
        E 0 97 31 7f
        E 478 87 31 00
        E 2 b7 02 50
        E 0 97 39 7f
        E 478 87 39 00
        E 2 b7 02 50
        E 0 97 31 7f
        E 478 87 31 00
        E 2 b7 02 50
        E 0 97 3d 7f
        E 478 87 3d 00
        E 2 b7 02 50
        E 0 97 36 7f
        E 478 87 36 00
        E 2 b7 02 50
        E 0 97 32 7f
        E 478 87 32 00
        E 2 b7 02 50
        E 0 97 36 7f
        E 478 87 36 00
        E 2 b7 02 50
        E 0 97 39 7f
        E 478 87 39 00
        E 2 b7 02 50
        E 0 97 36 7f
        E 478 87 36 00
        E 2 b7 02 50
        E 0 97 3e 7f
        E 478 87 3e 00
        E 2 b7 02 50
        E 0 97 39 7f
        E 478 87 39 00
        E 2 b7 02 50
        E 0 97 28 7f
        E 478 87 28 00
        E 2 b7 02 50
        E 0 97 34 7f
        E 478 87 34 00
        E 2 b7 02 50
        E 0 97 38 7f
        E 478 87 38 00
        E 2 b7 02 50
        E 0 97 34 7f
        E 478 87 34 00
        E 2 b7 02 50
        E 0 97 3b 7f
        E 478 87 3b 00
        E 2 b7 02 50
        E 0 97 34 7f
        E 478 87 34 00
        E 2 b7 02 50
        E 0 97 2d 7f
        E 478 87 2d 00
        E 2 b7 02 50
        E 0 97 34 7f
        E 478 87 34 00
        E 2 b7 02 50
        E 0 97 39 7f
        E 478 87 39 00
        E 2 b7 02 50
        E 0 97 34 7f
        E 478 87 34 00
        E 2 b7 02 50
        E 0 97 3d 7f
        E 478 87 3d 00
        E 2 b7 02 50
        E 0 97 2d 7f
        E 478 87 2d 00
        E 2 b7 02 50
        E 0 97 2b 7f
        E 478 87 2b 00
        E 2 b7 02 50
        E 0 97 32 7f
        E 478 87 32 00
        E 2 b7 02 50
        E 0 97 3b 7f
        E 478 87 3b 00
        E 2 b7 02 50
        E 0 97 37 7f
        E 478 87 37 00
        E 2 b7 02 50
        E 0 97 3e 7f
        E 478 87 3e 00
        E 2 b7 02 50
        E 0 97 32 7f
        E 478 87 32 00
        E 2 b7 02 50
        E 0 97 32 7f
        E 478 87 32 00
        E 2 b7 02 50
        E 0 97 36 7f
        E 478 87 36 00
        E 2 b7 02 50
        E 0 97 39 7f
        E 478 87 39 00
        E 2 b7 02 50
        E 0 97 36 7f
        E 478 87 36 00
        E 2 b7 02 50
        E 0 97 3e 7f
        E 478 87 3e 00
        E 2 b7 02 50
        E 0 97 39 7f
        E 478 87 39 00
        E 2 b7 02 50
        E 0 97 28 7f
        E 478 87 28 00
        E 2 b7 02 50
        E 0 97 34 7f
        E 478 87 34 00
        E 2 b7 02 50
        E 0 97 38 7f
        E 478 87 38 00
        E 2 b7 02 50
        E 0 97 34 7f
        E 478 87 34 00
        E 2 b7 02 50
        E 0 97 3b 7f
        E 478 87 3b 00
        E 2 b7 02 50
        E 0 97 34 7f
        E 478 87 34 00
        E 2 b7 02 50
        E 0 97 2d 7f
        E 478 87 2d 00
        E 2 b7 02 50
        E 0 97 34 7f
        E 478 87 34 00
        E 2 b7 02 50
        E 0 97 39 7f
        E 478 87 39 00
        E 2 b7 02 50
        E 0 97 34 7f
        E 478 87 34 00
        E 2 b7 02 50
        E 0 97 3d 7f
        E 478 87 3d 00
        E 2 b7 02 50
        E 0 97 2d 7f
        E 478 87 2d 00
        E 2 b7 02 50
        E 0 97 2b 7f
        E 478 87 2b 00
        E 2 b7 02 50
        E 0 97 32 7f
        E 478 87 32 00
        E 2 b7 02 50
        E 0 97 3b 7f
        E 478 87 3b 00
        E 2 b7 02 50
        E 0 97 37 7f
        E 478 87 37 00
        E 2 b7 02 50
        E 0 97 3e 7f
        E 478 87 3e 00
        E 2 b7 02 50
        E 0 97 32 7f
        E 478 87 32 00
        E 2 b7 02 50
        E 0 97 28 7f
        E 478 87 28 00
        E 2 b7 02 50
        E 0 97 34 7f
        E 478 87 34 00
        E 2 b7 02 50
        E 0 97 38 7f
        E 478 87 38 00
        E 2 b7 02 50
        E 0 97 34 7f
        E 478 87 34 00
        E 2 b7 02 50
        E 0 97 3b 7f
        E 478 87 3b 00
        E 2 b7 02 50
        E 0 97 34 7f
        E 478 87 34 00
        E 2 b7 02 50
        E 0 97 2d 7f
        E 478 87 2d 00
        E 2 b7 02 50
        E 0 97 34 7f
        E 478 87 34 00
        E 2 b7 02 50
        E 0 97 39 7f
        E 478 87 39 00
        E 2 b7 02 50
        E 0 97 34 7f
        E 478 87 34 00
        E 2 b7 02 50
        E 0 97 3d 7f
        E 478 87 3d 00
        E 2 b7 02 50
        E 0 97 2d 7f
        E 478 87 2d 00
        E 2 b7 02 50
        E 0 97 2d 7f
        E 478 87 2d 00
        E 2 b7 02 50
        E 0 97 34 7f
        E 478 87 34 00
        E 2 b7 02 50
        E 0 97 39 7f
        E 478 87 39 00
        E 2 b7 02 50
        E 0 97 34 7f
        E 478 87 34 00
        E 2 b7 02 50
        E 0 97 3c 7f
        E 478 87 3c 00
        E 2 b7 02 50
        E 0 97 34 7f
        E 478 87 34 00
        E 2 b7 02 50
        E 0 97 2b 7f
        E 478 87 2b 00
        E 2 b7 02 50
        E 0 97 32 7f
        E 478 87 32 00
        E 2 b7 02 50
        E 0 97 37 7f
        E 478 87 37 00
        E 2 b7 02 50
        E 0 97 32 7f
        E 478 87 32 00
        E 2 b7 02 50
        E 0 97 3b 7f
        E 478 87 3b 00
        E 2 b7 02 50
        E 0 97 32 7f
        E 478 87 32 00
        E 2 b7 02 50
        E 0 97 2d 7f
        E 478 87 2d 00
        E 2 b7 02 50
        E 0 97 34 7f
        E 478 87 34 00
        E 2 b7 02 50
        E 0 97 39 7f
        E 478 87 39 00
        E 2 b7 02 50
        E 0 97 34 7f
        E 478 87 34 00
        E 2 b7 02 50
        E 0 97 3c 7f
        E 478 87 3c 00
        E 2 b7 02 50
        E 0 97 34 7f
        E 478 87 34 00
        E 2 b7 02 50
        E 0 97 2d 7f
        E 478 87 2d 00
        E 2 b7 02 50
        E 0 97 3c 7f
        E 478 87 3c 00
        E 2 b7 02 50
        E 0 97 39 7f
        E 478 87 39 00
        E 2 b7 02 50
        E 0 97 34 7f
        E 478 87 34 00
        E 2 b7 02 50
        E 0 97 2d 7f
        E 478 87 2d 00
        E 2 b7 02 50
        E 0 97 34 7f
        E 478 87 34 00
        E 2 b7 02 50
        E 0 97 30 7f
        E 478 87 30 00
        E 2 b7 02 50
        E 0 97 37 7f
        E 478 87 37 00
        E 2 b7 02 50
        E 0 97 3c 7f
        E 478 87 3c 00
        E 2 b7 02 50
        E 0 97 37 7f
        E 478 87 37 00
        E 2 b7 02 50
        E 0 97 40 7f
        E 478 87 40 00
        E 2 b7 02 50
        E 0 97 37 7f
        E 478 87 37 00
        E 2 b7 02 50
        E 0 97 32 7f
        E 478 87 32 00
        E 2 b7 02 50
        E 0 97 39 7f
        E 478 87 39 00
        E 2 b7 02 50
        E 0 97 3e 7f
        E 478 87 3e 00
        E 2 b7 02 50
        E 0 97 39 7f
        E 478 87 39 00
        E 2 b7 02 50
        E 0 97 42 7f
        E 478 87 42 00
        E 2 b7 02 50
        E 0 97 39 7f
        E 478 87 39 00
        E 2 b7 02 50
        E 0 97 28 7f
        E 478 87 28 00
        E 2 b7 02 50
        E 0 97 2f 7f
        E 478 87 2f 00
        E 2 b7 02 50
        E 0 97 34 7f
        E 478 87 34 00
        E 2 b7 02 50
        E 0 97 2f 7f
        E 478 87 2f 00
        E 2 b7 02 50
        E 0 97 39 7f
        E 478 87 39 00
        E 2 b7 02 50
        E 0 97 2f 7f
        E 478 87 2f 00
        E 2 b7 02 50
        E 0 97 28 7f
        E 478 87 28 00
        E 2 b7 02 50
        E 0 97 38 7f
        E 478 87 38 00
        E 2 b7 02 50
        E 0 97 34 7f
        E 478 87 34 00
        E 2 b7 02 50
        E 0 97 2f 7f
        E 478 87 2f 00
        E 2 b7 02 50
        E 0 97 28 7f
        E 478 87 28 00
        E 2 b7 02 50
        E 0 97 2f 7f
        E 478 87 2f 00
        E 2 b7 02 50
        E 0 97 2d 7f
        E 478 87 2d 00
        E 2 b7 02 50
        E 0 97 34 7f
        E 478 87 34 00
        E 2 b7 02 50
        E 0 97 39 7f
        E 478 87 39 00
        E 2 b7 02 50
        E 0 97 34 7f
        E 478 87 34 00
        E 2 b7 02 50
        E 0 97 3c 7f
        E 478 87 3c 00
        E 2 b7 02 50
        E 0 97 34 7f
        E 478 87 34 00
        E 2 b7 02 50
        E 0 97 2b 7f
        E 478 87 2b 00
        E 2 b7 02 50
        E 0 97 32 7f
        E 478 87 32 00
        E 2 b7 02 50
        E 0 97 37 7f
        E 478 87 37 00
        E 2 b7 02 50
        E 0 97 32 7f
        E 478 87 32 00
        E 2 b7 02 50
        E 0 97 3b 7f
        E 478 87 3b 00
        E 2 b7 02 50
        E 0 97 32 7f
        E 478 87 32 00
        E 2 b7 02 50
        E 0 97 30 7f
        E 478 87 30 00
        E 2 b7 02 50
        E 0 97 37 7f
        E 478 87 37 00
        E 2 b7 02 50
        E 0 97 3c 7f
        E 478 87 3c 00
        E 2 b7 02 50
        E 0 97 37 7f
        E 478 87 37 00
        E 2 b7 02 50
        E 0 97 40 7f
        E 478 87 40 00
        E 2 b7 02 50
        E 0 97 37 7f
        E 478 87 37 00
        E 2 b7 02 50
        E 0 97 2d 7f
        E 478 87 2d 00
        E 2 b7 02 50
        E 0 97 3c 7f
        E 478 87 3c 00
        E 2 b7 02 50
        E 0 97 39 7f
        E 478 87 39 00
        E 2 b7 02 50
        E 0 97 34 7f
        E 478 87 34 00
        E 2 b7 02 50
        E 0 97 2d 7f
        E 478 87 2d 00
        E 2 b7 02 50
        E 0 97 34 7f
        E 478 87 34 00
        E 2 b7 02 50
        E 0 97 29 7f
        E 478 87 29 00
        E 2 b7 02 50
        E 0 97 35 7f
        E 478 87 35 00
        E 2 b7 02 50
        E 0 97 39 7f
        E 478 87 39 00
        E 2 b7 02 50
        E 0 97 35 7f
        E 478 87 35 00
        E 2 b7 02 50
        E 0 97 3c 7f
        E 478 87 3c 00
        E 2 b7 02 50
        E 0 97 35 7f
        E 478 87 35 00
        E 2 b7 02 50
        E 0 97 28 7f
        E 478 87 28 00
        E 2 b7 02 50
        E 0 97 2f 7f
        E 478 87 2f 00
        E 2 b7 02 50
        E 0 97 34 7f
        E 478 87 34 00
        E 2 b7 02 50
        E 0 97 2f 7f
        E 478 87 2f 00
        E 2 b7 02 50
        E 0 97 37 7f
        E 478 87 37 00
        E 2 b7 02 50
        E 0 97 2f 7f
        E 478 87 2f 00
        E 2 b7 02 50
        E 0 97 32 7f
        E 478 87 32 00
        E 2 b7 02 50
        E 0 97 39 7f
        E 478 87 39 00
        E 2 b7 02 50
        E 0 97 3e 7f
        E 478 87 3e 00
        E 2 b7 02 50
        E 0 97 39 7f
        E 478 87 39 00
        E 2 b7 02 50
        E 0 97 42 7f
        E 478 87 42 00
        E 2 b7 02 50
        E 0 97 39 7f
        E 478 87 39 00
        E 2 b7 02 50
        E 0 97 32 7f
        E 478 87 32 00
        E 2 b7 02 50
        E 0 97 42 7f
        E 478 87 42 00
        E 2 b7 02 50
        E 0 97 3e 7f
        E 478 87 3e 00
        E 2 b7 02 50
        E 0 97 39 7f
        E 478 87 39 00
        E 2 b7 02 50
        E 0 97 32 7f
        E 478 87 32 00
        E 2 b7 02 50
        E 0 97 39 7f
        E 478 87 39 00
        E 2 b7 02 50
        E 0 97 2d 7f
        E 478 87 2d 00
        E 2 b7 02 50
        E 0 97 34 7f
        E 478 87 34 00
        E 2 b7 02 50
        E 0 97 39 7f
        E 478 87 39 00
        E 2 b7 02 50
        E 0 97 34 7f
        E 478 87 34 00
        E 2 b7 02 50
        E 0 97 3c 7f
        E 478 87 3c 00
        E 2 b7 02 50
        E 0 97 34 7f
        E 478 87 34 00
        E 2 b7 02 50
        E 0 97 2b 7f
        E 478 87 2b 00
        E 2 b7 02 50
        E 0 97 32 7f
        E 478 87 32 00
        E 2 b7 02 50
        E 0 97 37 7f
        E 478 87 37 00
        E 2 b7 02 50
        E 0 97 32 7f
        E 478 87 32 00
        E 2 b7 02 50
        E 0 97 3b 7f
        E 478 87 3b 00
        E 2 b7 02 50
        E 0 97 32 7f
        E 478 87 32 00
        E 2 b7 02 50
        E 0 97 2d 7f
        E 478 87 2d 00
        E 2 b7 02 50
        E 0 97 34 7f
        E 478 87 34 00
        E 2 b7 02 50
        E 0 97 39 7f
        E 478 87 39 00
        E 2 b7 02 50
        E 0 97 34 7f
        E 478 87 34 00
        E 2 b7 02 50
        E 0 97 3c 7f
        E 478 87 3c 00
        E 2 b7 02 50
        E 0 97 34 7f
        E 478 87 34 00
        E 2 b7 02 50
        E 0 97 2d 7f
        E 478 87 2d 00
        E 2 b7 02 50
        E 0 97 3c 7f
        E 478 87 3c 00
        E 2 b7 02 50
        E 0 97 39 7f
        E 478 87 39 00
        E 2 b7 02 50
        E 0 97 34 7f
        E 478 87 34 00
        E 2 b7 02 50
        E 0 97 2d 7f
        E 478 87 2d 00
        E 2 b7 02 50
        E 0 97 34 7f
        E 478 87 34 00
        E 2 b7 02 50
        E 0 97 30 7f
        E 478 87 30 00
        E 2 b7 02 50
        E 0 97 37 7f
        E 478 87 37 00
        E 2 b7 02 50
        E 0 97 3c 7f
        E 478 87 3c 00
        E 2 b7 02 50
        E 0 97 37 7f
        E 478 87 37 00
        E 2 b7 02 50
        E 0 97 40 7f
        E 478 87 40 00
        E 2 b7 02 50
        E 0 97 37 7f
        E 478 87 37 00
        E 2 b7 02 50
        E 0 97 32 7f
        E 478 87 32 00
        E 2 b7 02 50
        E 0 97 39 7f
        E 478 87 39 00
        E 2 b7 02 50
        E 0 97 3e 7f
        E 478 87 3e 00
        E 2 b7 02 50
        E 0 97 39 7f
        E 478 87 39 00
        E 2 b7 02 50
        E 0 97 42 7f
        E 478 87 42 00
        E 2 b7 02 50
        E 0 97 39 7f
        E 478 87 39 00
        E 2 b7 02 50
        E 0 97 28 7f
        E 478 87 28 00
        E 2 b7 02 50
        E 0 97 2f 7f
        E 478 87 2f 00
        E 2 b7 02 50
        E 0 97 34 7f
        E 478 87 34 00
        E 2 b7 02 50
        E 0 97 2f 7f
        E 478 87 2f 00
        E 2 b7 02 50
        E 0 97 38 7f
        E 478 87 38 00
        E 2 b7 02 50
        E 0 97 2f 7f
        E 478 87 2f 00
        E 2 b7 02 50
        E 0 97 28 7f
        E 478 87 28 00
        E 2 b7 02 50
        E 0 97 38 7f
        E 478 87 38 00
        E 2 b7 02 50
        E 0 97 34 7f
        E 478 87 34 00
        E 2 b7 02 50
        E 0 97 2f 7f
        E 478 87 2f 00
        E 2 b7 02 50
        E 0 97 28 7f
        E 478 87 28 00
        E 2 b7 02 50
        E 0 97 2f 7f
        E 478 87 2f 00
        E 2 b7 02 50
        E 0 97 2d 7f
        E 478 87 2d 00
        E 2 b7 02 50
        E 0 97 34 7f
        E 478 87 34 00
        E 2 b7 02 50
        E 0 97 39 7f
        E 478 87 39 00
        E 2 b7 02 50
        E 0 97 34 7f
        E 478 87 34 00
        E 2 b7 02 50
        E 0 97 3c 7f
        E 478 87 3c 00
        E 2 b7 02 50
        E 0 97 34 7f
        E 478 87 34 00
        E 2 b7 02 50
        E 0 97 2b 7f
        E 478 87 2b 00
        E 2 b7 02 50
        E 0 97 32 7f
        E 478 87 32 00
        E 2 b7 02 50
        E 0 97 37 7f
        E 478 87 37 00
        E 2 b7 02 50
        E 0 97 32 7f
        E 478 87 32 00
        E 2 b7 02 50
        E 0 97 3b 7f
        E 478 87 3b 00
        E 2 b7 02 50
        E 0 97 32 7f
        E 478 87 32 00
        E 2 b7 02 50
        E 0 97 30 7f
        E 478 87 30 00
        E 2 b7 02 50
        E 0 97 37 7f
        E 478 87 37 00
        E 2 b7 02 50
        E 0 97 3c 7f
        E 478 87 3c 00
        E 2 b7 02 50
        E 0 97 37 7f
        E 478 87 37 00
        E 2 b7 02 50
        E 0 97 40 7f
        E 478 87 40 00
        E 2 b7 02 50
        E 0 97 37 7f
        E 478 87 37 00
        E 2 b7 02 50
        E 0 97 2d 7f
        E 478 87 2d 00
        E 2 b7 02 50
        E 0 97 3c 7f
        E 478 87 3c 00
        E 2 b7 02 50
        E 0 97 39 7f
        E 478 87 39 00
        E 2 b7 02 50
        E 0 97 34 7f
        E 478 87 34 00
        E 2 b7 02 50
        E 0 97 2d 7f
        E 478 87 2d 00
        E 2 b7 02 50
        E 0 97 34 7f
        E 478 87 34 00
        E 2 b7 02 50
        E 0 97 29 7f
        E 478 87 29 00
        E 2 b7 02 50
        E 0 97 35 7f
        E 478 87 35 00
        E 2 b7 02 50
        E 0 97 39 7f
        E 478 87 39 00
        E 2 b7 02 50
        E 0 97 35 7f
        E 478 87 35 00
        E 2 b7 02 50
        E 0 97 3c 7f
        E 478 87 3c 00
        E 2 b7 02 50
        E 0 97 35 7f
        E 478 87 35 00
        E 2 b7 02 50
        E 0 97 28 7f
        E 478 87 28 00
        E 2 b7 02 50
        E 0 97 2f 7f
        E 478 87 2f 00
        E 2 b7 02 50
        E 0 97 34 7f
        E 478 87 34 00
        E 2 b7 02 50
        E 0 97 2f 7f
        E 478 87 2f 00
        E 2 b7 02 50
        E 0 97 38 7f
        E 478 87 38 00
        E 2 b7 02 50
        E 0 97 2f 7f
        E 478 87 2f 00
        E 2 b7 02 50
        E 0 97 32 7f
        E 478 87 32 00
        E 2 b7 02 50
        E 0 97 39 7f
        E 478 87 39 00
        E 2 b7 02 50
        E 0 97 3e 7f
        E 478 87 3e 00
        E 2 b7 02 50
        E 0 97 39 7f
        E 478 87 39 00
        E 2 b7 02 50
        E 0 97 42 7f
        E 478 87 42 00
        E 2 b7 02 50
        E 0 97 39 7f
        E 478 87 39 00
        E 2 b7 02 50
        E 0 97 32 7f
        E 478 87 32 00
        E 2 b7 02 50
        E 0 97 42 7f
        E 478 87 42 00
        E 2 b7 02 50
        E 0 97 3e 7f
        E 478 87 3e 00
        E 2 b7 02 50
        E 0 97 39 7f
        E 478 87 39 00
        E 2 b7 02 50
        E 0 97 32 7f
        E 478 87 32 00
        E 2 b7 02 50
        E 0 97 39 7f
        E 478 87 39 00
        E 2 b7 02 50
        E 0 97 2d 7f
        E 478 87 2d 00
        E 2 b7 02 50
        E 0 97 34 7f
        E 478 87 34 00
        E 2 b7 02 50
        E 0 97 39 7f
        E 478 87 39 00
        E 2 b7 02 50
        E 0 97 34 7f
        E 478 87 34 00
        E 2 b7 02 50
        E 0 97 3c 7f
        E 478 87 3c 00
        E 2 b7 02 50
        E 0 97 34 7f
        E 478 87 34 00
        E 2 b7 02 50
        E 0 97 2b 7f
        E 478 87 2b 00
        E 2 b7 02 50
        E 0 97 32 7f
        E 478 87 32 00
        E 2 b7 02 50
        E 0 97 37 7f
        E 478 87 37 00
        E 2 b7 02 50
        E 0 97 32 7f
        E 478 87 32 00
        E 2 b7 02 50
        E 0 97 3b 7f
        E 478 87 3b 00
        E 2 b7 02 50
        E 0 97 32 7f
        E 478 87 32 00
        E 2 b7 02 50
        E 0 97 2d 7f
        E 478 87 2d 00
        E 2 b7 02 50
        E 0 97 34 7f
        E 478 87 34 00
        E 2 b7 02 50
        E 0 97 39 7f
        E 478 87 39 00
        E 2 b7 02 50
        E 0 97 34 7f
        E 478 87 34 00
        E 2 b7 02 50
        E 0 97 3c 7f
        E 478 87 3c 00
        E 2 b7 02 50
        E 0 97 34 7f
        E 478 87 34 00
        E 2 b7 02 50
        E 0 97 32 7f
        E 478 87 32 00
        E 2 b7 02 50
        E 0 97 39 7f
        E 478 87 39 00
        E 2 b7 02 50
        E 0 97 3e 7f
        E 478 87 3e 00
        E 2 b7 02 50
        E 0 97 39 7f
        E 478 87 39 00
        E 2 b7 02 50
        E 0 97 42 7f
        E 478 87 42 00
        E 2 b7 02 50
        E 0 97 39 7f
        E 478 87 39 00
        E 2 b7 02 50
        E 0 97 2d 7f
        E 478 87 2d 00
        E 2 b7 02 50
        E 0 97 34 7f
        E 478 87 34 00
        E 2 b7 02 50
        E 0 97 39 7f
        E 478 87 39 00
        E 2 b7 02 50
        E 0 97 34 7f
        E 478 87 34 00
        E 2 b7 02 50
        E 0 97 3c 7f
        E 478 87 3c 00
        E 2 b7 02 50
        E 0 97 34 7f
        E 478 87 34 00
        E 2 b7 02 50
        E 0 97 2b 7f
        E 478 87 2b 00
        E 2 b7 02 50
        E 0 97 32 7f
        E 478 87 32 00
        E 2 b7 02 50
        E 0 97 37 7f
        E 478 87 37 00
        E 2 b7 02 50
        E 0 97 32 7f
        E 478 87 32 00
        E 2 b7 02 50
        E 0 97 3b 7f
        E 478 87 3b 00
        E 2 b7 02 50
        E 0 97 32 7f
        E 478 87 32 00
        E 2 b7 02 50
        E 0 97 32 7f
        E 478 87 32 00
        E 2 b7 02 50
        E 0 97 39 7f
        E 478 87 39 00
        E 2 b7 02 50
        E 0 97 3e 7f
        E 478 87 3e 00
        E 2 b7 02 50
        E 0 97 39 7f
        E 478 87 39 00
        E 2 b7 02 50
        E 0 97 42 7f
        E 478 87 42 00
        E 2 b7 02 50
        E 0 97 39 7f
        E 478 87 39 00
        E 2 b7 02 50
        E 0 97 32 7f
        E 478 87 32 00
        E 2 b7 02 50
        E 0 97 42 7f
        E 478 87 42 00
        E 2 b7 02 50
        E 0 97 3e 7f
        E 478 87 3e 00
        E 2 b7 02 50
        E 0 97 39 7f
        E 478 87 39 00
        E 2 b7 02 50
        E 0 97 32 7f
        E 478 87 32 00
        E 2 b7 02 50
        E 0 97 39 7f
        E 478 87 39 00
        E 2 b7 02 50
        E 0 97 2d 7f
        E 478 87 2d 00
        E 2 b7 02 50
        E 0 97 34 7f
        E 478 87 34 00
        E 2 b7 02 50
        E 0 97 39 7f
        E 478 87 39 00
        E 2 b7 02 50
        E 0 97 34 7f
        E 478 87 34 00
        E 2 b7 02 50
        E 0 97 3c 7f
        E 478 87 3c 00
        E 2 b7 02 50
        E 0 97 34 7f
        E 478 87 34 00
        E 2 b7 02 50
        E 0 97 2b 7f
        E 478 87 2b 00
        E 2 b7 02 50
        E 0 97 32 7f
        E 478 87 32 00
        E 2 b7 02 50
        E 0 97 37 7f
        E 478 87 37 00
        E 2 b7 02 50
        E 0 97 32 7f
        E 478 87 32 00
        E 2 b7 02 50
        E 0 97 3b 7f
        E 478 87 3b 00
        E 2 b7 02 50
        E 0 97 32 7f
        E 478 87 32 00
        E 2 b7 02 50
        E 0 97 2d 7f
        E 478 87 2d 00
        E 2 b7 02 50
        E 0 97 34 7f
        E 478 87 34 00
        E 2 b7 02 50
        E 0 97 39 7f
        E 478 87 39 00
        E 2 b7 02 50
        E 0 97 34 7f
        E 478 87 34 00
        E 2 b7 02 50
        E 0 97 3c 7f
        E 478 87 3c 00
        E 2 b7 02 50
        E 0 97 34 7f
        E 478 87 34 00
        E 2 b7 02 50
        E 0 97 32 7f
        E 478 87 32 00
        E 2 b7 02 50
        E 0 97 39 7f
        E 478 87 39 00
        E 2 b7 02 50
        E 0 97 3e 7f
        E 478 87 3e 00
        E 2 b7 02 50
        E 0 97 39 7f
        E 478 87 39 00
        E 2 b7 02 50
        E 0 97 42 7f
        E 478 87 42 00
        E 2 b7 02 50
        E 0 97 39 7f
        E 478 87 39 00
        E 2 b7 02 50
        E 0 97 30 7f
        E 478 87 30 00
        E 2 b7 02 50
        E 0 97 35 7f
        E 478 87 35 00
        E 2 b7 02 50
        E 0 97 39 7f
        E 478 87 39 00
        E 2 b7 02 50
        E 0 97 35 7f
        E 478 87 35 00
        E 2 b7 02 50
        E 0 97 3c 7f
        E 478 87 3c 00
        E 2 b7 02 50
        E 0 97 30 7f
        E 478 87 30 00
        E 2 b7 02 50
        E 0 97 34 7f
        E 478 87 34 00
        E 2 b7 02 50
        E 0 97 37 7f
        E 478 87 37 00
        E 2 b7 02 50
        E 0 97 3b 7f
        E 478 87 3b 00
        E 2 b7 02 50
        E 0 97 37 7f
        E 478 87 37 00
        E 2 b7 02 50
        E 0 97 3e 7f
        E 478 87 3e 00
        E 2 b7 02 50
        E 0 97 37 7f
        E 478 87 37 00
        E 2 b7 02 50
        E 0 97 32 7f
        E 478 87 32 00
        E 2 b7 02 50
        E 0 97 39 7f
        E 478 87 39 00
        E 2 b7 02 50
        E 0 97 3e 7f
        E 478 87 3e 00
        E 2 b7 02 50
        E 0 97 39 7f
        E 478 87 39 00
        E 2 b7 02 50
        E 0 97 42 7f
        E 478 87 42 00
        E 2 b7 02 50
        E 0 97 39 7f
        E 478 87 39 00
        E 2 b7 02 50
        E 0 97 32 7f
        E 478 87 32 00
        E 2 b7 02 50
        E 0 97 42 7f
        E 478 87 42 00
        E 2 b7 02 50
        E 0 97 3e 7f
        E 478 87 3e 00
        E 2 b7 02 50
        E 0 97 39 7f
        E 478 87 39 00
        E 2 b7 02 50
        E 0 97 32 7f
        E 478 87 32 00
        E 2 b7 02 50
        E 0 97 39 7f
        E 478 87 39 00
        E 2 b7 02 50
        E 0 97 2d 7f
        E 478 87 2d 00
        E 2 b7 02 50
        E 0 97 34 7f
        E 478 87 34 00
        E 2 b7 02 50
        E 0 97 39 7f
        E 478 87 39 00
        E 2 b7 02 50
        E 0 97 34 7f
        E 478 87 34 00
        E 2 b7 02 50
        E 0 97 3c 7f
        E 478 87 3c 00
        E 2 b7 02 50
        E 0 97 34 7f
        E 478 87 34 00
        E 2 b7 02 50
        E 0 97 2b 7f
        E 478 87 2b 00
        E 2 b7 02 50
        E 0 97 32 7f
        E 478 87 32 00
        E 2 b7 02 50
        E 0 97 37 7f
        E 478 87 37 00
        E 2 b7 02 50
        E 0 97 32 7f
        E 478 87 32 00
        E 2 b7 02 50
        E 0 97 3b 7f
        E 478 87 3b 00
        E 2 b7 02 50
        E 0 97 32 7f
        E 478 87 32 00
        E 2 b7 02 50
        E 0 97 2d 7f
        E 478 87 2d 00
        E 2 b7 02 50
        E 0 97 34 7f
        E 478 87 34 00
        E 2 b7 02 50
        E 0 97 39 7f
        E 478 87 39 00
        E 2 b7 02 50
        E 0 97 34 7f
        E 478 87 34 00
        E 2 b7 02 50
        E 0 97 3c 7f
        E 478 87 3c 00
        E 2 b7 02 50
        E 0 97 34 7f
        E 478 87 34 00
        E 2 b7 02 50
        E 0 97 32 7f
        E 478 87 32 00
        E 2 b7 02 50
        E 0 97 39 7f
        E 478 87 39 00
        E 2 b7 02 50
        E 0 97 3e 7f
        E 478 87 3e 00
        E 2 b7 02 50
        E 0 97 39 7f
        E 478 87 39 00
        E 2 b7 02 50
        E 0 97 42 7f
        E 478 87 42 00
        E 2 b7 02 50
        E 0 97 39 7f
        E 478 87 39 00
        E 2 b7 02 50
        E 0 97 2d 7f
        E 478 87 2d 00
        E 2 b7 02 50
        E 0 97 34 7f
        E 478 87 34 00
        E 2 b7 02 50
        E 0 97 39 7f
        E 478 87 39 00
        E 2 b7 02 50
        E 0 97 34 7f
        E 478 87 34 00
        E 2 b7 02 50
        E 0 97 3c 7f
        E 478 87 3c 00
        E 2 b7 02 50
        E 0 97 34 7f
        E 478 87 34 00
        E 2 b7 02 50
        E 0 97 2b 7f
        E 478 87 2b 00
        E 2 b7 02 50
        E 0 97 32 7f
        E 478 87 32 00
        E 2 b7 02 50
        E 0 97 37 7f
        E 478 87 37 00
        E 2 b7 02 50
        E 0 97 32 7f
        E 478 87 32 00
        E 2 b7 02 50
        E 0 97 3b 7f
        E 478 87 3b 00
        E 2 b7 02 50
        E 0 97 32 7f
        E 478 87 32 00
        E 2 b7 02 50
        E 0 97 32 7f
        E 478 87 32 00
        E 2 b7 02 50
        E 0 97 39 7f
        E 478 87 39 00
        E 2 b7 02 50
        E 0 97 3e 7f
        E 478 87 3e 00
        E 2 b7 02 50
        E 0 97 39 7f
        E 478 87 39 00
        E 2 b7 02 50
        E 0 97 42 7f
        E 478 87 42 00
        E 2 b7 02 50
        E 0 97 39 7f
        E 478 87 39 00
        E 2 b7 02 50
        E 0 97 32 7f
        E 478 87 32 00
        E 2 b7 02 50
        E 0 97 42 7f
        E 478 87 42 00
        E 2 b7 02 50
        E 0 97 3e 7f
        E 478 87 3e 00
        E 2 b7 02 50
        E 0 97 39 7f
        E 478 87 39 00
        E 2 b7 02 50
        E 0 97 32 7f
        E 478 87 32 00
        E 2 b7 02 50
        E 0 97 39 7f
        E 478 87 39 00
        E 2 b7 02 50
        E 0 97 2d 7f
        E 478 87 2d 00
        E 2 b7 02 50
        E 0 97 34 7f
        E 478 87 34 00
        E 2 b7 02 50
        E 0 97 39 7f
        E 478 87 39 00
        E 2 b7 02 50
        E 0 97 34 7f
        E 478 87 34 00
        E 2 b7 02 50
        E 0 97 3c 7f
        E 478 87 3c 00
        E 2 b7 02 50
        E 0 97 34 7f
        E 478 87 34 00
        E 2 b7 02 50
        E 0 97 2b 7f
        E 478 87 2b 00
        E 2 b7 02 50
        E 0 97 32 7f
        E 478 87 32 00
        E 2 b7 02 50
        E 0 97 37 7f
        E 478 87 37 00
        E 2 b7 02 50
        E 0 97 32 7f
        E 478 87 32 00
        E 2 b7 02 50
        E 0 97 3b 7f
        E 478 87 3b 00
        E 2 b7 02 50
        E 0 97 32 7f
        E 478 87 32 00
        E 2 b7 02 50
        E 0 97 2d 7f
        E 478 87 2d 00
        E 2 b7 02 50
        E 0 97 34 7f
        E 478 87 34 00
        E 2 b7 02 50
        E 0 97 39 7f
        E 478 87 39 00
        E 2 b7 02 50
        E 0 97 34 7f
        E 478 87 34 00
        E 2 b7 02 50
        E 0 97 3c 7f
        E 478 87 3c 00
        E 2 b7 02 50
        E 0 97 34 7f
        E 478 87 34 00
        E 2 b7 02 50
        E 0 97 32 7f
        E 478 87 32 00
        E 2 b7 02 50
        E 0 97 39 7f
        E 478 87 39 00
        E 2 b7 02 50
        E 0 97 3e 7f
        E 478 87 3e 00
        E 2 b7 02 50
        E 0 97 39 7f
        E 478 87 39 00
        E 2 b7 02 50
        E 0 97 42 7f
        E 478 87 42 00
        E 2 b7 02 50
        E 0 97 39 7f
        E 478 87 39 00
        E 2 b7 02 50
        E 0 97 30 7f
        E 478 87 30 00
        E 2 b7 02 50
        E 0 97 35 7f
        E 478 87 35 00
        E 2 b7 02 50
        E 0 97 39 7f
        E 478 87 39 00
        E 2 b7 02 50
        E 0 97 35 7f
        E 478 87 35 00
        E 2 b7 02 50
        E 0 97 3c 7f
        E 478 87 3c 00
        E 2 b7 02 50
        E 0 97 30 7f
        E 478 87 30 00
        E 2 b7 02 50
        E 0 97 34 7f
        E 478 87 34 00
        E 2 b7 02 50
        E 0 97 37 7f
        E 478 87 37 00
        E 2 b7 02 50
        E 0 97 3b 7f
        E 478 87 3b 00
        E 2 b7 02 50
        E 0 97 37 7f
        E 478 87 37 00
        E 2 b7 02 50
        E 0 97 3e 7f
        E 478 87 3e 00
        E 2 b7 02 50
        E 0 97 37 7f
        E 478 87 37 00
        E 2 b7 02 50
        E 0 97 32 7f
        E 76 97 37 7f
        E 82 97 39 7f
        E 78 97 3e 7f
        E 5520 87 37 00
        E 0 87 39 00
        E 0 87 3e 00
        E 2 87 32 00
        E 2 b7 02 50
        E 0 97 39 7f
        E 158 97 42 7f
        E 158 97 4a 7f
        E 162 97 51 7f
        E 2398 87 42 00
        E 0 87 4a 00
        E 0 87 51 00
        E 2 87 39 00
        E 2 b7 02 50
        E 0 97 45 7f
        E 0 97 4e 7f
        E 0 97 56 7f
        E 2878 87 45 00
        E 0 87 4e 00
        E 0 87 56 00
        E 2 b0 7b 00
        CCINTERP 32
        CHASE_CC_TAKEOFFS 1
        GUID {B74E4961-7DC7-4C38-B6B8-62CB444845FC}
        IGNTEMPO 0 120 4 4
        SRCCOLOR 290
        VELLANE -1 150 0 0 1
      >
    >
  >
  <TRACK {677DB4E9-9D2C-4F4E-B145-51CBF88A10A2}
    NAME Bass
    PEAKCOL 16576
    BEAT -1
    AUTOMODE 0
    VOLPAN 1 0 -1 -1 1
    MUTESOLO 0 0 0
    IPHASE 0
    PLAYOFFS 0 1
    ISBUS 0 0
    BUSCOMP 0 0 0 0 0
    SHOWINMIX 1 0.6667 0.5 1 0.5 0 0 0
    FIXEDLANES 9 0 0
    SEL 0
    REC 0 0 1 0 0 0 0 0
    VU 2
    TRACKHEIGHT 0 0 0 0 0 0 0
    INQ 0 0 0 0.5 100 0 0 100
    NCHAN 2
    FX 1
    TRACKID {677DB4E9-9D2C-4F4E-B145-51CBF88A10A2}
    PERF 0
    MIDIOUT -1
    MAINSEND 1 0
    <FXCHAIN
      WNDRECT 1944 155 655 408
      SHOW 0
      LASTSEL 0
      DOCKED 0
      BYPASS 0 0 0
      <VST "VSTi: sforzando (x86) (Plogue Art et Technologie, Inc)" "sforzando VST_x86.dll" 0 "" 1347176273<565354504C475173666F727A616E646F> ""
        UUdMUO5e7f4AAAAAAgAAAAEAAAAAAAAAAgAAAAAAAAD9AQAAAQAAAAAAEAA=
        Q0VHUD8FAAB4nI2U32+bMBDH3yftf7D8tElrwSFNFimsStds4iFqJdpn62KcDNU/MmxH3X+/gySAqlbAC9z54zvf19wtb1+1IkdZudKalLLrmJLbH58/LVdVCTkcZW9t
        MZ9TcqhsEYTP7tERsylFluCzzKX3pdk78jeAKv0/XKbE+UqCRndKkwklGl7zxrNSyorNXUpvGLo32X32EPzGFrLZBcFbDR6T5sr6lMZ9l5JHqVJaGowdtDSeElUe5Wkz
        kk5g1PoFCtDByBWR9ZGunVBn90/cJauUzhDfK7sF9RRMc0h0RG1BmJuUReM0oDG6202iR/sitTV8rWUFquC5DabYWeP5l+dDAV4WfBX2wXnOkm98Ek/YV17vi+M4ipOE
        r5UUvioF/4UJZcXvwDlKtmBeMkw1RYx2iuO3+APG1AVfoTAHq1DX2ZQS3x34sOUVYKwz4tFwzYLufVrh8S5bgTCCDr6xz+U2JW+gNJeSj6DC6TqidxHWIvFHyGQYSYaR
        6TByM4zMhpH5MPJ9GFkMIywewYzQl40QmI1QmI2QmH2s8SNUoN8o+Pa36RiWsPeoZVT328VY73bYJv0OPLf1qRFXeltKI2TXOM0o6o+q6aIZVaKdC22i38/ZJSgIj6Mj
        66ZMY69b28m6W2XxBNtTd9VBltFlNKLxH9SUZy4=
        AAAQAAAA
      >
      FLOATPOS 0 0 0 0
      FXID {7E57C25B-27D1-41D5-BFFE-4F93FB50C36F}
      WAK 0 0
    >
    <ITEM
      POSITION 0
      SNAPOFFS 0
      LENGTH 196.8
      LOOP 1
      ALLTAKES 0
      FADEIN 1 0 0 1 0 0 0
      FADEOUT 1 0 0 1 0 0 0
      MUTE 0 0
      SEL 0
      IGUID {4AE05EA0-87C9-4FD1-82D0-793A039DBF25}
      IID 11
      NAME "Sleigh Bells - mus_downstream.mid [chan 9]"
      VOLPAN 1 0 1 -1
      SOFFS 0 0
      PLAYRATE 1 1 0 -1 0 0.0025
      CHANMODE 0
      GUID {49270A1B-0D97-4FB1-BE49-DE2E1EC4D442}
      <SOURCE MIDI
        HASDATA 1 960 QN
        CCINTERP 32
        POOLEDEVTS {E23401AB-C8B0-4430-97CC-C146E301847B}
        E 0 c8 21 00
        E 0 b8 64 00
        E 0 b8 65 00
        E 0 b8 06 0c
        E 0 b8 64 7f
        E 0 b8 65 7f
        E 0 b8 07 64
        E 0 b8 0a 40
        E 0 b8 5b 00
        E 0 b8 5d 00
        E 0 b8 79 00
        E 50880 b8 02 50
        E 0 98 28 7f
        E 958 88 28 00
        E 2 b8 02 50
        E 0 98 2d 7f
        E 2878 88 2d 00
        E 2 b8 02 50
        E 0 98 2a 7f
        E 2878 88 2a 00
        E 2 b8 02 50
        E 0 98 28 7f
        E 2878 88 28 00
        E 2 b8 02 50
        E 0 98 26 7f
        E 1438 88 26 00
        E 2 b8 02 50
        E 0 98 28 7f
        E 1438 88 28 00
        E 2 b8 02 50
        E 0 98 2d 7f
        E 2878 88 2d 00
        E 2 b8 02 50
        E 0 98 2a 7f
        E 2878 88 2a 00
        E 2 b8 02 50
        E 0 98 26 7f
        E 2878 88 26 00
        E 2 b8 02 50
        E 0 98 28 7f
        E 2878 88 28 00
        E 2 b8 02 50
        E 0 98 2d 7f
        E 2878 88 2d 00
        E 2 b8 02 50
        E 0 98 2b 7f
        E 2878 88 2b 00
        E 2 b8 02 50
        E 0 98 26 7f
        E 2878 88 26 00
        E 2 b8 02 50
        E 0 98 28 7f
        E 2878 88 28 00
        E 2 b8 02 50
        E 0 98 2d 7f
        E 2878 88 2d 00
        E 2 b8 02 50
        E 0 98 2b 7f
        E 2878 88 2b 00
        E 2 b8 02 50
        E 0 98 28 7f
        E 2878 88 28 00
        E 2 b8 02 50
        E 0 98 21 7f
        E 2878 88 21 00
        E 46082 b8 02 50
        E 0 98 2d 7f
        E 2878 88 2d 00
        E 2 b8 02 50
        E 0 98 2a 7f
        E 2878 88 2a 00
        E 2 b8 02 50
        E 0 98 28 7f
        E 2878 88 28 00
        E 2 b8 02 50
        E 0 98 26 7f
        E 1438 88 26 00
        E 2 b8 02 50
        E 0 98 28 7f
        E 1438 88 28 00
        E 2 b8 02 50
        E 0 98 2d 7f
        E 2878 88 2d 00
        E 2 b8 02 50
        E 0 98 2a 7f
        E 2878 88 2a 00
        E 2 b8 02 50
        E 0 98 26 7f
        E 2878 88 26 00
        E 2 b8 02 50
        E 0 98 28 7f
        E 2878 88 28 00
        E 2 b8 02 50
        E 0 98 2d 7f
        E 2878 88 2d 00
        E 2 b8 02 50
        E 0 98 2b 7f
        E 2878 88 2b 00
        E 2 b8 02 50
        E 0 98 26 7f
        E 2878 88 26 00
        E 2 b8 02 50
        E 0 98 28 7f
        E 2878 88 28 00
        E 2 b8 02 50
        E 0 98 2d 7f
        E 2878 88 2d 00
        E 2 b8 02 50
        E 0 98 2b 7f
        E 2878 88 2b 00
        E 2 b8 02 50
        E 0 98 28 7f
        E 2878 88 28 00
        E 2 b8 02 50
        E 0 98 21 7f
        E 2878 88 21 00
        E 2 b8 02 50
        E 0 98 26 7f
        E 2878 88 26 00
        E 2 b8 02 50
        E 0 98 21 7f
        E 2878 88 21 00
        E 2 b8 02 50
        E 0 98 26 7f
        E 2878 88 26 00
        E 2 b8 02 50
        E 0 98 21 7f
        E 2878 88 21 00
        E 2 b8 02 50
        E 0 98 26 7f
        E 1438 88 26 00
        E 2 b8 02 50
        E 0 98 28 7f
        E 1438 88 28 00
        E 2 b8 02 50
        E 0 98 21 7f
        E 2878 88 21 00
        E 2 b8 02 50
        E 0 98 2a 7f
        E 2878 88 2a 00
        E 2 b8 02 50
        E 0 98 28 7f
        E 2878 88 28 00
        E 2 b8 02 50
        E 0 98 2a 7f
        E 2878 88 2a 00
        E 2 b8 02 50
        E 0 98 2d 7f
        E 1438 88 2d 00
        E 2 b8 02 50
        E 0 98 21 7f
        E 1438 88 21 00
        E 2 b8 02 50
        E 0 98 26 7f
        E 1438 88 26 00
        E 2 b8 02 50
        E 0 98 2a 7f
        E 1438 88 2a 00
        E 2 b8 02 50
        E 0 98 28 7f
        E 2878 88 28 00
        E 2 b8 02 50
        E 0 98 2d 7f
        E 2878 88 2d 00
        E 2 b8 02 50
        E 0 98 2b 7f
        E 2878 88 2b 00
        E 2 b8 02 50
        E 0 98 28 7f
        E 2878 88 28 00
        E 2 b8 02 50
        E 0 98 21 7f
        E 2878 88 21 00
        E 2 b8 02 50
        E 0 98 2d 7f
        E 2878 88 2d 00
        E 2 b8 02 50
        E 0 98 2a 7f
        E 2878 88 2a 00
        E 2 b8 02 50
        E 0 98 28 7f
        E 2878 88 28 00
        E 2 b8 02 50
        E 0 98 26 7f
        E 1438 88 26 00
        E 2 b8 02 50
        E 0 98 28 7f
        E 1438 88 28 00
        E 2 b8 02 50
        E 0 98 2d 7f
        E 2878 88 2d 00
        E 2 b8 02 50
        E 0 98 2a 7f
        E 2878 88 2a 00
        E 2 b8 02 50
        E 0 98 26 7f
        E 2878 88 26 00
        E 2 b8 02 50
        E 0 98 28 7f
        E 2878 88 28 00
        E 2 b8 02 50
        E 0 98 2d 7f
        E 2878 88 2d 00
        E 2 b8 02 50
        E 0 98 2b 7f
        E 2878 88 2b 00
        E 2 b8 02 50
        E 0 98 26 7f
        E 2878 88 26 00
        E 2 b8 02 50
        E 0 98 28 7f
        E 2878 88 28 00
        E 2 b8 02 50
        E 0 98 2d 7f
        E 2878 88 2d 00
        E 2 b8 02 50
        E 0 98 2b 7f
        E 2878 88 2b 00
        E 2 b8 02 50
        E 0 98 28 7f
        E 2878 88 28 00
        E 2 b8 02 50
        E 0 98 21 7f
        E 2878 88 21 00
        E 2 b8 02 50
        E 0 98 21 7f
        E 2878 88 21 00
        E 2 b8 02 50
        E 0 98 1f 7f
        E 2878 88 1f 00
        E 2 b8 02 50
        E 0 98 21 7f
        E 958 88 21 00
        E 482 b8 02 50
        E 0 98 21 7f
        E 478 88 21 00
        E 482 b8 02 50
        E 0 98 21 7f
        E 478 88 21 00
        E 2 b8 02 50
        E 0 98 21 7f
        E 2878 88 21 00
        E 2 b8 02 50
        E 0 98 24 7f
        E 2878 88 24 00
        E 2 b8 02 50
        E 0 98 26 7f
        E 2878 88 26 00
        E 2 b8 02 50
        E 0 98 28 7f
        E 958 88 28 00
        E 482 b8 02 50
        E 0 98 28 7f
        E 478 88 28 00
        E 482 b8 02 50
        E 0 98 1c 7f
        E 478 88 1c 00
        E 2 b8 02 50
        E 0 98 28 7f
        E 2878 88 28 00
        E 2 b8 02 50
        E 0 98 21 7f
        E 2878 88 21 00
        E 2 b8 02 50
        E 0 98 1f 7f
        E 2878 88 1f 00
        E 2 b8 02 50
        E 0 98 24 7f
        E 2878 88 24 00
        E 2 b8 02 50
        E 0 98 21 7f
        E 2878 88 21 00
        E 2 b8 02 50
        E 0 98 1d 7f
        E 2878 88 1d 00
        E 2 b8 02 50
        E 0 98 1c 7f
        E 2878 88 1c 00
        E 2 b8 02 50
        E 0 98 26 7f
        E 2878 88 26 00
        E 2 b8 02 50
        E 0 98 26 7f
        E 2878 88 26 00
        E 2 b8 02 50
        E 0 98 21 7f
        E 2878 88 21 00
        E 2 b8 02 50
        E 0 98 1f 7f
        E 2878 88 1f 00
        E 2 b8 02 50
        E 0 98 21 7f
        E 958 88 21 00
        E 482 b8 02 50
        E 0 98 21 7f
        E 478 88 21 00
        E 482 b8 02 50
        E 0 98 21 7f
        E 478 88 21 00
        E 2 b8 02 50
        E 0 98 21 7f
        E 2878 88 21 00
        E 2 b8 02 50
        E 0 98 24 7f
        E 2878 88 24 00
        E 2 b8 02 50
        E 0 98 26 7f
        E 2878 88 26 00
        E 2 b8 02 50
        E 0 98 28 7f
        E 958 88 28 00
        E 482 b8 02 50
        E 0 98 28 7f
        E 478 88 28 00
        E 482 b8 02 50
        E 0 98 1c 7f
        E 478 88 1c 00
        E 2 b8 02 50
        E 0 98 28 7f
        E 2878 88 28 00
        E 2 b8 02 50
        E 0 98 21 7f
        E 2878 88 21 00
        E 2 b8 02 50
        E 0 98 1f 7f
        E 2878 88 1f 00
        E 2 b8 02 50
        E 0 98 24 7f
        E 2878 88 24 00
        E 2 b8 02 50
        E 0 98 21 7f
        E 2878 88 21 00
        E 2 b8 02 50
        E 0 98 1d 7f
        E 2878 88 1d 00
        E 2 b8 02 50
        E 0 98 1c 7f
        E 2878 88 1c 00
        E 2 b8 02 50
        E 0 98 26 7f
        E 2878 88 26 00
        E 2 b8 02 50
        E 0 98 26 7f
        E 2878 88 26 00
        E 2 b8 02 50
        E 0 98 21 7f
        E 2878 88 21 00
        E 2 b8 02 50
        E 0 98 1f 7f
        E 2878 88 1f 00
        E 2 b8 02 50
        E 0 98 21 7f
        E 958 88 21 00
        E 482 b8 02 50
        E 0 98 24 7f
        E 478 88 24 00
        E 482 b8 02 50
        E 0 98 21 7f
        E 478 88 21 00
        E 2 b8 02 50
        E 0 98 26 7f
        E 2878 88 26 00
        E 2 b8 02 50
        E 0 98 21 7f
        E 2878 88 21 00
        E 2 b8 02 50
        E 0 98 1f 7f
        E 2878 88 1f 00
        E 2 b8 02 50
        E 0 98 26 7f
        E 958 88 26 00
        E 482 b8 02 50
        E 0 98 26 7f
        E 478 88 26 00
        E 482 b8 02 50
        E 0 98 21 7f
        E 478 88 21 00
        E 2 b8 02 50
        E 0 98 26 7f
        E 2878 88 26 00
        E 2 b8 02 50
        E 0 98 21 7f
        E 2878 88 21 00
        E 2 b8 02 50
        E 0 98 1f 7f
        E 2878 88 1f 00
        E 2 b8 02 50
        E 0 98 21 7f
        E 958 88 21 00
        E 482 b8 02 50
        E 0 98 24 7f
        E 478 88 24 00
        E 482 b8 02 50
        E 0 98 21 7f
        E 478 88 21 00
        E 2 b8 02 50
        E 0 98 26 7f
        E 2878 88 26 00
        E 2 b8 02 50
        E 0 98 29 7f
        E 2878 88 29 00
        E 2 b8 02 50
        E 0 98 28 7f
        E 2878 88 28 00
        E 2 b8 02 50
        E 0 98 26 7f
        E 958 88 26 00
        E 482 b8 02 50
        E 0 98 26 7f
        E 478 88 26 00
        E 482 b8 02 50
        E 0 98 21 7f
        E 478 88 21 00
        E 2 b8 02 50
        E 0 98 26 7f
        E 2878 88 26 00
        E 2 b8 02 50
        E 0 98 21 7f
        E 2878 88 21 00
        E 2 b8 02 50
        E 0 98 1f 7f
        E 2878 88 1f 00
        E 2 b8 02 50
        E 0 98 21 7f
        E 958 88 21 00
        E 482 b8 02 50
        E 0 98 24 7f
        E 478 88 24 00
        E 482 b8 02 50
        E 0 98 21 7f
        E 478 88 21 00
        E 2 b8 02 50
        E 0 98 26 7f
        E 2878 88 26 00
        E 2 b8 02 50
        E 0 98 21 7f
        E 2878 88 21 00
        E 2 b8 02 50
        E 0 98 1f 7f
        E 2878 88 1f 00
        E 2 b8 02 50
        E 0 98 26 7f
        E 958 88 26 00
        E 482 b8 02 50
        E 0 98 26 7f
        E 478 88 26 00
        E 482 b8 02 50
        E 0 98 21 7f
        E 478 88 21 00
        E 2 b8 02 50
        E 0 98 26 7f
        E 2878 88 26 00
        E 2 b8 02 50
        E 0 98 21 7f
        E 2878 88 21 00
        E 2 b8 02 50
        E 0 98 1f 7f
        E 2878 88 1f 00
        E 2 b8 02 50
        E 0 98 21 7f
        E 958 88 21 00
        E 482 b8 02 50
        E 0 98 24 7f
        E 478 88 24 00
        E 482 b8 02 50
        E 0 98 21 7f
        E 478 88 21 00
        E 2 b8 02 50
        E 0 98 26 7f
        E 2878 88 26 00
        E 2 b8 02 50
        E 0 98 29 7f
        E 2878 88 29 00
        E 2 b8 02 50
        E 0 98 28 7f
        E 2878 88 28 00
        E 2 b8 02 50
        E 0 98 26 7f
        E 958 88 26 00
        E 482 b8 02 50
        E 0 98 26 7f
        E 478 88 26 00
        E 482 b8 02 50
        E 0 98 21 7f
        E 478 88 21 00
        E 2 b8 02 50
        E 0 98 26 7f
        E 2878 88 26 00
        E 5762 b0 7b 00
        CCINTERP 32
        CHASE_CC_TAKEOFFS 1
        GUID {02CE6536-00A5-4A4B-9A05-DCEE9E16AD4A}
        IGNTEMPO 0 120 4 4
        SRCCOLOR 292
        VELLANE -1 150 0 0 1
      >
    >
  >
  <TRACK {36823ED0-2268-4624-B693-D2D3707829B1}
    NAME Drums
    PEAKCOL 16576
    BEAT -1
    AUTOMODE 0
    VOLPAN 1 0 -1 -1 1
    MUTESOLO 0 0 0
    IPHASE 0
    PLAYOFFS 0 1
    ISBUS 0 0
    BUSCOMP 0 0 0 0 0
    SHOWINMIX 1 0.6667 0.5 1 0.5 0 0 0
    FIXEDLANES 9 0 0
    SEL 0
    REC 0 0 1 0 0 0 0 0
    VU 2
    TRACKHEIGHT 0 0 0 0 0 0 0
    INQ 0 0 0 0.5 100 0 0 100
    NCHAN 2
    FX 1
    TRACKID {36823ED0-2268-4624-B693-D2D3707829B1}
    PERF 0
    MIDIOUT -1
    MAINSEND 1 0
    <FXCHAIN
      WNDRECT 1944 155 655 408
      SHOW 0
      LASTSEL 0
      DOCKED 0
      BYPASS 0 0 0
      <VST "VSTi: sforzando (x86) (Plogue Art et Technologie, Inc)" "sforzando VST_x86.dll" 0 "" 1347176273<565354504C475173666F727A616E646F> ""
        UUdMUO5e7f4AAAAAAgAAAAEAAAAAAAAAAgAAAAAAAAD1AQAAAQAAAAAAEAA=
        Q0VHUDMFAAB4nI2Ub2+bMBDG30/ad7D8qpPWgkmaNBK0ypZoQlW0SrSv0QFOhuo/Gdio+/Y7nARQ1QryBu7xz+fzQ+7ChzcpSMOrutQqouzGp+Th/uuXcF2VkEDDB2ur
        5ZKSY6ULm5t4g4LP5hRZgr8w4caU6lCTvxZEaf7hMiW1qThIlCM6CyiR8JY4ZS2Eznc/InrLUN7Fm/i3NTtdcLcLrNESDB6aCG0i6g8lwRsuIloqzG0lV4YSUTb8tBnJ
        Oses7QMEoMDINeFtSTd1Ls7yT9zFq4guED8InYF4tsoViYLXXQjPJmXhRAUSs9f7wHvSr1xqlW4lr0AUaaKtKvZamfTq5ViA4UW6tgdbm5TNvqeBH7BvabuPBXee7/vp
        BotOH0usOgP1GmP6Ocq0dxnf8z+gVHvJazTjqAV6uZhTYvoij1lagTrwM2IwqN2CHLzq3OD360zBDNIaF5+v6K65g1JdrtmAsKdP4H2IsA7xP0OCcWQ2jszHkdtxZDGO
        LMeRu3FkNY4wfwIzwV82wWA2wWE2wWL2ucdPUIF85+D7v03PsBn7iAq9tscuwXa/57kZdt25lU/Nt5ZZyVXO+8Zx42c4nuYrN57ybhZ0B/16iS9JITc4LuJ+srh428U1
        F1gGL54hO3VXmyT0LuMQg/+7y2KF
        AAAQAAAA
      >
      FLOATPOS 0 0 0 0
      FXID {4D98342A-B95A-4BF0-A142-B44D9372F34F}
      WAK 0 0
    >
    <ITEM
      POSITION 0
      SNAPOFFS 0
      LENGTH 196.8
      LOOP 1
      ALLTAKES 0
      FADEIN 1 0 0 1 0 0 0
      FADEOUT 1 0 0 1 0 0 0
      MUTE 0 0
      SEL 0
      IGUID {C71C877A-8D4A-4BEB-87FD-CFA4C4DFC159}
      IID 12
      NAME "Sleigh Bells - mus_downstream.mid [chan 10]"
      VOLPAN 1 0 1 -1
      SOFFS 0 0
      PLAYRATE 1 1 0 -1 0 0.0025
      CHANMODE 0
      GUID {2C3F382A-D720-4957-96C5-1603F8905614}
      <SOURCE MIDI
        HASDATA 1 960 QN
        CCINTERP 32
        POOLEDEVTS {3CACB9C5-4368-4818-B46C-21D938955389}
        E 0 c9 00 00
        E 0 b9 07 70
        E 0 b9 0a 40
        E 0 b9 5b 00
        E 0 b9 5d 00
        E 0 b9 79 00
        E 191040 99 36 7f
        E 478 89 36 00
        E 482 99 36 7f
        E 478 89 36 00
        E 1442 99 36 7f
        E 478 89 36 00
        E 482 99 36 7f
        E 478 89 36 00
        E 1922 99 36 7f
        E 478 89 36 00
        E 482 99 36 7f
        E 478 89 36 00
        E 962 99 36 7f
        E 478 89 36 00
        E 482 99 36 7f
        E 478 89 36 00
        E 1922 99 36 7f
        E 478 89 36 00
        E 482 99 36 7f
        E 478 89 36 00
        E 962 99 36 7f
        E 478 89 36 00
        E 482 99 36 7f
        E 478 89 36 00
        E 1922 99 36 7f
        E 478 89 36 00
        E 482 99 36 7f
        E 478 89 36 00
        E 482 99 36 7f
        E 478 89 36 00
        E 2 99 36 7f
        E 478 89 36 00
        E 482 99 36 7f
        E 478 89 36 00
        E 1922 99 36 7f
        E 478 89 36 00
        E 482 99 36 7f
        E 478 89 36 00
        E 962 99 36 7f
        E 478 89 36 00
        E 482 99 36 7f
        E 478 89 36 00
        E 1922 99 36 7f
        E 478 89 36 00
        E 482 99 36 7f
        E 478 89 36 00
        E 962 99 36 7f
        E 478 89 36 00
        E 482 99 36 7f
        E 478 89 36 00
        E 1442 99 36 7f
        E 478 89 36 00
        E 482 99 36 7f
        E 478 89 36 00
        E 1442 99 36 7f
        E 478 89 36 00
        E 482 99 36 7f
        E 478 89 36 00
        E 1922 99 36 7f
        E 478 89 36 00
        E 482 99 36 7f
        E 478 89 36 00
        E 482 99 36 7f
        E 478 89 36 00
        E 2 99 36 7f
        E 478 89 36 00
        E 482 99 36 7f
        E 478 89 36 00
        E 1442 99 36 7f
        E 478 89 36 00
        E 482 99 36 7f
        E 478 89 36 00
        E 1442 99 36 7f
        E 478 89 36 00
        E 482 99 36 7f
        E 478 89 36 00
        E 1442 99 36 7f
        E 478 89 36 00
        E 482 99 36 7f
        E 478 89 36 00
        E 962 99 36 7f
        E 478 89 36 00
        E 2 99 36 7f
        E 478 89 36 00
        E 482 99 36 7f
        E 478 89 36 00
        E 1442 99 36 7f
        E 478 89 36 00
        E 482 99 36 7f
        E 478 89 36 00
        E 1442 99 36 7f
        E 478 89 36 00
        E 482 99 36 7f
        E 478 89 36 00
        E 1442 99 36 7f
        E 478 89 36 00
        E 482 99 36 7f
        E 478 89 36 00
        E 962 99 36 7f
        E 478 89 36 00
        E 2 99 36 7f
        E 478 89 36 00
        E 482 99 36 7f
        E 478 89 36 00
        E 1442 99 36 7f
        E 478 89 36 00
        E 482 99 36 7f
        E 478 89 36 00
        E 1442 99 36 7f
        E 478 89 36 00
        E 482 99 36 7f
        E 478 89 36 00
        E 1442 99 36 7f
        E 478 89 36 00
        E 482 99 36 7f
        E 478 89 36 00
        E 962 99 36 7f
        E 478 89 36 00
        E 2 99 36 7f
        E 478 89 36 00
        E 482 99 36 7f
        E 478 89 36 00
        E 1442 99 36 7f
        E 478 89 36 00
        E 482 99 36 7f
        E 478 89 36 00
        E 1442 99 36 7f
        E 478 89 36 00
        E 482 99 36 7f
        E 478 89 36 00
        E 1442 99 36 7f
        E 478 89 36 00
        E 482 99 36 7f
        E 478 89 36 00
        E 962 99 36 7f
        E 478 89 36 00
        E 2 99 36 7f
        E 478 89 36 00
        E 482 99 36 7f
        E 478 89 36 00
        E 482 99 24 7f
        E 960 99 36 7f
        E 958 89 36 00
        E 2 99 36 7f
        E 958 89 24 00
        E 0 89 36 00
        E 2 99 53 7f
        E 958 89 53 00
        E 2 99 36 7f
        E 958 89 36 00
        E 2 99 36 7f
        E 958 89 36 00
        E 2 99 24 7f
        E 958 89 24 00
        E 2 99 36 7f
        E 480 99 24 7f
        E 478 89 36 00
        E 0 89 24 00
        E 2 99 36 7f
        E 480 99 24 7f
        E 478 89 36 00
        E 0 89 24 00
        E 2 99 53 7f
        E 958 89 53 00
        E 2 99 36 7f
        E 958 89 36 00
        E 2 99 36 7f
        E 958 89 36 00
        E 2 99 24 7f
        E 960 99 36 7f
        E 958 89 36 00
        E 2 99 36 7f
        E 958 89 24 00
        E 0 89 36 00
        E 2 99 53 7f
        E 958 89 53 00
        E 2 99 36 7f
        E 958 89 36 00
        E 2 99 36 7f
        E 958 89 36 00
        E 2 99 24 7f
        E 958 89 24 00
        E 2 99 36 7f
        E 480 99 24 7f
        E 478 89 36 00
        E 0 89 24 00
        E 2 99 36 7f
        E 480 99 24 7f
        E 478 89 36 00
        E 0 89 24 00
        E 2 99 53 7f
        E 958 89 53 00
        E 2 99 36 7f
        E 958 89 36 00
        E 2 99 36 7f
        E 958 89 36 00
        E 2 99 24 7f
        E 960 99 36 7f
        E 958 89 36 00
        E 2 99 36 7f
        E 958 89 24 00
        E 0 89 36 00
        E 2 99 53 7f
        E 958 89 53 00
        E 2 99 36 7f
        E 958 89 36 00
        E 2 99 36 7f
        E 958 89 36 00
        E 2 99 24 7f
        E 958 89 24 00
        E 2 99 36 7f
        E 480 99 24 7f
        E 478 89 36 00
        E 0 89 24 00
        E 2 99 36 7f
        E 480 99 24 7f
        E 478 89 36 00
        E 0 89 24 00
        E 2 99 53 7f
        E 958 89 53 00
        E 2 99 36 7f
        E 958 89 36 00
        E 2 99 36 7f
        E 958 89 36 00
        E 2 99 24 7f
        E 960 99 36 7f
        E 958 89 36 00
        E 2 99 36 7f
        E 958 89 24 00
        E 0 89 36 00
        E 2 99 53 7f
        E 958 89 53 00
        E 2 99 36 7f
        E 958 89 36 00
        E 2 99 36 7f
        E 958 89 36 00
        E 2 99 24 7f
        E 958 89 24 00
        E 2 99 36 7f
        E 480 99 24 7f
        E 478 89 36 00
        E 0 89 24 00
        E 2 99 36 7f
        E 480 99 24 7f
        E 478 89 36 00
        E 0 89 24 00
        E 2 99 53 7f
        E 958 89 53 00
        E 2 99 36 7f
        E 958 89 36 00
        E 2 99 36 7f
        E 958 89 36 00
        E 2 99 24 7f
        E 960 99 36 7f
        E 958 89 36 00
        E 2 99 36 7f
        E 958 89 24 00
        E 0 89 36 00
        E 2 99 53 7f
        E 958 89 53 00
        E 2 99 36 7f
        E 958 89 36 00
        E 2 99 36 7f
        E 958 89 36 00
        E 2 99 24 7f
        E 958 89 24 00
        E 2 99 36 7f
        E 480 99 24 7f
        E 478 89 36 00
        E 0 89 24 00
        E 2 99 36 7f
        E 480 99 24 7f
        E 478 89 36 00
        E 0 89 24 00
        E 2 99 53 7f
        E 958 89 53 00
        E 2 99 36 7f
        E 958 89 36 00
        E 2 99 36 7f
        E 958 89 36 00
        E 2 99 24 7f
        E 960 99 36 7f
        E 958 89 36 00
        E 2 99 36 7f
        E 958 89 24 00
        E 0 89 36 00
        E 2 99 53 7f
        E 958 89 53 00
        E 2 99 36 7f
        E 958 89 36 00
        E 2 99 36 7f
        E 958 89 36 00
        E 2 99 24 7f
        E 958 89 24 00
        E 2 99 36 7f
        E 480 99 24 7f
        E 478 89 36 00
        E 0 89 24 00
        E 2 99 36 7f
        E 480 99 24 7f
        E 478 89 36 00
        E 0 89 24 00
        E 2 99 53 7f
        E 958 89 53 00
        E 2 99 36 7f
        E 958 89 36 00
        E 2 99 36 7f
        E 958 89 36 00
        E 2 99 24 7f
        E 960 99 36 7f
        E 958 89 36 00
        E 2 99 36 7f
        E 958 89 24 00
        E 0 89 36 00
        E 2 99 53 7f
        E 958 89 53 00
        E 2 99 36 7f
        E 958 89 36 00
        E 2 99 36 7f
        E 958 89 36 00
        E 2 99 24 7f
        E 958 89 24 00
        E 2 99 36 7f
        E 480 99 24 7f
        E 478 89 36 00
        E 0 89 24 00
        E 2 99 36 7f
        E 480 99 24 7f
        E 478 89 36 00
        E 0 89 24 00
        E 2 99 53 7f
        E 958 89 53 00
        E 2 99 36 7f
        E 958 89 36 00
        E 2 99 36 7f
        E 958 89 36 00
        E 2 99 24 7f
        E 960 99 36 7f
        E 958 89 36 00
        E 2 99 36 7f
        E 958 89 24 00
        E 0 89 36 00
        E 2 99 53 7f
        E 958 89 53 00
        E 2 99 36 7f
        E 958 89 36 00
        E 2 99 36 7f
        E 958 89 36 00
        E 2 99 24 7f
        E 958 89 24 00
        E 482 99 24 7f
        E 478 89 24 00
        E 482 99 24 7f
        E 478 89 24 00
        E 2 99 53 7f
        E 2878 89 53 00
        E 2 99 24 7f
        E 960 99 36 7f
        E 958 89 36 00
        E 2 99 36 7f
        E 958 89 24 00
        E 0 89 36 00
        E 2 99 53 7f
        E 958 89 53 00
        E 2 99 36 7f
        E 958 89 36 00
        E 2 99 36 7f
        E 958 89 36 00
        E 2 99 24 7f
        E 958 89 24 00
        E 2 99 36 7f
        E 480 99 24 7f
        E 478 89 36 00
        E 0 89 24 00
        E 2 99 36 7f
        E 480 99 24 7f
        E 478 89 36 00
        E 0 89 24 00
        E 2 99 53 7f
        E 958 89 53 00
        E 2 99 36 7f
        E 958 89 36 00
        E 2 99 36 7f
        E 958 89 36 00
        E 2 99 24 7f
        E 960 99 36 7f
        E 958 89 36 00
        E 2 99 36 7f
        E 958 89 24 00
        E 0 89 36 00
        E 2 99 53 7f
        E 958 89 53 00
        E 2 99 36 7f
        E 958 89 36 00
        E 2 99 36 7f
        E 958 89 36 00
        E 2 99 24 7f
        E 958 89 24 00
        E 2 99 36 7f
        E 480 99 24 7f
        E 478 89 36 00
        E 0 89 24 00
        E 2 99 36 7f
        E 480 99 24 7f
        E 478 89 36 00
        E 0 89 24 00
        E 2 99 53 7f
        E 958 89 53 00
        E 2 99 36 7f
        E 958 89 36 00
        E 2 99 36 7f
        E 958 89 36 00
        E 2 99 24 7f
        E 960 99 36 7f
        E 958 89 36 00
        E 2 99 36 7f
        E 958 89 24 00
        E 0 89 36 00
        E 2 99 53 7f
        E 958 89 53 00
        E 2 99 36 7f
        E 958 89 36 00
        E 2 99 36 7f
        E 958 89 36 00
        E 2 99 24 7f
        E 958 89 24 00
        E 2 99 36 7f
        E 480 99 24 7f
        E 478 89 36 00
        E 0 89 24 00
        E 2 99 36 7f
        E 480 99 24 7f
        E 478 89 36 00
        E 0 89 24 00
        E 2 99 53 7f
        E 958 89 53 00
        E 2 99 36 7f
        E 958 89 36 00
        E 2 99 36 7f
        E 958 89 36 00
        E 2 99 24 7f
        E 960 99 36 7f
        E 958 89 36 00
        E 2 99 36 7f
        E 958 89 24 00
        E 0 89 36 00
        E 2 99 53 7f
        E 958 89 53 00
        E 2 99 36 7f
        E 958 89 36 00
        E 2 99 36 7f
        E 958 89 36 00
        E 2 99 24 7f
        E 958 89 24 00
        E 2 99 36 7f
        E 480 99 24 7f
        E 478 89 36 00
        E 0 89 24 00
        E 2 99 36 7f
        E 480 99 24 7f
        E 478 89 36 00
        E 0 89 24 00
        E 2 99 53 7f
        E 958 89 53 00
        E 2 99 36 7f
        E 958 89 36 00
        E 2 99 36 7f
        E 958 89 36 00
        E 2 99 24 7f
        E 960 99 36 7f
        E 958 89 36 00
        E 2 99 36 7f
        E 958 89 24 00
        E 0 89 36 00
        E 2 99 53 7f
        E 958 89 53 00
        E 2 99 36 7f
        E 958 89 36 00
        E 2 99 36 7f
        E 958 89 36 00
        E 2 99 24 7f
        E 958 89 24 00
        E 2 99 36 7f
        E 480 99 24 7f
        E 478 89 36 00
        E 0 89 24 00
        E 2 99 36 7f
        E 480 99 24 7f
        E 478 89 36 00
        E 0 89 24 00
        E 2 99 53 7f
        E 958 89 53 00
        E 2 99 36 7f
        E 958 89 36 00
        E 2 99 36 7f
        E 958 89 36 00
        E 2 99 24 7f
        E 960 99 36 7f
        E 958 89 36 00
        E 2 99 36 7f
        E 958 89 24 00
        E 0 89 36 00
        E 2 99 53 7f
        E 958 89 53 00
        E 2 99 36 7f
        E 958 89 36 00
        E 2 99 36 7f
        E 958 89 36 00
        E 2 99 24 7f
        E 958 89 24 00
        E 2 99 36 7f
        E 480 99 24 7f
        E 478 89 36 00
        E 0 89 24 00
        E 2 99 36 7f
        E 480 99 24 7f
        E 478 89 36 00
        E 0 89 24 00
        E 2 99 53 7f
        E 958 89 53 00
        E 2 99 36 7f
        E 958 89 36 00
        E 2 99 36 7f
        E 958 89 36 00
        E 2 99 24 7f
        E 960 99 36 7f
        E 958 89 36 00
        E 2 99 36 7f
        E 958 89 24 00
        E 0 89 36 00
        E 2 99 53 7f
        E 958 89 53 00
        E 2 99 36 7f
        E 958 89 36 00
        E 2 99 36 7f
        E 958 89 36 00
        E 2 99 24 7f
        E 958 89 24 00
        E 2 99 36 7f
        E 480 99 24 7f
        E 478 89 36 00
        E 0 89 24 00
        E 2 99 36 7f
        E 480 99 24 7f
        E 478 89 36 00
        E 0 89 24 00
        E 2 99 53 7f
        E 958 89 53 00
        E 2 99 36 7f
        E 958 89 36 00
        E 2 99 36 7f
        E 958 89 36 00
        E 2 99 24 7f
        E 960 99 36 7f
        E 958 89 36 00
        E 2 99 36 7f
        E 958 89 24 00
        E 0 89 36 00
        E 2 99 53 7f
        E 958 89 53 00
        E 2 99 36 7f
        E 958 89 36 00
        E 2 99 36 7f
        E 958 89 36 00
        E 2 99 24 7f
        E 2878 89 24 00
        E 2 99 53 7f
        E 2878 89 53 00
        E 2 99 53 7f
        E 2878 89 53 00
        E 2882 b0 7b 00
        CCINTERP 32
        CHASE_CC_TAKEOFFS 1
        GUID {E3A8CB70-49A5-4D82-8FC4-0754540F6F7E}
        IGNTEMPO 0 120 4 4
        SRCCOLOR 294
        VELLANE -1 150 0 0 1
      >
    >
  >
>
